<svg width="40" height="40" viewBox="0 0 40 40" fill="none" xmlns="http://www.w3.org/2000/svg">
<g filter="url(#filter0_d)">
<path d="M14.9033 19.4942L23.9596 12.4208C23.9833 12.4022 24.0117 12.3906 24.0416 12.3874C24.0716 12.3842 24.1018 12.3895 24.1289 12.4027C24.156 12.4159 24.1788 12.4365 24.1946 12.4621C24.2105 12.4877 24.2189 12.5172 24.2187 12.5473V14.1002C24.2187 14.1987 24.1725 14.2931 24.0962 14.3534L16.8641 20.0005L24.0962 25.6476C24.1746 25.7078 24.2187 25.8023 24.2187 25.9007V27.4536C24.2187 27.5882 24.0641 27.6625 23.9596 27.5802L14.9033 20.5067C14.8264 20.4467 14.7641 20.3699 14.7213 20.2822C14.6784 20.1944 14.6562 20.0981 14.6562 20.0005C14.6562 19.9029 14.6784 19.8065 14.7213 19.7188C14.7641 19.6311 14.8264 19.5543 14.9033 19.4942Z" fill="black" fill-opacity="0.65"/>
</g>
<defs>
<filter id="filter0_d" x="0" y="0" width="40" height="42" filterUnits="userSpaceOnUse" color-interpolation-filters="sRGB">
<feFlood flood-opacity="0" result="BackgroundImageFix"/>
<feColorMatrix in="SourceAlpha" type="matrix" values="0 0 0 0 0 0 0 0 0 0 0 0 0 0 0 0 0 0 127 0" result="hardAlpha"/>
<feOffset dy="2"/>
<feColorMatrix type="matrix" values="0 0 0 0 0 0 0 0 0 0 0 0 0 0 0 0 0 0 0.043 0"/>
<feBlend mode="normal" in2="BackgroundImageFix" result="effect1_dropShadow"/>
<feBlend mode="normal" in="SourceGraphic" in2="effect1_dropShadow" result="shape"/>
</filter>
</defs>
</svg>
