<svg width="44" height="44" viewBox="0 0 44 44" fill="none" xmlns="http://www.w3.org/2000/svg">
<path d="M17.3051 36.4031C25.3302 36.4031 31.8359 30.0696 31.8359 22.2568C31.8359 14.444 25.3302 8.11055 17.3051 8.11055C9.28003 8.11055 2.77441 14.444 2.77441 22.2568C2.77441 30.0696 9.28003 36.4031 17.3051 36.4031Z" fill="#BFDDFF"/>
<path d="M32.9275 20.8277C32.6305 20.3557 32.2265 19.9562 31.7464 19.6598C31.2664 19.3633 30.723 19.1777 30.1579 19.1172C29.5928 19.0567 29.021 19.1229 28.4862 19.3107C27.9514 19.4985 27.4679 19.803 27.0726 20.2008C26.6774 20.5986 26.3808 21.0792 26.2058 21.6058C26.0307 22.1323 25.9818 22.6909 26.0627 23.2388C26.1436 23.7866 26.3521 24.3092 26.6725 24.7664C26.9928 25.2237 27.4163 25.6035 27.9107 25.8768L33.4603 22.6558C33.4499 22.0116 33.2662 21.3812 32.9275 20.8277Z" fill="black"/>
<path d="M39.906 36.1437L37.0278 37.8141L28.613 26.1887L33.4082 23.4067L39.906 36.1437Z" fill="black"/>
<path d="M34.1999 36.7023L40.2469 33.1948" stroke="white"/>
<path d="M35.653 36.8982L40.0513 34.4135" stroke="white"/>
<path d="M38.8535 36.2578L37.642 36.9354L38.3381 38.1148L39.5495 37.4372L38.8535 36.2578Z" fill="black"/>
<path fill-rule="evenodd" clip-rule="evenodd" d="M9.07851 31.7076C10.8986 29.6564 9.77524 30.8915 10.4757 30.1134C12.9664 27.3458 15.2187 26.2559 18.2142 26.9505C18.747 27.0738 19.7176 27.2443 19.9616 27.9244C20.4106 29.1758 17.1058 31.1635 16.6755 34.2721C16.424 36.0857 23.0094 43.4653 14.5536 41.4522C6.29159 39.4808 7.55278 33.4269 9.07851 31.7076Z" fill="black"/>
<path fill-rule="evenodd" clip-rule="evenodd" d="M16.4463 34.1941C12.6795 33.2873 12.0815 32.5727 12.3479 27.9063C12.4485 26.1652 12.0405 24.4368 12.9981 22.9406C13.9556 21.4443 15.4571 20.7733 18.8085 21.5767L16.4463 34.1941Z" fill="black"/>
<path fill-rule="evenodd" clip-rule="evenodd" d="M15.8632 36.501C19.3487 37.3335 21.8432 40.2625 23.3428 36.4557C23.9017 35.0157 23.0466 33.6264 22.8678 33.2419C22.3425 32.1139 20.6584 31.8708 23.1286 29.3118C24.332 28.064 23.9781 26.7564 23.8309 25.7372C23.6446 24.406 22.9106 23.9707 19.4177 22.391L15.8632 36.501Z" fill="black"/>
<path fill-rule="evenodd" clip-rule="evenodd" d="M23.531 35.7121C23.5962 34.4625 22.3573 34.8851 21.9997 33.7697C21.2992 31.5933 20.6099 29.0978 17.6684 28.3977C13.216 27.3368 17.0723 31.3576 15.7459 34.818C15.1572 36.3505 6.14069 39.4064 14.3915 41.3724C22.4524 43.293 23.4229 37.7325 23.531 35.7121Z" fill="black"/>
<path d="M25.1221 23.1666C25.9881 21.4336 25.748 19.5826 24.5859 19.0323C23.4239 18.482 21.7799 19.4408 20.914 21.1737C20.0481 22.9067 20.2882 24.7577 21.4502 25.308C22.6123 25.8583 24.2562 24.8996 25.1221 23.1666Z" fill="#BFDDFF"/>
<path fill-rule="evenodd" clip-rule="evenodd" d="M19.2295 29.018L16.5041 28.3669L22.769 5.63677L24.4736 6.04302L19.2295 29.018Z" fill="black"/>
<path fill-rule="evenodd" clip-rule="evenodd" d="M24.8667 22.1806C25.012 23.7367 24.5388 25.0498 23.8067 25.1151C23.0746 25.1804 22.3648 23.9707 22.2195 22.4146C22.0742 20.8585 22.5493 19.5454 23.2795 19.4802C24.0098 19.4149 24.7177 20.6246 24.8667 22.1806Z" fill="#BFDDFF"/>
<path fill-rule="evenodd" clip-rule="evenodd" d="M24.6935 6.5726L23.2627 6.04484C23.1995 6.02977 23.14 6.00268 23.0876 5.96513C23.0351 5.92758 22.9908 5.8803 22.9572 5.82603C22.9237 5.77175 22.9014 5.71155 22.8918 5.64888C22.8822 5.5862 22.8855 5.5223 22.9013 5.46085C23.1062 4.64653 23.0876 5.45178 23.7061 3.02334C23.9054 2.24348 23.9148 1.45637 24.1141 0.674696C24.1478 0.549772 24.2308 0.442868 24.3451 0.377262C24.4004 0.344706 24.4619 0.323137 24.5258 0.313798C24.5897 0.30446 24.655 0.307538 24.7177 0.322853L26.059 0.460688C26.3254 0.524165 26.86 1.0211 26.6178 1.27319C26.1982 2.0325 25.8683 2.83561 25.6342 3.66717C25.2784 5.06548 25.8056 5.22326 25.5951 6.05028C25.2624 6.1653 24.956 6.34276 24.6935 6.5726Z" fill="black"/>
<path fill-rule="evenodd" clip-rule="evenodd" d="M22.458 6.09925L23.9483 6.26791C24.0113 6.28182 24.0765 6.28345 24.1402 6.27272C24.2038 6.262 24.2647 6.23912 24.3192 6.2054C24.3738 6.17169 24.4209 6.12781 24.458 6.07629C24.495 6.02476 24.5212 5.96661 24.5351 5.90519C24.7438 5.08362 24.3768 5.81269 24.9971 3.36611C25.1964 2.57719 25.556 1.86806 25.7609 1.07913C25.7894 0.956074 25.7709 0.827121 25.7087 0.71641C25.6768 0.662705 25.6341 0.615775 25.5833 0.578394C25.5324 0.541014 25.4743 0.513941 25.4125 0.498776L24.183 0.0109108C23.9259 -0.0507524 23.2292 0.154187 23.3279 0.493335C23.3288 1.36418 23.2326 2.23254 23.0411 3.08319C22.6834 4.496 22.1562 4.40169 21.9457 5.23596C22.1718 5.48902 22.3457 5.78213 22.458 6.09925Z" fill="black"/>
<path fill-rule="evenodd" clip-rule="evenodd" d="M37.5494 12.6736L32.2867 11.6761C32.2255 11.6585 32.1723 11.621 32.1361 11.5698C32.0998 11.5187 32.0826 11.457 32.0874 11.395V10.3377C32.0874 10.1563 32.2178 10.0294 32.3594 10.0566L37.6239 11.0631C37.6848 11.0807 37.7377 11.1179 37.774 11.1687C37.8102 11.2195 37.8276 11.2808 37.8233 11.3424V12.3998C37.8233 12.5684 37.6929 12.6954 37.5494 12.6736Z" fill="black"/>
<path d="M32.7468 10.6768H32.0874V15.3451H32.7468V10.6768Z" fill="black"/>
<path d="M37.8233 11.6H37.1638V16.8849H37.8233V11.6Z" fill="black"/>
<path d="M36.2822 17.9118C37.22 17.7541 37.9124 17.2438 37.8287 16.772C37.745 16.3002 36.9169 16.0456 35.9791 16.2033C35.0413 16.361 34.3489 16.8713 34.4326 17.3431C34.5163 17.8149 35.3444 18.0695 36.2822 17.9118Z" fill="black"/>
<path d="M31.2152 16.4871C32.1531 16.3294 32.8454 15.819 32.7617 15.3472C32.678 14.8754 31.8499 14.6208 30.9121 14.7785C29.9743 14.9362 29.2819 15.4465 29.3656 15.9183C29.4493 16.3901 30.2774 16.6448 31.2152 16.4871Z" fill="black"/>
<path d="M10.2447 25.1695C8.38177 25.9221 7.07773 27.763 7.15784 29.7507C7.15784 29.895 7.21672 30.0334 7.32153 30.1354C7.42634 30.2375 7.56849 30.2948 7.71671 30.2948C7.86494 30.2948 8.00709 30.2375 8.1119 30.1354C8.21671 30.0334 8.27559 29.895 8.27559 29.7507C8.25203 29.3772 8.29682 29.0026 8.40786 28.6444C8.4358 28.5501 8.46561 28.463 8.49914 28.3633C8.51777 28.3179 8.53453 28.2708 8.55316 28.2254C8.62395 28.0441 8.53453 28.2635 8.57924 28.1656C8.6669 27.9777 8.76774 27.7959 8.88103 27.6215C9.08172 27.311 9.32914 27.0316 9.61502 26.7927C9.75075 26.6736 9.8987 26.5685 10.0565 26.4789C10.1422 26.4269 10.2298 26.378 10.3192 26.332L10.4533 26.2649L10.5427 26.225C10.6828 26.1825 10.801 26.0897 10.8734 25.9654C10.9457 25.8411 10.9667 25.6946 10.9321 25.5558C10.8594 25.2983 10.526 25.0625 10.2447 25.1749V25.1695Z" fill="black"/>
<path d="M9.33 21.8977C8.01568 22.4335 6.84815 23.2609 5.92053 24.3139C4.9929 25.3668 4.33084 26.6162 3.98715 27.9625C3.79487 28.7159 3.71211 29.4918 3.74126 30.2676C3.74126 30.4119 3.80014 30.5503 3.90495 30.6523C4.00975 30.7544 4.15191 30.8117 4.30013 30.8117C4.44835 30.8117 4.5905 30.7544 4.69531 30.6523C4.80012 30.5503 4.85901 30.4119 4.85901 30.2676C4.82698 29.0559 5.0846 27.8536 5.61157 26.7555C6.13854 25.6573 6.92044 24.6934 7.89555 23.9399C8.42461 23.5329 9.00729 23.1968 9.62806 22.9406C9.76866 22.8988 9.88743 22.8061 9.95988 22.6816C10.0323 22.557 10.0529 22.4102 10.0174 22.2713C9.94476 22.0156 9.6113 21.7798 9.33 21.8923V21.8977Z" fill="black"/>
<path d="M8.2048 18.4174C4.3318 19.959 1.38839 23.3595 0.380558 27.3041C0.0912106 28.4221 -0.0342266 29.5743 0.00797553 30.7264C0.010837 30.8699 0.0706396 31.0066 0.174835 31.1081C0.27903 31.2095 0.419523 31.2677 0.56685 31.2705C0.715072 31.2705 0.857227 31.2132 0.962037 31.1112C1.06685 31.0091 1.12572 30.8707 1.12572 30.7264C0.971102 27.0013 2.80235 23.3486 5.79791 21.0127C6.62441 20.3781 7.53722 19.8581 8.51032 19.4675C8.65066 19.4253 8.76915 19.3325 8.84153 19.2081C8.91391 19.0837 8.93471 18.9371 8.89967 18.7982C8.82702 18.5407 8.49356 18.3049 8.21225 18.4174H8.2048Z" fill="black"/>
<path d="M43.4139 9.00648H43.412C43.2453 9.00648 43.1102 9.13802 43.1102 9.30029V15.4503C43.1102 15.6125 43.2453 15.7441 43.412 15.7441H43.4139C43.5805 15.7441 43.7157 15.6125 43.7157 15.4503V9.30029C43.7157 9.13802 43.5805 9.00648 43.4139 9.00648Z" fill="black"/>
<path d="M42.288 16.9237C43.2335 16.6749 43.8685 15.9997 43.7063 15.4156C43.5441 14.8316 42.6461 14.5599 41.7006 14.8088C40.7551 15.0577 40.1201 15.7329 40.2823 16.3169C40.4445 16.901 41.3425 17.1726 42.288 16.9237Z" fill="black"/>
<path d="M29.1887 43.5959C28.2569 42.0645 27.6844 40.3514 27.512 38.5794C27.4413 37.8141 27.3686 36.9472 27.6499 36.2217C27.9312 35.4963 28.6838 35.1662 29.4625 35.2968C30.3325 35.4437 31.0255 36.0567 31.6589 36.6116C32.3258 37.1956 32.9741 37.7978 33.6373 38.3817C34.3005 38.9657 34.973 39.528 35.6865 40.0448C36.033 40.2933 36.3888 40.5327 36.7558 40.7521C37.1338 41.0021 37.5483 41.1953 37.9853 41.3253C38.184 41.3798 38.392 41.3942 38.5966 41.3676C38.8012 41.341 38.998 41.2739 39.175 41.1704C39.352 41.0669 39.5053 40.9293 39.6256 40.766C39.7458 40.6027 39.8305 40.4171 39.8743 40.2208C40.1258 39.2867 39.6005 38.4235 39.0956 37.6726C38.8982 37.3806 38.4138 37.6527 38.6113 37.9465C39.0435 38.5903 39.5763 39.3611 39.3099 40.1645C39.2674 40.3212 39.1834 40.4642 39.0664 40.5794C38.9494 40.6946 38.8034 40.7779 38.6429 40.8211C38.2052 40.9136 37.7543 40.6869 37.3873 40.4837C35.8281 39.6204 34.4998 38.4271 33.1921 37.2464C32.5419 36.6588 31.9029 36.0458 31.195 35.5217C30.5374 35.0356 29.7457 34.6602 28.8999 34.7327C28.5207 34.7568 28.1562 34.8844 27.8481 35.1009C27.54 35.3174 27.3009 35.6141 27.1581 35.9569C26.8507 36.6824 26.8749 37.5003 26.9252 38.262C27.0598 40.2424 27.6698 42.1643 28.7062 43.8734C28.7449 43.9329 28.8058 43.9755 28.8761 43.9922C28.9463 44.0089 29.0206 43.9985 29.0831 43.963C29.1456 43.9275 29.1915 43.8698 29.2112 43.802C29.2309 43.7342 29.2228 43.6616 29.1887 43.5995V43.5959Z" fill="black"/>
</svg>
