<svg width="375" height="667" viewBox="0 0 375 667" fill="none" xmlns="http://www.w3.org/2000/svg">
<g clip-path="url(#clip0)">
<rect width="375" height="667" fill="#FAFAF4"/>
<g filter="url(#filter0_d)">
<path d="M25.9033 33.4942L34.9596 26.4208C34.9833 26.4022 35.0117 26.3906 35.0416 26.3874C35.0716 26.3842 35.1018 26.3895 35.1289 26.4027C35.156 26.4159 35.1788 26.4365 35.1946 26.4621C35.2105 26.4877 35.2189 26.5172 35.2187 26.5473V28.1002C35.2187 28.1987 35.1725 28.2931 35.0962 28.3534L27.8641 34.0005L35.0962 39.6476C35.1746 39.7078 35.2187 39.8023 35.2187 39.9007V41.4536C35.2187 41.5882 35.0641 41.6625 34.9596 41.5802L25.9033 34.5067C25.8264 34.4467 25.7641 34.3699 25.7213 34.2822C25.6784 34.1944 25.6562 34.0981 25.6562 34.0005C25.6562 33.9029 25.6784 33.8065 25.7213 33.7188C25.7641 33.6311 25.8264 33.5543 25.9033 33.4942Z" fill="#002642"/>
</g>
<g filter="url(#filter1_d)">
<rect x="26" y="190" width="324" height="68" rx="20" fill="white"/>
</g>
<path d="M104.767 234.182H103.912L102.46 235.131V235.972L103.852 235.062H103.886V240H104.767V234.182ZM108.372 240.08C109.588 240.091 110.395 239.216 110.392 238.099C110.395 236.986 109.585 236.188 108.577 236.188C107.963 236.188 107.432 236.483 107.134 236.974H107.091C107.094 235.653 107.594 234.869 108.446 234.869C109.006 234.869 109.358 235.21 109.477 235.693H110.344C110.21 234.773 109.486 234.102 108.446 234.102C107.094 234.102 106.25 235.264 106.25 237.287C106.247 239.429 107.338 240.071 108.372 240.08ZM108.369 239.341C107.693 239.341 107.199 238.773 107.199 238.119C107.202 237.469 107.719 236.901 108.389 236.901C109.054 236.901 109.543 237.438 109.54 238.111C109.543 238.798 109.034 239.341 108.369 239.341ZM113.654 233.909H112.896L111.021 240.875H111.779L113.654 233.909ZM116.39 240.097C117.734 240.097 118.521 239 118.521 237.094C118.521 235.202 117.722 234.102 116.39 234.102C115.055 234.102 114.259 235.199 114.256 237.094C114.256 238.997 115.043 240.094 116.39 240.097ZM116.39 239.338C115.603 239.338 115.129 238.548 115.129 237.094C115.131 235.645 115.606 234.847 116.39 234.847C117.171 234.847 117.648 235.645 117.648 237.094C117.648 238.548 117.174 239.338 116.39 239.338ZM121.736 234.182H120.881L119.429 235.131V235.972L120.821 235.062H120.855V240H121.736V234.182ZM125.537 233.909H124.778L122.903 240.875H123.662L125.537 233.909ZM126.247 240H130.077V239.247H127.457V239.205L128.614 237.994C129.679 236.918 129.983 236.403 129.983 235.753C129.983 234.818 129.222 234.102 128.125 234.102C127.037 234.102 126.241 234.807 126.241 235.869H127.08C127.077 235.244 127.48 234.835 128.108 234.835C128.699 234.835 129.148 235.199 129.148 235.778C129.148 236.293 128.841 236.662 128.216 237.324L126.247 239.364V240ZM133.179 240.097C134.523 240.097 135.31 239 135.31 237.094C135.31 235.202 134.511 234.102 133.179 234.102C131.844 234.102 131.048 235.199 131.045 237.094C131.045 238.997 131.832 240.094 133.179 240.097ZM133.179 239.338C132.392 239.338 131.918 238.548 131.918 237.094C131.92 235.645 132.395 234.847 133.179 234.847C133.96 234.847 134.438 235.645 134.438 237.094C134.438 238.548 133.963 239.338 133.179 239.338ZM140.642 234.182H139.787L138.335 235.131V235.972L139.727 235.062H139.761V240H140.642V234.182ZM142.216 240H146.045V239.247H143.426V239.205L144.582 237.994C145.648 236.918 145.952 236.403 145.952 235.753C145.952 234.818 145.19 234.102 144.094 234.102C143.006 234.102 142.21 234.807 142.21 235.869H143.048C143.045 235.244 143.449 234.835 144.077 234.835C144.668 234.835 145.116 235.199 145.116 235.778C145.116 236.293 144.81 236.662 144.185 237.324L142.216 239.364V240ZM147.693 236.878C148.003 236.878 148.261 236.625 148.261 236.31C148.261 236 148.003 235.744 147.693 235.744C147.381 235.744 147.125 236 147.125 236.31C147.125 236.625 147.381 236.878 147.693 236.878ZM147.693 240.054C148.003 240.054 148.261 239.801 148.261 239.486C148.261 239.176 148.003 238.92 147.693 238.92C147.381 238.92 147.125 239.176 147.125 239.486C147.125 239.801 147.381 240.054 147.693 240.054ZM151.413 240.097C152.757 240.097 153.544 239 153.544 237.094C153.544 235.202 152.746 234.102 151.413 234.102C150.078 234.102 149.283 235.199 149.28 237.094C149.28 238.997 150.067 240.094 151.413 240.097ZM151.413 239.338C150.626 239.338 150.152 238.548 150.152 237.094C150.155 235.645 150.629 234.847 151.413 234.847C152.195 234.847 152.672 235.645 152.672 237.094C152.672 238.548 152.197 239.338 151.413 239.338ZM156.577 240.097C157.921 240.097 158.708 239 158.708 237.094C158.708 235.202 157.91 234.102 156.577 234.102C155.242 234.102 154.447 235.199 154.444 237.094C154.444 238.997 155.231 240.094 156.577 240.097ZM156.577 239.338C155.79 239.338 155.316 238.548 155.316 237.094C155.319 235.645 155.793 234.847 156.577 234.847C157.359 234.847 157.836 235.645 157.836 237.094C157.836 238.548 157.362 239.338 156.577 239.338ZM161.913 240H162.79V237.955H163.984C165.333 237.955 166.001 237.139 166.001 236.065C166.001 234.994 165.339 234.182 163.987 234.182H161.913V240ZM162.79 237.21V234.935H163.893C164.762 234.935 165.117 235.406 165.117 236.065C165.117 236.724 164.762 237.21 163.904 237.21H162.79ZM167.03 234.182V240H167.865V235.787H167.919L169.635 239.991H170.328L172.044 235.79H172.098V240H172.933V234.182H171.868L170.016 238.705H169.947L168.095 234.182H167.03ZM178.83 237.173H176.25V237.909H178.83V237.173ZM184.275 234.182H183.42L181.968 235.131V235.972L183.36 235.062H183.394V240H184.275V234.182ZM186.42 236.878C186.729 236.878 186.988 236.625 186.988 236.31C186.988 236 186.729 235.744 186.42 235.744C186.107 235.744 185.852 236 185.852 236.31C185.852 236.625 186.107 236.878 186.42 236.878ZM186.42 240.054C186.729 240.054 186.988 239.801 186.988 239.486C186.988 239.176 186.729 238.92 186.42 238.92C186.107 238.92 185.852 239.176 185.852 239.486C185.852 239.801 186.107 240.054 186.42 240.054ZM190.14 240.097C191.484 240.097 192.271 239 192.271 237.094C192.271 235.202 191.472 234.102 190.14 234.102C188.805 234.102 188.009 235.199 188.006 237.094C188.006 238.997 188.793 240.094 190.14 240.097ZM190.14 239.338C189.353 239.338 188.879 238.548 188.879 237.094C188.881 235.645 189.356 234.847 190.14 234.847C190.921 234.847 191.398 235.645 191.398 237.094C191.398 238.548 190.924 239.338 190.14 239.338ZM195.304 240.097C196.648 240.097 197.435 239 197.435 237.094C197.435 235.202 196.636 234.102 195.304 234.102C193.969 234.102 193.173 235.199 193.17 237.094C193.17 238.997 193.957 240.094 195.304 240.097ZM195.304 239.338C194.517 239.338 194.043 238.548 194.043 237.094C194.045 235.645 194.52 234.847 195.304 234.847C196.085 234.847 196.562 235.645 196.562 237.094C196.562 238.548 196.088 239.338 195.304 239.338ZM200.639 240H201.517V237.955H202.71C204.06 237.955 204.727 237.139 204.727 236.065C204.727 234.994 204.065 234.182 202.713 234.182H200.639V240ZM201.517 237.21V234.935H202.619C203.489 234.935 203.844 235.406 203.844 236.065C203.844 236.724 203.489 237.21 202.631 237.21H201.517ZM205.756 234.182V240H206.592V235.787H206.646L208.362 239.991H209.055L210.771 235.79H210.825V240H211.66V234.182H210.594L208.742 238.705H208.674L206.822 234.182H205.756Z" fill="#DE5F4C"/>
<path d="M102.881 228H103.761V225.159H105.352C105.416 225.159 105.477 225.159 105.537 225.156L107.071 228H108.094L106.45 224.996C107.376 224.68 107.81 223.923 107.81 222.957C107.81 221.672 107.043 220.727 105.338 220.727H102.881V228ZM103.761 224.364V221.509H105.31C106.489 221.509 106.943 222.084 106.943 222.957C106.943 223.831 106.489 224.364 105.324 224.364H103.761ZM109.277 228H110.158V224.747H114.036V228H114.916V220.727H114.036V223.966H110.158V220.727H109.277V228ZM118.853 228.114C119.961 228.114 120.77 227.56 121.026 226.736L120.216 226.509C120.003 227.077 119.51 227.361 118.853 227.361C117.869 227.361 117.191 226.725 117.152 225.557H121.111V225.202C121.111 223.17 119.904 222.474 118.768 222.474C117.29 222.474 116.31 223.639 116.31 225.315C116.31 226.991 117.276 228.114 118.853 228.114ZM117.152 224.832C117.209 223.984 117.809 223.227 118.768 223.227C119.677 223.227 120.259 223.909 120.259 224.832H117.152ZM122.5 228H123.309V227.162H123.409C123.594 227.46 123.949 228.114 125 228.114C126.363 228.114 127.315 227.02 127.315 225.287C127.315 223.568 126.363 222.474 124.986 222.474C123.92 222.474 123.594 223.128 123.409 223.412H123.338V220.727H122.5V228ZM123.324 225.273C123.324 224.051 123.863 223.227 124.886 223.227C125.952 223.227 126.477 224.122 126.477 225.273C126.477 226.438 125.937 227.361 124.886 227.361C123.878 227.361 123.324 226.509 123.324 225.273ZM130.884 228.114C131.992 228.114 132.802 227.56 133.057 226.736L132.248 226.509C132.035 227.077 131.541 227.361 130.884 227.361C129.9 227.361 129.222 226.725 129.183 225.557H133.143V225.202C133.143 223.17 131.935 222.474 130.799 222.474C129.322 222.474 128.341 223.639 128.341 225.315C128.341 226.991 129.307 228.114 130.884 228.114ZM129.183 224.832C129.24 223.984 129.84 223.227 130.799 223.227C131.708 223.227 132.29 223.909 132.29 224.832H129.183ZM135.256 220.727H134.417V228H135.256V220.727ZM140.654 223.767C140.391 222.993 139.802 222.474 138.722 222.474C137.572 222.474 136.719 223.128 136.719 224.051C136.719 224.804 137.167 225.308 138.168 225.543L139.077 225.756C139.628 225.884 139.887 226.146 139.887 226.523C139.887 226.991 139.39 227.375 138.609 227.375C137.923 227.375 137.494 227.08 137.344 226.494L136.549 226.693C136.744 227.62 137.508 228.114 138.623 228.114C139.891 228.114 140.754 227.421 140.754 226.48C140.754 225.72 140.278 225.241 139.305 225.003L138.495 224.804C137.849 224.644 137.558 224.428 137.558 224.009C137.558 223.54 138.055 223.199 138.722 223.199C139.454 223.199 139.756 223.604 139.901 223.98L140.654 223.767ZM144.941 228H145.822V225.344H147.413C149.107 225.344 149.87 224.314 149.87 223.028C149.87 221.743 149.107 220.727 147.399 220.727H144.941V228ZM145.822 224.562V221.509H147.37C148.553 221.509 149.004 222.155 149.004 223.028C149.004 223.902 148.553 224.562 147.384 224.562H145.822ZM151.175 228H152.013V224.548C152.013 223.81 152.596 223.27 153.391 223.27C153.615 223.27 153.846 223.312 153.903 223.327V222.474C153.807 222.467 153.586 222.46 153.462 222.46C152.809 222.46 152.241 222.83 152.042 223.369H151.985V222.545H151.175V228ZM156.501 228.128C157.453 228.128 157.95 227.616 158.12 227.261H158.163V228H159.001V224.406C159.001 222.673 157.68 222.474 156.984 222.474C156.16 222.474 155.223 222.759 154.797 223.753L155.592 224.037C155.777 223.639 156.213 223.213 157.012 223.213C157.783 223.213 158.163 223.621 158.163 224.321V224.349C158.163 224.754 157.751 224.719 156.757 224.847C155.745 224.978 154.64 225.202 154.64 226.452C154.64 227.517 155.464 228.128 156.501 228.128ZM156.629 227.375C155.961 227.375 155.478 227.077 155.478 226.494C155.478 225.855 156.061 225.656 156.714 225.571C157.069 225.528 158.021 225.429 158.163 225.259V226.026C158.163 226.707 157.623 227.375 156.629 227.375ZM162.747 228.114C163.954 228.114 164.749 227.375 164.892 226.409H164.053C163.897 227.006 163.4 227.361 162.747 227.361C161.752 227.361 161.113 226.537 161.113 225.273C161.113 224.037 161.767 223.227 162.747 223.227C163.485 223.227 163.926 223.682 164.053 224.179H164.892C164.749 223.156 163.883 222.474 162.732 222.474C161.255 222.474 160.275 223.639 160.275 225.301C160.275 226.935 161.213 228.114 162.747 228.114ZM168.489 222.545H167.324V221.239H166.486V222.545H165.662V223.256H166.486V226.665C166.486 227.616 167.253 228.071 167.963 228.071C168.276 228.071 168.475 228.014 168.588 227.972L168.418 227.219C168.347 227.233 168.233 227.261 168.048 227.261C167.679 227.261 167.324 227.148 167.324 226.438V223.256H168.489V222.545ZM169.749 228H170.588V222.545H169.749V228ZM170.176 221.636C170.502 221.636 170.772 221.381 170.772 221.068C170.772 220.756 170.502 220.5 170.176 220.5C169.849 220.5 169.579 220.756 169.579 221.068C169.579 221.381 169.849 221.636 170.176 221.636ZM174.338 228.114C175.546 228.114 176.341 227.375 176.483 226.409H175.645C175.489 227.006 174.992 227.361 174.338 227.361C173.344 227.361 172.705 226.537 172.705 225.273C172.705 224.037 173.358 223.227 174.338 223.227C175.077 223.227 175.517 223.682 175.645 224.179H176.483C176.341 223.156 175.475 222.474 174.324 222.474C172.847 222.474 171.867 223.639 171.867 225.301C171.867 226.935 172.804 228.114 174.338 228.114ZM179.995 228.114C181.103 228.114 181.913 227.56 182.169 226.736L181.359 226.509C181.146 227.077 180.652 227.361 179.995 227.361C179.012 227.361 178.333 226.725 178.294 225.557H182.254V225.202C182.254 223.17 181.047 222.474 179.91 222.474C178.433 222.474 177.453 223.639 177.453 225.315C177.453 226.991 178.419 228.114 179.995 228.114ZM178.294 224.832C178.351 223.984 178.951 223.227 179.91 223.227C180.819 223.227 181.402 223.909 181.402 224.832H178.294Z" fill="black" fill-opacity="0.65"/>
<path d="M102.885 215H107.235C109.522 215 110.74 213.807 110.74 212.186C110.74 210.68 109.661 209.77 108.503 209.715V209.616C109.562 209.377 110.342 208.626 110.342 207.428C110.342 205.902 109.209 204.818 106.962 204.818H102.885V215ZM105.038 213.24V210.536H106.842C107.876 210.536 108.518 211.132 108.518 211.972C108.518 212.738 107.996 213.24 106.793 213.24H105.038ZM105.038 209.079V206.558H106.673C107.628 206.558 108.17 207.05 108.17 207.786C108.17 208.592 107.513 209.079 106.634 209.079H105.038ZM114.279 215.144C115.407 215.144 116.138 214.652 116.511 213.941H116.57V215H118.579V209.849C118.579 208.03 117.038 207.264 115.338 207.264C113.508 207.264 112.305 208.139 112.012 209.531L113.97 209.69C114.115 209.183 114.567 208.81 115.328 208.81C116.048 208.81 116.461 209.173 116.461 209.8V209.83C116.461 210.322 115.939 210.386 114.612 210.516C113.1 210.655 111.743 211.162 111.743 212.867C111.743 214.379 112.822 215.144 114.279 215.144ZM114.885 213.683C114.234 213.683 113.767 213.379 113.767 212.798C113.767 212.201 114.259 211.908 115.004 211.803C115.467 211.739 116.222 211.629 116.476 211.46V212.271C116.476 213.071 115.815 213.683 114.885 213.683ZM122.34 210.585C122.345 209.601 122.932 209.024 123.787 209.024C124.637 209.024 125.149 209.581 125.144 210.516V215H127.262V210.138C127.262 208.358 126.218 207.264 124.627 207.264C123.493 207.264 122.673 207.821 122.33 208.711H122.241V207.364H120.222V215H122.34V210.585ZM131.745 215.124C132.978 215.124 133.619 214.413 133.913 213.777H134.002V215H136.09V204.818H133.977V208.646H133.913C133.629 208.025 133.018 207.264 131.74 207.264C130.065 207.264 128.648 208.567 128.648 211.192C128.648 213.747 130.005 215.124 131.745 215.124ZM132.416 213.439C131.377 213.439 130.81 212.514 130.81 211.182C130.81 209.859 131.367 208.95 132.416 208.95C133.445 208.95 134.022 209.82 134.022 211.182C134.022 212.544 133.435 213.439 132.416 213.439ZM137.831 215H139.949V210.68C139.949 209.74 140.635 209.094 141.57 209.094C141.863 209.094 142.266 209.143 142.465 209.208V207.329C142.276 207.284 142.013 207.254 141.799 207.254C140.944 207.254 140.243 207.751 139.964 208.696H139.885V207.364H137.831V215ZM146.655 215.149C148.972 215.149 150.413 213.563 150.413 211.212C150.413 208.845 148.972 207.264 146.655 207.264C144.338 207.264 142.896 208.845 142.896 211.212C142.896 213.563 144.338 215.149 146.655 215.149ZM146.665 213.509C145.596 213.509 145.049 212.529 145.049 211.197C145.049 209.864 145.596 208.88 146.665 208.88C147.714 208.88 148.261 209.864 148.261 211.197C148.261 212.529 147.714 213.509 146.665 213.509ZM155.241 215.149C157.558 215.149 158.999 213.563 158.999 211.212C158.999 208.845 157.558 207.264 155.241 207.264C152.924 207.264 151.482 208.845 151.482 211.212C151.482 213.563 152.924 215.149 155.241 215.149ZM155.251 213.509C154.182 213.509 153.635 212.529 153.635 211.197C153.635 209.864 154.182 208.88 155.251 208.88C156.3 208.88 156.847 209.864 156.847 211.197C156.847 212.529 156.3 213.509 155.251 213.509ZM160.376 215H162.494V210.416C162.494 209.571 163.031 209.009 163.737 209.009C164.433 209.009 164.901 209.487 164.901 210.237V215H166.954V210.337C166.954 209.546 167.406 209.009 168.177 209.009C168.853 209.009 169.36 209.432 169.36 210.282V215H171.473V209.864C171.473 208.209 170.489 207.264 169.067 207.264C167.948 207.264 167.078 207.836 166.765 208.711H166.685C166.442 207.826 165.661 207.264 164.612 207.264C163.583 207.264 162.803 207.811 162.484 208.711H162.395V207.364H160.376V215Z" fill="black" fill-opacity="0.65"/>
<path d="M270.574 229.669L271.561 227.206L273.155 228.728L270.574 229.669ZM286.267 214.827L286.131 214.697C285.661 214.247 285.033 214 284.368 214C283.701 214 283.074 214.247 282.604 214.697L270.933 225.83C270.917 225.847 270.903 225.865 270.889 225.882C270.882 225.89 270.874 225.899 270.867 225.908C270.841 225.944 270.82 225.981 270.805 226.02C270.804 226.021 270.803 226.022 270.802 226.023L269.038 230.425C268.957 230.627 269.008 230.856 269.169 231.009C269.279 231.114 269.426 231.17 269.577 231.17C269.646 231.17 269.715 231.158 269.782 231.134L274.395 229.451C274.397 229.451 274.398 229.45 274.399 229.449C274.439 229.434 274.478 229.414 274.515 229.39C274.526 229.383 274.534 229.375 274.544 229.368C274.562 229.354 274.58 229.342 274.597 229.326L286.267 218.192C286.739 217.743 286.998 217.145 286.998 216.51C286.998 215.874 286.739 215.277 286.267 214.827Z" fill="#DE5F4C"/>
<path d="M287.424 233H269.576C269.258 233 269 232.754 269 232.451C269 232.147 269.258 231.901 269.576 231.901H287.424C287.741 231.901 288 232.147 288 232.451C288 232.754 287.741 233 287.424 233Z" fill="#DE5F4C"/>
<path d="M325.773 217.367H311L311.355 215.545H325.419L325.773 217.367Z" stroke="#DE5F4C" stroke-width="0.886631" stroke-miterlimit="10" stroke-linejoin="round"/>
<path d="M324.267 233H312.506L311.156 218.863H325.618L324.267 233Z" stroke="#DE5F4C" stroke-width="0.886631" stroke-miterlimit="10" stroke-linejoin="round"/>
<path d="M321.049 215.467L320.574 214H316.22L315.726 215.467" stroke="#DE5F4C" stroke-width="0.886631" stroke-miterlimit="10" stroke-linejoin="round"/>
<path d="M315.531 220.343H313.562L313.999 231.509H315.531V220.343Z" stroke="#DE5F4C" stroke-width="0.620642" stroke-miterlimit="10" stroke-linejoin="round"/>
<path d="M319.275 231.481H317.497V220.382H319.275V231.481Z" stroke="#DE5F4C" stroke-width="0.620642" stroke-miterlimit="10" stroke-linejoin="round"/>
<path d="M321.241 220.343H323.209L322.772 231.509H321.241V220.343Z" stroke="#DE5F4C" stroke-width="0.620642" stroke-miterlimit="10" stroke-linejoin="round"/>
<path d="M62.3051 238.403C70.3302 238.403 76.8359 232.07 76.8359 224.257C76.8359 216.444 70.3302 210.111 62.3051 210.111C54.28 210.111 47.7744 216.444 47.7744 224.257C47.7744 232.07 54.28 238.403 62.3051 238.403Z" fill="#BFDDFF"/>
<path d="M77.9274 222.828C77.6304 222.356 77.2264 221.956 76.7463 221.66C76.2663 221.363 75.7229 221.178 75.1578 221.117C74.5927 221.057 74.0209 221.123 73.4861 221.311C72.9513 221.499 72.4678 221.803 72.0725 222.201C71.6773 222.599 71.3808 223.079 71.2057 223.606C71.0306 224.132 70.9817 224.691 71.0626 225.239C71.1435 225.787 71.352 226.309 71.6724 226.766C71.9927 227.224 72.4162 227.603 72.9106 227.877L78.4602 224.656C78.4498 224.012 78.2661 223.381 77.9274 222.828Z" fill="black"/>
<path d="M84.906 238.144L82.0278 239.814L73.613 228.189L78.4082 225.407L84.906 238.144Z" fill="black"/>
<path d="M79.2 238.702L85.247 235.195" stroke="white"/>
<path d="M80.6531 238.898L85.0514 236.414" stroke="white"/>
<path d="M83.8535 238.258L82.6421 238.935L83.3381 240.115L84.5496 239.437L83.8535 238.258Z" fill="black"/>
<path fill-rule="evenodd" clip-rule="evenodd" d="M54.0786 233.708C55.8987 231.656 54.7754 232.891 55.4758 232.113C57.9665 229.346 60.2188 228.256 63.2144 228.95C63.7472 229.074 64.7177 229.244 64.9618 229.924C65.4107 231.176 62.1059 233.163 61.6756 236.272C61.4241 238.086 68.0095 245.465 59.5537 243.452C51.2917 241.481 52.5529 235.427 54.0786 233.708Z" fill="black"/>
<path fill-rule="evenodd" clip-rule="evenodd" d="M61.4464 236.194C57.6796 235.287 57.0816 234.573 57.348 229.906C57.4486 228.165 57.0406 226.437 57.9981 224.941C58.9557 223.444 60.4572 222.773 63.8086 223.577L61.4464 236.194Z" fill="black"/>
<path fill-rule="evenodd" clip-rule="evenodd" d="M60.8633 238.501C64.3488 239.334 66.8432 242.263 68.3429 238.456C68.9018 237.016 68.0467 235.627 67.8678 235.242C67.3425 234.114 65.6584 233.871 68.1286 231.312C69.3321 230.064 68.9781 228.757 68.831 227.737C68.6447 226.406 67.9107 225.971 64.4177 224.391L60.8633 238.501Z" fill="black"/>
<path fill-rule="evenodd" clip-rule="evenodd" d="M68.531 237.712C68.5962 236.463 67.3573 236.885 66.9997 235.77C66.2992 233.593 65.6099 231.098 62.6684 230.398C58.216 229.337 62.0723 233.358 60.7459 236.818C60.1572 238.351 51.1407 241.406 59.3915 243.372C67.4523 245.293 68.4229 239.733 68.531 237.712Z" fill="black"/>
<path d="M70.1222 225.167C70.9881 223.434 70.748 221.583 69.586 221.032C68.4239 220.482 66.7799 221.441 65.914 223.174C65.0481 224.907 65.2882 226.758 66.4503 227.308C67.6123 227.858 69.2563 226.9 70.1222 225.167Z" fill="#BFDDFF"/>
<path fill-rule="evenodd" clip-rule="evenodd" d="M64.2296 231.018L61.5042 230.367L67.7691 207.637L69.4737 208.043L64.2296 231.018Z" fill="black"/>
<path fill-rule="evenodd" clip-rule="evenodd" d="M69.8667 224.181C70.012 225.737 69.5388 227.05 68.8067 227.115C68.0746 227.18 67.3648 225.971 67.2195 224.415C67.0742 222.858 67.5492 221.545 68.2795 221.48C69.0098 221.415 69.7177 222.624 69.8667 224.181Z" fill="#BFDDFF"/>
<path fill-rule="evenodd" clip-rule="evenodd" d="M69.6935 208.573L68.2628 208.045C68.1996 208.03 68.14 208.003 68.0876 207.965C68.0352 207.928 67.9909 207.88 67.9573 207.826C67.9237 207.772 67.9015 207.712 67.8919 207.649C67.8823 207.586 67.8855 207.522 67.9014 207.461C68.1063 206.647 68.0877 207.452 68.7061 205.023C68.9055 204.244 68.9148 203.456 69.1141 202.675C69.1478 202.55 69.2308 202.443 69.3451 202.377C69.4005 202.345 69.4619 202.323 69.5258 202.314C69.5898 202.305 69.655 202.308 69.7177 202.323L71.059 202.461C71.3254 202.524 71.8601 203.021 71.6179 203.273C71.1983 204.033 70.8683 204.836 70.6343 205.667C70.2784 207.066 70.8057 207.223 70.5951 208.05C70.2624 208.165 69.9561 208.343 69.6935 208.573Z" fill="black"/>
<path fill-rule="evenodd" clip-rule="evenodd" d="M67.4579 208.099L68.9482 208.268C69.0112 208.282 69.0764 208.283 69.1401 208.273C69.2037 208.262 69.2646 208.239 69.3191 208.205C69.3737 208.172 69.4208 208.128 69.4579 208.076C69.4949 208.025 69.5211 207.967 69.535 207.905C69.7437 207.084 69.3767 207.813 69.997 205.366C70.1963 204.577 70.5559 203.868 70.7608 203.079C70.7893 202.956 70.7708 202.827 70.7086 202.716C70.6767 202.663 70.6341 202.616 70.5832 202.578C70.5323 202.541 70.4742 202.514 70.4124 202.499L69.1829 202.011C68.9258 201.949 68.2291 202.154 68.3278 202.493C68.3287 203.364 68.2325 204.233 68.041 205.083C67.6833 206.496 67.1561 206.402 66.9456 207.236C67.1717 207.489 67.3456 207.782 67.4579 208.099Z" fill="black"/>
<path fill-rule="evenodd" clip-rule="evenodd" d="M82.5495 214.674L77.2868 213.676C77.2256 213.659 77.1724 213.621 77.1361 213.57C77.0999 213.519 77.0827 213.457 77.0874 213.395V212.338C77.0874 212.156 77.2179 212.029 77.3594 212.057L82.624 213.063C82.6849 213.081 82.7378 213.118 82.774 213.169C82.8103 213.22 82.8277 213.281 82.8233 213.343V214.4C82.8233 214.569 82.6929 214.695 82.5495 214.674Z" fill="black"/>
<path d="M77.7469 212.677H77.0874V217.345H77.7469V212.677Z" fill="black"/>
<path d="M82.8233 213.6H82.1638V218.885H82.8233V213.6Z" fill="black"/>
<path d="M81.2822 219.912C82.22 219.754 82.9124 219.244 82.8287 218.772C82.745 218.3 81.9169 218.046 80.9791 218.203C80.0412 218.361 79.3489 218.871 79.4326 219.343C79.5163 219.815 80.3444 220.069 81.2822 219.912Z" fill="black"/>
<path d="M76.2153 218.487C77.1531 218.329 77.8455 217.819 77.7618 217.347C77.6781 216.875 76.85 216.621 75.9122 216.778C74.9744 216.936 74.282 217.446 74.3657 217.918C74.4494 218.39 75.2775 218.645 76.2153 218.487Z" fill="black"/>
<path d="M55.2446 227.17C53.3817 227.922 52.0777 229.763 52.1578 231.751C52.1578 231.895 52.2167 232.033 52.3215 232.136C52.4263 232.238 52.5684 232.295 52.7167 232.295C52.8649 232.295 53.007 232.238 53.1119 232.136C53.2167 232.033 53.2755 231.895 53.2755 231.751C53.252 231.377 53.2968 231.003 53.4078 230.644C53.4358 230.55 53.4656 230.463 53.4991 230.363C53.5177 230.318 53.5345 230.271 53.5531 230.226C53.6239 230.044 53.5345 230.264 53.5792 230.166C53.6669 229.978 53.7677 229.796 53.881 229.622C54.0817 229.311 54.3291 229.032 54.615 228.793C54.7507 228.674 54.8987 228.569 55.0565 228.479C55.1422 228.427 55.2297 228.378 55.3192 228.332L55.4533 228.265L55.5427 228.225C55.6828 228.183 55.801 228.09 55.8733 227.965C55.9456 227.841 55.9666 227.695 55.9321 227.556C55.8594 227.298 55.5259 227.063 55.2446 227.175V227.17Z" fill="black"/>
<path d="M54.33 223.898C53.0157 224.434 51.8482 225.261 50.9206 226.314C49.9929 227.367 49.3309 228.616 48.9872 229.963C48.7949 230.716 48.7121 231.492 48.7413 232.268C48.7413 232.412 48.8002 232.55 48.905 232.652C49.0098 232.754 49.1519 232.812 49.3002 232.812C49.4484 232.812 49.5905 232.754 49.6953 232.652C49.8002 232.55 49.859 232.412 49.859 232.268C49.827 231.056 50.0846 229.854 50.6116 228.756C51.1386 227.657 51.9205 226.693 52.8956 225.94C53.4246 225.533 54.0073 225.197 54.6281 224.941C54.7687 224.899 54.8875 224.806 54.9599 224.682C55.0324 224.557 55.053 224.41 55.0175 224.271C54.9448 224.016 54.6113 223.78 54.33 223.892V223.898Z" fill="black"/>
<path d="M53.2048 220.417C49.3318 221.959 46.3884 225.36 45.3806 229.304C45.0912 230.422 44.9658 231.574 45.008 232.727C45.0108 232.87 45.0706 233.007 45.1748 233.108C45.279 233.21 45.4195 233.268 45.5668 233.271C45.7151 233.271 45.8572 233.213 45.962 233.111C46.0668 233.009 46.1257 232.871 46.1257 232.727C45.9711 229.001 47.8023 225.349 50.7979 223.013C51.6244 222.378 52.5372 221.858 53.5103 221.468C53.6507 221.425 53.7692 221.333 53.8415 221.208C53.9139 221.084 53.9347 220.937 53.8997 220.798C53.827 220.541 53.4936 220.305 53.2123 220.417H53.2048Z" fill="black"/>
<path d="M88.4138 211.007H88.4119C88.2452 211.007 88.1101 211.138 88.1101 211.3V217.45C88.1101 217.613 88.2452 217.744 88.4119 217.744H88.4138C88.5804 217.744 88.7156 217.613 88.7156 217.45V211.3C88.7156 211.138 88.5804 211.007 88.4138 211.007Z" fill="black"/>
<path d="M87.2879 218.924C88.2334 218.675 88.8685 218 88.7063 217.416C88.5441 216.832 87.6461 216.56 86.7005 216.809C85.755 217.058 85.12 217.733 85.2822 218.317C85.4444 218.901 86.3424 219.173 87.2879 218.924Z" fill="black"/>
<path d="M74.1888 245.596C73.257 244.064 72.6845 242.351 72.5121 240.579C72.4413 239.814 72.3687 238.947 72.65 238.222C72.9313 237.496 73.6839 237.166 74.4626 237.297C75.3326 237.444 76.0256 238.057 76.659 238.612C77.3259 239.196 77.9742 239.798 78.6374 240.382C79.3006 240.966 79.9731 241.528 80.6866 242.045C81.0331 242.293 81.3889 242.533 81.7559 242.752C82.1339 243.002 82.5484 243.195 82.9854 243.325C83.1841 243.38 83.3921 243.394 83.5967 243.368C83.8013 243.341 83.9981 243.274 84.1751 243.17C84.352 243.067 84.5054 242.929 84.6257 242.766C84.7459 242.603 84.8306 242.417 84.8744 242.221C85.1259 241.287 84.6006 240.423 84.0957 239.673C83.8983 239.381 83.4139 239.653 83.6114 239.946C84.0436 240.59 84.5764 241.361 84.31 242.164C84.2674 242.321 84.1835 242.464 84.0665 242.579C83.9495 242.695 83.8035 242.778 83.643 242.821C83.2053 242.913 82.7544 242.687 82.3874 242.484C80.8282 241.62 79.4999 240.427 78.1922 239.246C77.542 238.659 76.903 238.046 76.1951 237.522C75.5375 237.036 74.7458 236.66 73.9 236.733C73.5208 236.757 73.1563 236.884 72.8482 237.101C72.5401 237.317 72.301 237.614 72.1582 237.957C71.8508 238.682 71.875 239.5 71.9253 240.262C72.0599 242.242 72.6699 244.164 73.7063 245.873C73.7449 245.933 73.8058 245.975 73.8761 245.992C73.9464 246.009 74.0207 245.998 74.0832 245.963C74.1457 245.927 74.1916 245.87 74.2113 245.802C74.231 245.734 74.2229 245.662 74.1888 245.599V245.596Z" fill="black"/>
<path d="M63.8963 23.1818V45H68.3707V30.7457H68.5518L74.1982 44.8935H77.245L82.8913 30.799H83.0724V45H87.5469V23.1818H81.858L75.8494 37.8409H75.5938L69.5852 23.1818H63.8963ZM94.0641 51.1364C97.4412 51.1364 99.231 49.4105 100.158 46.7685L106.518 28.6577L101.713 28.6364L98.2935 40.6534H98.123L94.7353 28.6364H89.9625L95.8326 45.4688L95.5662 46.1612C94.9696 47.6953 93.8297 47.7699 92.2317 47.2798L91.209 50.6676C91.8588 50.9446 92.9135 51.1364 94.0641 51.1364ZM115.869 45H125.191C130.091 45 132.701 42.4432 132.701 38.9702C132.701 35.7422 130.39 33.7926 127.907 33.6754V33.4624C130.176 32.951 131.849 31.3423 131.849 28.7749C131.849 25.5043 129.42 23.1818 124.605 23.1818H115.869V45ZM120.482 41.2287V35.4332H124.349C126.565 35.4332 127.939 36.7116 127.939 38.5121C127.939 40.1527 126.821 41.2287 124.243 41.2287H120.482ZM120.482 32.3118V26.9105H123.987C126.032 26.9105 127.194 27.9652 127.194 29.5419C127.194 31.2678 125.787 32.3118 123.902 32.3118H120.482ZM143.011 45.3196C147.976 45.3196 151.065 41.9212 151.065 36.8821C151.065 31.8111 147.976 28.4233 143.011 28.4233C138.047 28.4233 134.957 31.8111 134.957 36.8821C134.957 41.9212 138.047 45.3196 143.011 45.3196ZM143.032 41.804C140.742 41.804 139.57 39.7053 139.57 36.8501C139.57 33.995 140.742 31.8857 143.032 31.8857C145.28 31.8857 146.452 33.995 146.452 36.8501C146.452 39.7053 145.28 41.804 143.032 41.804ZM161.41 45.3196C166.374 45.3196 169.464 41.9212 169.464 36.8821C169.464 31.8111 166.374 28.4233 161.41 28.4233C156.445 28.4233 153.356 31.8111 153.356 36.8821C153.356 41.9212 156.445 45.3196 161.41 45.3196ZM161.431 41.804C159.14 41.804 157.969 39.7053 157.969 36.8501C157.969 33.995 159.14 31.8857 161.431 31.8857C163.679 31.8857 164.851 33.995 164.851 36.8501C164.851 39.7053 163.679 41.804 161.431 41.804ZM172.415 45H176.953V39.8011L178.178 38.4055L182.642 45H187.958L181.577 35.7209L187.649 28.6364H182.439L177.198 34.8473H176.953V23.1818H172.415V45ZM189.876 45H194.414V28.6364H189.876V45ZM192.155 26.527C193.508 26.527 194.616 25.4936 194.616 24.2259C194.616 22.9688 193.508 21.9354 192.155 21.9354C190.813 21.9354 189.705 22.9688 189.705 24.2259C189.705 25.4936 190.813 26.527 192.155 26.527ZM202.588 35.5398C202.598 33.4304 203.855 32.1946 205.688 32.1946C207.51 32.1946 208.607 33.3878 208.596 35.3906V45H213.135V34.581C213.135 30.767 210.897 28.4233 207.488 28.4233C205.059 28.4233 203.301 29.6165 202.566 31.5234H202.375V28.6364H198.049V45H202.588V35.5398ZM224.084 51.4773C228.76 51.4773 232.084 49.3466 232.084 45.1598V28.6364H227.578V31.3849H227.407C226.8 30.0533 225.469 28.4233 222.731 28.4233C219.14 28.4233 216.104 31.2145 216.104 36.7862C216.104 42.2301 219.055 44.7656 222.741 44.7656C225.351 44.7656 226.811 43.4553 227.407 42.1023H227.599V45.0959C227.599 47.3438 226.161 48.2173 224.19 48.2173C222.187 48.2173 221.175 47.3438 220.802 46.353L216.605 46.9176C217.148 49.4957 219.673 51.4773 224.084 51.4773ZM224.18 41.3565C221.953 41.3565 220.738 39.5881 220.738 36.7649C220.738 33.9844 221.932 32.0348 224.18 32.0348C226.385 32.0348 227.621 33.8991 227.621 36.7649C227.621 39.652 226.363 41.3565 224.18 41.3565ZM249.311 33.3026C248.906 30.2876 246.477 28.4233 242.344 28.4233C238.157 28.4233 235.398 30.3622 235.408 33.5156C235.398 35.9659 236.942 37.5533 240.138 38.1925L242.972 38.7571C244.4 39.0447 245.05 39.5668 245.071 40.3871C245.05 41.3565 243.995 42.049 242.407 42.049C240.788 42.049 239.712 41.3565 239.435 40.0249L234.971 40.2592C235.398 43.3913 238.061 45.3196 242.397 45.3196C246.637 45.3196 249.673 43.157 249.684 39.929C249.673 37.5639 248.128 36.147 244.954 35.4972L241.992 34.9006C240.469 34.5703 239.904 34.0483 239.915 33.2599C239.904 32.2798 241.012 31.6406 242.418 31.6406C243.995 31.6406 244.932 32.5036 245.156 33.5582L249.311 33.3026Z" fill="black"/>
<path d="M22 71C22 69.8954 22.8954 69 24 69H344C345.105 69 346 69.8954 346 71V170C346 171.105 345.105 172 344 172H24C22.8954 172 22 171.105 22 170V71Z" fill="#F6FFED"/>
<path d="M91.6719 95.9307C90.3854 95.5609 89.4479 95.1077 88.8594 94.5713C88.276 94.0296 87.9844 93.363 87.9844 92.5713C87.9844 91.6755 88.3411 90.9359 89.0547 90.3525C89.7734 89.764 90.7057 89.4697 91.8516 89.4697C92.6328 89.4697 93.3281 89.6208 93.9375 89.9229C94.5521 90.2249 95.026 90.6416 95.3594 91.1729C95.6979 91.7041 95.8672 92.2848 95.8672 92.915H94.3594C94.3594 92.2275 94.1406 91.6885 93.7031 91.2979C93.2656 90.902 92.6484 90.7041 91.8516 90.7041C91.112 90.7041 90.5339 90.8682 90.1172 91.1963C89.7057 91.5192 89.5 91.9697 89.5 92.5479C89.5 93.0114 89.6953 93.4046 90.0859 93.7275C90.4818 94.0452 91.151 94.3369 92.0938 94.6025C93.0417 94.8682 93.7812 95.1624 94.3125 95.4854C94.849 95.8031 95.2448 96.1755 95.5 96.6025C95.7604 97.0296 95.8906 97.5322 95.8906 98.1104C95.8906 99.0322 95.5312 99.7718 94.8125 100.329C94.0938 100.881 93.1328 101.157 91.9297 101.157C91.1484 101.157 90.4193 101.009 89.7422 100.712C89.0651 100.41 88.5417 99.9984 88.1719 99.4775C87.8073 98.9567 87.625 98.3656 87.625 97.7041H89.1328C89.1328 98.3916 89.3854 98.9359 89.8906 99.3369C90.401 99.7327 91.0807 99.9307 91.9297 99.9307C92.7214 99.9307 93.3281 99.7692 93.75 99.4463C94.1719 99.1234 94.3828 98.6833 94.3828 98.126C94.3828 97.5687 94.1875 97.139 93.7969 96.8369C93.4062 96.5296 92.6979 96.2275 91.6719 95.9307ZM102.812 100.165C102.25 100.826 101.424 101.157 100.336 101.157C99.4349 101.157 98.7474 100.897 98.2734 100.376C97.8047 99.8499 97.5677 99.0739 97.5625 98.0479V92.5479H99.0078V98.0088C99.0078 99.29 99.5286 99.9307 100.57 99.9307C101.674 99.9307 102.409 99.5192 102.773 98.6963V92.5479H104.219V101.001H102.844L102.812 100.165ZM109.812 99.9775C110.328 99.9775 110.779 99.8213 111.164 99.5088C111.549 99.1963 111.763 98.8057 111.805 98.3369H113.172C113.146 98.8213 112.979 99.2822 112.672 99.7197C112.365 100.157 111.953 100.506 111.438 100.767C110.927 101.027 110.385 101.157 109.812 101.157C108.661 101.157 107.745 100.774 107.062 100.009C106.385 99.238 106.047 98.1859 106.047 96.8525V96.6104C106.047 95.7874 106.198 95.0557 106.5 94.415C106.802 93.7744 107.234 93.277 107.797 92.9229C108.365 92.5687 109.034 92.3916 109.805 92.3916C110.753 92.3916 111.539 92.6755 112.164 93.2432C112.794 93.8109 113.13 94.5479 113.172 95.4541H111.805C111.763 94.9072 111.555 94.4593 111.18 94.1104C110.81 93.7562 110.352 93.5791 109.805 93.5791C109.07 93.5791 108.5 93.8447 108.094 94.376C107.693 94.902 107.492 95.665 107.492 96.665V96.9385C107.492 97.9124 107.693 98.6624 108.094 99.1885C108.495 99.7145 109.068 99.9775 109.812 99.9775ZM118.188 99.9775C118.703 99.9775 119.154 99.8213 119.539 99.5088C119.924 99.1963 120.138 98.8057 120.18 98.3369H121.547C121.521 98.8213 121.354 99.2822 121.047 99.7197C120.74 100.157 120.328 100.506 119.812 100.767C119.302 101.027 118.76 101.157 118.188 101.157C117.036 101.157 116.12 100.774 115.438 100.009C114.76 99.238 114.422 98.1859 114.422 96.8525V96.6104C114.422 95.7874 114.573 95.0557 114.875 94.415C115.177 93.7744 115.609 93.277 116.172 92.9229C116.74 92.5687 117.409 92.3916 118.18 92.3916C119.128 92.3916 119.914 92.6755 120.539 93.2432C121.169 93.8109 121.505 94.5479 121.547 95.4541H120.18C120.138 94.9072 119.93 94.4593 119.555 94.1104C119.185 93.7562 118.727 93.5791 118.18 93.5791C117.445 93.5791 116.875 93.8447 116.469 94.376C116.068 94.902 115.867 95.665 115.867 96.665V96.9385C115.867 97.9124 116.068 98.6624 116.469 99.1885C116.87 99.7145 117.443 99.9775 118.188 99.9775ZM126.68 101.157C125.534 101.157 124.602 100.782 123.883 100.032C123.164 99.277 122.805 98.2692 122.805 97.0088V96.7432C122.805 95.9046 122.964 95.1572 123.281 94.501C123.604 93.8395 124.052 93.3239 124.625 92.9541C125.203 92.5791 125.828 92.3916 126.5 92.3916C127.599 92.3916 128.453 92.7536 129.062 93.4775C129.672 94.2015 129.977 95.238 129.977 96.5869V97.1885H124.25C124.271 98.0218 124.513 98.6963 124.977 99.2119C125.445 99.7223 126.039 99.9775 126.758 99.9775C127.268 99.9775 127.701 99.8734 128.055 99.665C128.409 99.4567 128.719 99.1807 128.984 98.8369L129.867 99.5244C129.159 100.613 128.096 101.157 126.68 101.157ZM126.5 93.5791C125.917 93.5791 125.427 93.7926 125.031 94.2197C124.635 94.6416 124.391 95.2354 124.297 96.001H128.531V95.8916C128.49 95.1572 128.292 94.5895 127.938 94.1885C127.583 93.7822 127.104 93.5791 126.5 93.5791ZM136.578 98.7588C136.578 98.3682 136.43 98.0661 136.133 97.8525C135.841 97.6338 135.328 97.4463 134.594 97.29C133.865 97.1338 133.284 96.9463 132.852 96.7275C132.424 96.5088 132.107 96.2484 131.898 95.9463C131.695 95.6442 131.594 95.2848 131.594 94.8682C131.594 94.1755 131.885 93.5895 132.469 93.1104C133.057 92.6312 133.807 92.3916 134.719 92.3916C135.677 92.3916 136.453 92.639 137.047 93.1338C137.646 93.6286 137.945 94.2614 137.945 95.0322H136.492C136.492 94.6364 136.323 94.2952 135.984 94.0088C135.651 93.7223 135.229 93.5791 134.719 93.5791C134.193 93.5791 133.781 93.6937 133.484 93.9229C133.188 94.152 133.039 94.4515 133.039 94.8213C133.039 95.1702 133.177 95.4333 133.453 95.6104C133.729 95.7874 134.227 95.9567 134.945 96.1182C135.669 96.2796 136.255 96.4723 136.703 96.6963C137.151 96.9202 137.482 97.1911 137.695 97.5088C137.914 97.8213 138.023 98.2041 138.023 98.6572C138.023 99.4124 137.721 100.019 137.117 100.478C136.513 100.931 135.729 101.157 134.766 101.157C134.089 101.157 133.49 101.037 132.969 100.798C132.448 100.558 132.039 100.225 131.742 99.7979C131.451 99.3656 131.305 98.8994 131.305 98.3994H132.75C132.776 98.8838 132.969 99.2692 133.328 99.5557C133.693 99.8369 134.172 99.9775 134.766 99.9775C135.312 99.9775 135.75 99.8682 136.078 99.6494C136.411 99.4255 136.578 99.1286 136.578 98.7588ZM144.828 98.7588C144.828 98.3682 144.68 98.0661 144.383 97.8525C144.091 97.6338 143.578 97.4463 142.844 97.29C142.115 97.1338 141.534 96.9463 141.102 96.7275C140.674 96.5088 140.357 96.2484 140.148 95.9463C139.945 95.6442 139.844 95.2848 139.844 94.8682C139.844 94.1755 140.135 93.5895 140.719 93.1104C141.307 92.6312 142.057 92.3916 142.969 92.3916C143.927 92.3916 144.703 92.639 145.297 93.1338C145.896 93.6286 146.195 94.2614 146.195 95.0322H144.742C144.742 94.6364 144.573 94.2952 144.234 94.0088C143.901 93.7223 143.479 93.5791 142.969 93.5791C142.443 93.5791 142.031 93.6937 141.734 93.9229C141.438 94.152 141.289 94.4515 141.289 94.8213C141.289 95.1702 141.427 95.4333 141.703 95.6104C141.979 95.7874 142.477 95.9567 143.195 96.1182C143.919 96.2796 144.505 96.4723 144.953 96.6963C145.401 96.9202 145.732 97.1911 145.945 97.5088C146.164 97.8213 146.273 98.2041 146.273 98.6572C146.273 99.4124 145.971 100.019 145.367 100.478C144.763 100.931 143.979 101.157 143.016 101.157C142.339 101.157 141.74 101.037 141.219 100.798C140.698 100.558 140.289 100.225 139.992 99.7979C139.701 99.3656 139.555 98.8994 139.555 98.3994H141C141.026 98.8838 141.219 99.2692 141.578 99.5557C141.943 99.8369 142.422 99.9775 143.016 99.9775C143.562 99.9775 144 99.8682 144.328 99.6494C144.661 99.4255 144.828 99.1286 144.828 98.7588ZM148.867 101.001V93.665H147.531V92.5479H148.867V91.6807C148.867 90.7744 149.109 90.0739 149.594 89.5791C150.078 89.0843 150.763 88.8369 151.648 88.8369C151.982 88.8369 152.312 88.8812 152.641 88.9697L152.562 90.1416C152.318 90.0947 152.057 90.0713 151.781 90.0713C151.312 90.0713 150.951 90.2093 150.695 90.4854C150.44 90.7562 150.312 91.1468 150.312 91.6572V92.5479H152.117V93.665H150.312V101.001H148.867ZM158.938 100.165C158.375 100.826 157.549 101.157 156.461 101.157C155.56 101.157 154.872 100.897 154.398 100.376C153.93 99.8499 153.693 99.0739 153.688 98.0479V92.5479H155.133V98.0088C155.133 99.29 155.654 99.9307 156.695 99.9307C157.799 99.9307 158.534 99.5192 158.898 98.6963V92.5479H160.344V101.001H158.969L158.938 100.165ZM164.117 101.001H162.672V89.001H164.117V101.001ZM168.008 101.001H166.562V89.001H168.008V101.001ZM173.094 98.8838L175.062 92.5479H176.609L173.211 102.306C172.685 103.712 171.849 104.415 170.703 104.415L170.43 104.392L169.891 104.29V103.118L170.281 103.149C170.771 103.149 171.151 103.05 171.422 102.853C171.698 102.655 171.924 102.293 172.102 101.767L172.422 100.907L169.406 92.5479H170.984L173.094 98.8838ZM182.102 101.001V89.626H185.312C186.302 89.626 187.177 89.8447 187.938 90.2822C188.698 90.7197 189.284 91.3421 189.695 92.1494C190.112 92.9567 190.323 93.8838 190.328 94.9307V95.6572C190.328 96.7301 190.12 97.6702 189.703 98.4775C189.292 99.2848 188.701 99.9046 187.93 100.337C187.164 100.769 186.271 100.991 185.25 101.001H182.102ZM183.602 90.8604V99.7744H185.18C186.336 99.7744 187.234 99.415 187.875 98.6963C188.521 97.9775 188.844 96.9541 188.844 95.626V94.9619C188.844 93.6702 188.539 92.6676 187.93 91.9541C187.326 91.2354 186.466 90.8708 185.352 90.8604H183.602ZM195.883 101.157C194.737 101.157 193.805 100.782 193.086 100.032C192.367 99.277 192.008 98.2692 192.008 97.0088V96.7432C192.008 95.9046 192.167 95.1572 192.484 94.501C192.807 93.8395 193.255 93.3239 193.828 92.9541C194.406 92.5791 195.031 92.3916 195.703 92.3916C196.802 92.3916 197.656 92.7536 198.266 93.4775C198.875 94.2015 199.18 95.238 199.18 96.5869V97.1885H193.453C193.474 98.0218 193.716 98.6963 194.18 99.2119C194.648 99.7223 195.242 99.9775 195.961 99.9775C196.471 99.9775 196.904 99.8734 197.258 99.665C197.612 99.4567 197.922 99.1807 198.188 98.8369L199.07 99.5244C198.362 100.613 197.299 101.157 195.883 101.157ZM195.703 93.5791C195.12 93.5791 194.63 93.7926 194.234 94.2197C193.839 94.6416 193.594 95.2354 193.5 96.001H197.734V95.8916C197.693 95.1572 197.495 94.5895 197.141 94.1885C196.786 93.7822 196.307 93.5791 195.703 93.5791ZM202.43 101.001H200.984V89.001H202.43V101.001ZM208.258 101.157C207.112 101.157 206.18 100.782 205.461 100.032C204.742 99.277 204.383 98.2692 204.383 97.0088V96.7432C204.383 95.9046 204.542 95.1572 204.859 94.501C205.182 93.8395 205.63 93.3239 206.203 92.9541C206.781 92.5791 207.406 92.3916 208.078 92.3916C209.177 92.3916 210.031 92.7536 210.641 93.4775C211.25 94.2015 211.555 95.238 211.555 96.5869V97.1885H205.828C205.849 98.0218 206.091 98.6963 206.555 99.2119C207.023 99.7223 207.617 99.9775 208.336 99.9775C208.846 99.9775 209.279 99.8734 209.633 99.665C209.987 99.4567 210.297 99.1807 210.562 98.8369L211.445 99.5244C210.737 100.613 209.674 101.157 208.258 101.157ZM208.078 93.5791C207.495 93.5791 207.005 93.7926 206.609 94.2197C206.214 94.6416 205.969 95.2354 205.875 96.001H210.109V95.8916C210.068 95.1572 209.87 94.5895 209.516 94.1885C209.161 93.7822 208.682 93.5791 208.078 93.5791ZM215.195 90.501V92.5479H216.773V93.665H215.195V98.9072C215.195 99.2458 215.266 99.501 215.406 99.6729C215.547 99.8395 215.786 99.9229 216.125 99.9229C216.292 99.9229 216.521 99.8916 216.812 99.8291V101.001C216.432 101.105 216.062 101.157 215.703 101.157C215.057 101.157 214.57 100.962 214.242 100.571C213.914 100.181 213.75 99.626 213.75 98.9072V93.665H212.211V92.5479H213.75V90.501H215.195ZM221.977 101.157C220.831 101.157 219.898 100.782 219.18 100.032C218.461 99.277 218.102 98.2692 218.102 97.0088V96.7432C218.102 95.9046 218.26 95.1572 218.578 94.501C218.901 93.8395 219.349 93.3239 219.922 92.9541C220.5 92.5791 221.125 92.3916 221.797 92.3916C222.896 92.3916 223.75 92.7536 224.359 93.4775C224.969 94.2015 225.273 95.238 225.273 96.5869V97.1885H219.547C219.568 98.0218 219.81 98.6963 220.273 99.2119C220.742 99.7223 221.336 99.9775 222.055 99.9775C222.565 99.9775 222.997 99.8734 223.352 99.665C223.706 99.4567 224.016 99.1807 224.281 98.8369L225.164 99.5244C224.456 100.613 223.393 101.157 221.977 101.157ZM221.797 93.5791C221.214 93.5791 220.724 93.7926 220.328 94.2197C219.932 94.6416 219.688 95.2354 219.594 96.001H223.828V95.8916C223.786 95.1572 223.589 94.5895 223.234 94.1885C222.88 93.7822 222.401 93.5791 221.797 93.5791ZM226.602 96.7041C226.602 95.4072 226.909 94.3656 227.523 93.5791C228.138 92.7874 228.943 92.3916 229.938 92.3916C230.927 92.3916 231.711 92.7301 232.289 93.4072V89.001H233.734V101.001H232.406L232.336 100.095C231.758 100.803 230.953 101.157 229.922 101.157C228.943 101.157 228.143 100.756 227.523 99.9541C226.909 99.152 226.602 98.1051 226.602 96.8135V96.7041ZM228.047 96.8682C228.047 97.8265 228.245 98.5765 228.641 99.1182C229.036 99.6598 229.583 99.9307 230.281 99.9307C231.198 99.9307 231.867 99.5192 232.289 98.6963V94.8135C231.857 94.0166 231.193 93.6182 230.297 93.6182C229.589 93.6182 229.036 93.8916 228.641 94.4385C228.245 94.9854 228.047 95.7952 228.047 96.8682ZM246.609 95.7432H241.68V99.7744H247.406V101.001H240.18V89.626H247.328V90.8604H241.68V94.5166H246.609V95.7432ZM251.633 99.04L253.727 92.5479H255.203L252.172 101.001H251.07L248.008 92.5479H249.484L251.633 99.04ZM259.992 101.157C258.846 101.157 257.914 100.782 257.195 100.032C256.477 99.277 256.117 98.2692 256.117 97.0088V96.7432C256.117 95.9046 256.276 95.1572 256.594 94.501C256.917 93.8395 257.365 93.3239 257.938 92.9541C258.516 92.5791 259.141 92.3916 259.812 92.3916C260.911 92.3916 261.766 92.7536 262.375 93.4775C262.984 94.2015 263.289 95.238 263.289 96.5869V97.1885H257.562C257.583 98.0218 257.826 98.6963 258.289 99.2119C258.758 99.7223 259.352 99.9775 260.07 99.9775C260.581 99.9775 261.013 99.8734 261.367 99.665C261.721 99.4567 262.031 99.1807 262.297 98.8369L263.18 99.5244C262.471 100.613 261.409 101.157 259.992 101.157ZM259.812 93.5791C259.229 93.5791 258.74 93.7926 258.344 94.2197C257.948 94.6416 257.703 95.2354 257.609 96.001H261.844V95.8916C261.802 95.1572 261.604 94.5895 261.25 94.1885C260.896 93.7822 260.417 93.5791 259.812 93.5791ZM266.336 92.5479L266.383 93.6104C267.029 92.7979 267.872 92.3916 268.914 92.3916C270.701 92.3916 271.602 93.3994 271.617 95.415V101.001H270.172V95.4072C270.167 94.7979 270.026 94.3473 269.75 94.0557C269.479 93.764 269.055 93.6182 268.477 93.6182C268.008 93.6182 267.596 93.7432 267.242 93.9932C266.888 94.2432 266.612 94.5713 266.414 94.9775V101.001H264.969V92.5479H266.336ZM275.758 90.501V92.5479H277.336V93.665H275.758V98.9072C275.758 99.2458 275.828 99.501 275.969 99.6729C276.109 99.8395 276.349 99.9229 276.688 99.9229C276.854 99.9229 277.083 99.8916 277.375 99.8291V101.001C276.995 101.105 276.625 101.157 276.266 101.157C275.62 101.157 275.133 100.962 274.805 100.571C274.477 100.181 274.312 99.626 274.312 98.9072V93.665H272.773V92.5479H274.312V90.501H275.758ZM280.648 97.79H279.344L279.242 89.626H280.758L280.648 97.79ZM279.188 100.274C279.188 100.04 279.258 99.8447 279.398 99.6885C279.544 99.527 279.758 99.4463 280.039 99.4463C280.32 99.4463 280.534 99.527 280.68 99.6885C280.826 99.8447 280.898 100.04 280.898 100.274C280.898 100.509 280.826 100.704 280.68 100.86C280.534 101.011 280.32 101.087 280.039 101.087C279.758 101.087 279.544 101.011 279.398 100.86C279.258 100.704 279.188 100.509 279.188 100.274Z" fill="black" fill-opacity="0.85"/>
<path d="M91.4502 125.257L94.2939 117.047H95.7295L92.0381 127H90.876L87.1914 117.047H88.6201L91.4502 125.257ZM96.2217 123.233C96.2217 122.509 96.363 121.857 96.6455 121.278C96.9326 120.7 97.3291 120.253 97.835 119.938C98.3454 119.624 98.9264 119.467 99.5781 119.467C100.585 119.467 101.399 119.815 102.019 120.513C102.643 121.21 102.955 122.137 102.955 123.295V123.384C102.955 124.104 102.816 124.751 102.538 125.325C102.265 125.895 101.87 126.339 101.355 126.658C100.845 126.977 100.257 127.137 99.5918 127.137C98.5892 127.137 97.7757 126.788 97.1514 126.091C96.5316 125.394 96.2217 124.471 96.2217 123.322V123.233ZM97.4932 123.384C97.4932 124.204 97.6823 124.863 98.0605 125.359C98.4434 125.856 98.9538 126.104 99.5918 126.104C100.234 126.104 100.745 125.854 101.123 125.353C101.501 124.847 101.69 124.14 101.69 123.233C101.69 122.422 101.497 121.766 101.109 121.265C100.727 120.759 100.216 120.506 99.5781 120.506C98.9538 120.506 98.4502 120.754 98.0674 121.251C97.6846 121.748 97.4932 122.459 97.4932 123.384ZM105.915 127H104.65V119.604H105.915V127ZM104.548 117.642C104.548 117.437 104.609 117.263 104.732 117.122C104.86 116.981 105.047 116.91 105.293 116.91C105.539 116.91 105.726 116.981 105.854 117.122C105.981 117.263 106.045 117.437 106.045 117.642C106.045 117.847 105.981 118.018 105.854 118.154C105.726 118.291 105.539 118.359 105.293 118.359C105.047 118.359 104.86 118.291 104.732 118.154C104.609 118.018 104.548 117.847 104.548 117.642ZM110.912 126.104C111.363 126.104 111.757 125.968 112.095 125.694C112.432 125.421 112.619 125.079 112.655 124.669H113.852C113.829 125.093 113.683 125.496 113.414 125.879C113.145 126.262 112.785 126.567 112.334 126.795C111.887 127.023 111.413 127.137 110.912 127.137C109.905 127.137 109.103 126.802 108.506 126.132C107.913 125.457 107.617 124.537 107.617 123.37V123.158C107.617 122.438 107.749 121.798 108.014 121.237C108.278 120.677 108.656 120.242 109.148 119.932C109.645 119.622 110.231 119.467 110.905 119.467C111.735 119.467 112.423 119.715 112.97 120.212C113.521 120.709 113.815 121.354 113.852 122.146H112.655C112.619 121.668 112.437 121.276 112.108 120.971C111.785 120.661 111.384 120.506 110.905 120.506C110.263 120.506 109.764 120.738 109.408 121.203C109.057 121.663 108.882 122.331 108.882 123.206V123.445C108.882 124.298 109.057 124.954 109.408 125.414C109.759 125.874 110.26 126.104 110.912 126.104ZM118.343 127.137C117.34 127.137 116.524 126.809 115.896 126.152C115.267 125.492 114.952 124.61 114.952 123.507V123.274C114.952 122.541 115.091 121.887 115.369 121.312C115.652 120.734 116.044 120.283 116.545 119.959C117.051 119.631 117.598 119.467 118.186 119.467C119.147 119.467 119.895 119.784 120.428 120.417C120.961 121.05 121.228 121.957 121.228 123.138V123.664H116.217C116.235 124.393 116.447 124.983 116.853 125.435C117.263 125.881 117.782 126.104 118.411 126.104C118.858 126.104 119.236 126.013 119.546 125.831C119.856 125.649 120.127 125.407 120.359 125.106L121.132 125.708C120.512 126.66 119.582 127.137 118.343 127.137ZM118.186 120.506C117.675 120.506 117.247 120.693 116.9 121.066C116.554 121.436 116.34 121.955 116.258 122.625H119.963V122.529C119.926 121.887 119.753 121.39 119.443 121.039C119.133 120.684 118.714 120.506 118.186 120.506ZM127.004 125.038C127.004 124.696 126.874 124.432 126.614 124.245C126.359 124.054 125.91 123.89 125.268 123.753C124.63 123.616 124.121 123.452 123.743 123.261C123.369 123.069 123.091 122.841 122.909 122.577C122.731 122.313 122.643 121.998 122.643 121.634C122.643 121.028 122.898 120.515 123.408 120.096C123.923 119.676 124.579 119.467 125.377 119.467C126.215 119.467 126.895 119.683 127.414 120.116C127.938 120.549 128.2 121.103 128.2 121.777H126.929C126.929 121.431 126.781 121.132 126.484 120.882C126.193 120.631 125.824 120.506 125.377 120.506C124.917 120.506 124.557 120.606 124.297 120.807C124.037 121.007 123.907 121.269 123.907 121.593C123.907 121.898 124.028 122.128 124.27 122.283C124.511 122.438 124.946 122.586 125.575 122.728C126.209 122.869 126.721 123.037 127.113 123.233C127.505 123.429 127.795 123.666 127.981 123.944C128.173 124.218 128.269 124.553 128.269 124.949C128.269 125.61 128.004 126.141 127.476 126.542C126.947 126.938 126.261 127.137 125.418 127.137C124.826 127.137 124.301 127.032 123.846 126.822C123.39 126.613 123.032 126.321 122.772 125.947C122.517 125.569 122.39 125.161 122.39 124.724H123.654C123.677 125.147 123.846 125.485 124.16 125.735C124.479 125.981 124.898 126.104 125.418 126.104C125.896 126.104 126.279 126.009 126.566 125.817C126.858 125.621 127.004 125.362 127.004 125.038ZM133.587 127V117.047H136.841C137.921 117.047 138.732 117.27 139.274 117.717C139.821 118.163 140.095 118.824 140.095 119.699C140.095 120.164 139.963 120.576 139.698 120.937C139.434 121.292 139.074 121.568 138.618 121.764C139.156 121.914 139.58 122.201 139.89 122.625C140.204 123.044 140.361 123.546 140.361 124.129C140.361 125.022 140.072 125.724 139.493 126.234C138.914 126.745 138.096 127 137.039 127H133.587ZM134.899 122.345V125.927H137.066C137.677 125.927 138.158 125.77 138.509 125.455C138.864 125.136 139.042 124.699 139.042 124.143C139.042 122.944 138.39 122.345 137.087 122.345H134.899ZM134.899 121.292H136.882C137.456 121.292 137.914 121.148 138.256 120.861C138.602 120.574 138.775 120.185 138.775 119.692C138.775 119.146 138.616 118.749 138.297 118.503C137.978 118.252 137.493 118.127 136.841 118.127H134.899V121.292ZM141.776 123.233C141.776 122.509 141.918 121.857 142.2 121.278C142.487 120.7 142.884 120.253 143.39 119.938C143.9 119.624 144.481 119.467 145.133 119.467C146.14 119.467 146.953 119.815 147.573 120.513C148.198 121.21 148.51 122.137 148.51 123.295V123.384C148.51 124.104 148.371 124.751 148.093 125.325C147.819 125.895 147.425 126.339 146.91 126.658C146.4 126.977 145.812 127.137 145.146 127.137C144.144 127.137 143.33 126.788 142.706 126.091C142.086 125.394 141.776 124.471 141.776 123.322V123.233ZM143.048 123.384C143.048 124.204 143.237 124.863 143.615 125.359C143.998 125.856 144.508 126.104 145.146 126.104C145.789 126.104 146.299 125.854 146.678 125.353C147.056 124.847 147.245 124.14 147.245 123.233C147.245 122.422 147.051 121.766 146.664 121.265C146.281 120.759 145.771 120.506 145.133 120.506C144.508 120.506 144.005 120.754 143.622 121.251C143.239 121.748 143.048 122.459 143.048 123.384ZM151.292 119.604L151.333 120.533C151.898 119.822 152.636 119.467 153.548 119.467C155.111 119.467 155.899 120.349 155.913 122.112V127H154.648V122.105C154.644 121.572 154.521 121.178 154.279 120.923C154.042 120.668 153.671 120.54 153.165 120.54C152.755 120.54 152.395 120.649 152.085 120.868C151.775 121.087 151.534 121.374 151.36 121.729V127H150.096V119.604H151.292ZM157.513 123.24C157.513 122.105 157.782 121.194 158.319 120.506C158.857 119.813 159.561 119.467 160.432 119.467C161.298 119.467 161.983 119.763 162.489 120.355V116.5H163.754V127H162.592L162.53 126.207C162.024 126.827 161.32 127.137 160.418 127.137C159.561 127.137 158.862 126.786 158.319 126.084C157.782 125.382 157.513 124.466 157.513 123.336V123.24ZM158.777 123.384C158.777 124.222 158.951 124.879 159.297 125.353C159.643 125.826 160.122 126.063 160.732 126.063C161.535 126.063 162.12 125.703 162.489 124.983V121.586C162.111 120.889 161.53 120.54 160.746 120.54C160.126 120.54 159.643 120.779 159.297 121.258C158.951 121.736 158.777 122.445 158.777 123.384ZM167.097 127H165.832V119.604H167.097V127ZM165.729 117.642C165.729 117.437 165.791 117.263 165.914 117.122C166.042 116.981 166.229 116.91 166.475 116.91C166.721 116.91 166.908 116.981 167.035 117.122C167.163 117.263 167.227 117.437 167.227 117.642C167.227 117.847 167.163 118.018 167.035 118.154C166.908 118.291 166.721 118.359 166.475 118.359C166.229 118.359 166.042 118.291 165.914 118.154C165.791 118.018 165.729 117.847 165.729 117.642ZM170.323 119.604L170.364 120.533C170.929 119.822 171.668 119.467 172.579 119.467C174.142 119.467 174.931 120.349 174.944 122.112V127H173.68V122.105C173.675 121.572 173.552 121.178 173.311 120.923C173.074 120.668 172.702 120.54 172.196 120.54C171.786 120.54 171.426 120.649 171.116 120.868C170.806 121.087 170.565 121.374 170.392 121.729V127H169.127V119.604H170.323ZM176.551 123.24C176.551 122.087 176.817 121.171 177.351 120.492C177.884 119.809 178.59 119.467 179.47 119.467C180.372 119.467 181.076 119.786 181.582 120.424L181.644 119.604H182.799V126.822C182.799 127.779 182.514 128.534 181.944 129.085C181.379 129.636 180.618 129.912 179.661 129.912C179.128 129.912 178.606 129.798 178.096 129.57C177.585 129.342 177.196 129.03 176.927 128.634L177.583 127.875C178.125 128.545 178.788 128.88 179.572 128.88C180.188 128.88 180.666 128.707 181.008 128.36C181.354 128.014 181.527 127.526 181.527 126.897V126.262C181.021 126.845 180.331 127.137 179.456 127.137C178.59 127.137 177.888 126.788 177.351 126.091C176.817 125.394 176.551 124.443 176.551 123.24ZM177.822 123.384C177.822 124.218 177.993 124.874 178.335 125.353C178.677 125.826 179.155 126.063 179.771 126.063C180.568 126.063 181.154 125.701 181.527 124.977V121.6C181.14 120.893 180.559 120.54 179.784 120.54C179.169 120.54 178.688 120.779 178.342 121.258C177.995 121.736 177.822 122.445 177.822 123.384ZM195.705 123.842C195.582 124.895 195.192 125.708 194.536 126.282C193.884 126.852 193.016 127.137 191.932 127.137C190.756 127.137 189.812 126.715 189.102 125.872C188.395 125.029 188.042 123.901 188.042 122.488V121.531C188.042 120.606 188.206 119.793 188.534 119.091C188.867 118.389 189.336 117.851 189.942 117.478C190.549 117.099 191.25 116.91 192.048 116.91C193.105 116.91 193.953 117.206 194.591 117.799C195.229 118.387 195.6 119.202 195.705 120.246H194.386C194.272 119.453 194.023 118.879 193.641 118.523C193.262 118.168 192.731 117.99 192.048 117.99C191.209 117.99 190.551 118.3 190.072 118.92C189.598 119.54 189.361 120.422 189.361 121.565V122.529C189.361 123.609 189.587 124.468 190.038 125.106C190.489 125.744 191.12 126.063 191.932 126.063C192.661 126.063 193.219 125.899 193.606 125.571C193.998 125.239 194.258 124.662 194.386 123.842H195.705ZM201.871 127C201.798 126.854 201.739 126.594 201.693 126.221C201.105 126.831 200.404 127.137 199.588 127.137C198.859 127.137 198.259 126.932 197.79 126.521C197.325 126.107 197.093 125.583 197.093 124.949C197.093 124.179 197.384 123.582 197.968 123.158C198.556 122.73 199.381 122.516 200.442 122.516H201.673V121.935C201.673 121.493 201.541 121.142 201.276 120.882C201.012 120.618 200.622 120.485 200.107 120.485C199.656 120.485 199.278 120.599 198.973 120.827C198.667 121.055 198.515 121.331 198.515 121.654H197.243C197.243 121.285 197.373 120.93 197.633 120.588C197.897 120.242 198.253 119.968 198.699 119.768C199.15 119.567 199.645 119.467 200.183 119.467C201.035 119.467 201.702 119.681 202.186 120.109C202.669 120.533 202.919 121.119 202.938 121.866V125.271C202.938 125.95 203.024 126.49 203.197 126.891V127H201.871ZM199.772 126.036C200.169 126.036 200.545 125.934 200.9 125.729C201.256 125.523 201.513 125.257 201.673 124.929V123.411H200.682C199.132 123.411 198.357 123.865 198.357 124.771C198.357 125.168 198.49 125.478 198.754 125.701C199.018 125.924 199.358 126.036 199.772 126.036ZM206.109 119.604L206.144 120.424C206.686 119.786 207.417 119.467 208.338 119.467C209.372 119.467 210.076 119.863 210.45 120.656C210.696 120.301 211.015 120.014 211.407 119.795C211.804 119.576 212.271 119.467 212.809 119.467C214.431 119.467 215.256 120.326 215.283 122.044V127H214.019V122.119C214.019 121.59 213.898 121.196 213.656 120.937C213.415 120.672 213.009 120.54 212.439 120.54C211.97 120.54 211.58 120.681 211.271 120.964C210.961 121.242 210.781 121.618 210.73 122.092V127H209.459V122.153C209.459 121.078 208.933 120.54 207.88 120.54C207.05 120.54 206.483 120.893 206.178 121.6V127H204.913V119.604H206.109ZM223.445 123.384C223.445 124.509 223.188 125.416 222.673 126.104C222.158 126.793 221.461 127.137 220.581 127.137C219.683 127.137 218.977 126.852 218.462 126.282V129.844H217.197V119.604H218.353L218.414 120.424C218.929 119.786 219.645 119.467 220.561 119.467C221.449 119.467 222.151 119.802 222.666 120.472C223.186 121.142 223.445 122.074 223.445 123.268V123.384ZM222.181 123.24C222.181 122.406 222.003 121.748 221.647 121.265C221.292 120.782 220.804 120.54 220.185 120.54C219.419 120.54 218.845 120.88 218.462 121.559V125.093C218.84 125.767 219.419 126.104 220.198 126.104C220.804 126.104 221.285 125.865 221.641 125.387C222.001 124.904 222.181 124.188 222.181 123.24ZM91.9834 149H90.7119V140.571L88.1621 141.508V140.359L91.7852 138.999H91.9834V149ZM95.7773 148.337C95.7773 148.118 95.8411 147.936 95.9688 147.79C96.1009 147.644 96.2969 147.571 96.5566 147.571C96.8164 147.571 97.0124 147.644 97.1445 147.79C97.2812 147.936 97.3496 148.118 97.3496 148.337C97.3496 148.547 97.2812 148.722 97.1445 148.863C97.0124 149.005 96.8164 149.075 96.5566 149.075C96.2969 149.075 96.1009 149.005 95.9688 148.863C95.8411 148.722 95.7773 148.547 95.7773 148.337ZM95.7842 142.301C95.7842 142.082 95.848 141.9 95.9756 141.754C96.1077 141.608 96.3037 141.535 96.5635 141.535C96.8232 141.535 97.0192 141.608 97.1514 141.754C97.2881 141.9 97.3564 142.082 97.3564 142.301C97.3564 142.51 97.2881 142.686 97.1514 142.827C97.0192 142.968 96.8232 143.039 96.5635 143.039C96.3037 143.039 96.1077 142.968 95.9756 142.827C95.848 142.686 95.7842 142.51 95.7842 142.301ZM105.32 144.755C105.32 146.236 105.067 147.337 104.562 148.057C104.056 148.777 103.265 149.137 102.189 149.137C101.128 149.137 100.341 148.786 99.8311 148.084C99.3206 147.378 99.0563 146.325 99.0381 144.926V143.237C99.0381 141.774 99.291 140.688 99.7969 139.977C100.303 139.266 101.096 138.91 102.176 138.91C103.247 138.91 104.035 139.254 104.541 139.942C105.047 140.626 105.307 141.683 105.32 143.114V144.755ZM104.056 143.025C104.056 141.954 103.905 141.175 103.604 140.688C103.304 140.195 102.827 139.949 102.176 139.949C101.529 139.949 101.057 140.193 100.761 140.681C100.465 141.168 100.312 141.918 100.303 142.93V144.953C100.303 146.029 100.458 146.824 100.768 147.339C101.082 147.849 101.556 148.104 102.189 148.104C102.814 148.104 103.276 147.863 103.577 147.38C103.882 146.897 104.042 146.136 104.056 145.097V143.025ZM113.182 144.755C113.182 146.236 112.929 147.337 112.423 148.057C111.917 148.777 111.126 149.137 110.051 149.137C108.989 149.137 108.203 148.786 107.692 148.084C107.182 147.378 106.918 146.325 106.899 144.926V143.237C106.899 141.774 107.152 140.688 107.658 139.977C108.164 139.266 108.957 138.91 110.037 138.91C111.108 138.91 111.896 139.254 112.402 139.942C112.908 140.626 113.168 141.683 113.182 143.114V144.755ZM111.917 143.025C111.917 141.954 111.767 141.175 111.466 140.688C111.165 140.195 110.689 139.949 110.037 139.949C109.39 139.949 108.918 140.193 108.622 140.681C108.326 141.168 108.173 141.918 108.164 142.93V144.953C108.164 146.029 108.319 146.824 108.629 147.339C108.943 147.849 109.417 148.104 110.051 148.104C110.675 148.104 111.138 147.863 111.438 147.38C111.744 146.897 111.903 146.136 111.917 145.097V143.025ZM119.915 145.104V149H118.603V139.047H122.273C123.363 139.047 124.215 139.325 124.83 139.881C125.45 140.437 125.76 141.173 125.76 142.089C125.76 143.055 125.457 143.8 124.851 144.324C124.249 144.844 123.385 145.104 122.26 145.104H119.915ZM119.915 144.03H122.273C122.975 144.03 123.513 143.866 123.887 143.538C124.26 143.205 124.447 142.727 124.447 142.103C124.447 141.51 124.26 141.036 123.887 140.681C123.513 140.325 123 140.141 122.349 140.127H119.915V144.03ZM129.13 139.047L132.384 147.168L135.638 139.047H137.34V149H136.027V145.124L136.15 140.94L132.883 149H131.878L128.617 140.961L128.747 145.124V149H127.435V139.047H129.13ZM144.647 139.812V141.604H146.028V142.581H144.647V147.168C144.647 147.464 144.709 147.688 144.832 147.838C144.955 147.984 145.165 148.057 145.461 148.057C145.607 148.057 145.807 148.029 146.062 147.975V149C145.73 149.091 145.406 149.137 145.092 149.137C144.527 149.137 144.101 148.966 143.813 148.624C143.526 148.282 143.383 147.797 143.383 147.168V142.581H142.036V141.604H143.383V139.812H144.647ZM147.04 145.233C147.04 144.509 147.181 143.857 147.464 143.278C147.751 142.7 148.147 142.253 148.653 141.938C149.164 141.624 149.745 141.467 150.396 141.467C151.404 141.467 152.217 141.815 152.837 142.513C153.461 143.21 153.773 144.137 153.773 145.295V145.384C153.773 146.104 153.634 146.751 153.356 147.325C153.083 147.895 152.689 148.339 152.174 148.658C151.663 148.977 151.076 149.137 150.41 149.137C149.408 149.137 148.594 148.788 147.97 148.091C147.35 147.394 147.04 146.471 147.04 145.322V145.233ZM148.312 145.384C148.312 146.204 148.501 146.863 148.879 147.359C149.262 147.856 149.772 148.104 150.41 148.104C151.053 148.104 151.563 147.854 151.941 147.353C152.32 146.847 152.509 146.14 152.509 145.233C152.509 144.422 152.315 143.766 151.928 143.265C151.545 142.759 151.035 142.506 150.396 142.506C149.772 142.506 149.269 142.754 148.886 143.251C148.503 143.748 148.312 144.459 148.312 145.384ZM160.541 143.408H161.491C162.088 143.399 162.558 143.242 162.899 142.937C163.241 142.631 163.412 142.219 163.412 141.699C163.412 140.533 162.831 139.949 161.669 139.949C161.122 139.949 160.685 140.106 160.356 140.421C160.033 140.731 159.871 141.143 159.871 141.658H158.606C158.606 140.87 158.894 140.216 159.468 139.696C160.047 139.172 160.78 138.91 161.669 138.91C162.608 138.91 163.344 139.159 163.877 139.655C164.41 140.152 164.677 140.842 164.677 141.727C164.677 142.16 164.535 142.579 164.253 142.984C163.975 143.39 163.594 143.693 163.111 143.894C163.658 144.067 164.08 144.354 164.376 144.755C164.677 145.156 164.827 145.646 164.827 146.225C164.827 147.118 164.535 147.826 163.952 148.351C163.369 148.875 162.61 149.137 161.676 149.137C160.742 149.137 159.98 148.884 159.393 148.378C158.809 147.872 158.518 147.204 158.518 146.375H159.789C159.789 146.899 159.96 147.318 160.302 147.633C160.644 147.947 161.102 148.104 161.676 148.104C162.286 148.104 162.754 147.945 163.077 147.626C163.401 147.307 163.562 146.849 163.562 146.252C163.562 145.673 163.385 145.229 163.029 144.919C162.674 144.609 162.161 144.45 161.491 144.44H160.541V143.408ZM166.652 148.337C166.652 148.118 166.716 147.936 166.844 147.79C166.976 147.644 167.172 147.571 167.432 147.571C167.691 147.571 167.887 147.644 168.02 147.79C168.156 147.936 168.225 148.118 168.225 148.337C168.225 148.547 168.156 148.722 168.02 148.863C167.887 149.005 167.691 149.075 167.432 149.075C167.172 149.075 166.976 149.005 166.844 148.863C166.716 148.722 166.652 148.547 166.652 148.337ZM166.659 142.301C166.659 142.082 166.723 141.9 166.851 141.754C166.983 141.608 167.179 141.535 167.438 141.535C167.698 141.535 167.894 141.608 168.026 141.754C168.163 141.9 168.231 142.082 168.231 142.301C168.231 142.51 168.163 142.686 168.026 142.827C167.894 142.968 167.698 143.039 167.438 143.039C167.179 143.039 166.983 142.968 166.851 142.827C166.723 142.686 166.659 142.51 166.659 142.301ZM176.195 144.755C176.195 146.236 175.942 147.337 175.437 148.057C174.931 148.777 174.14 149.137 173.064 149.137C172.003 149.137 171.216 148.786 170.706 148.084C170.196 147.378 169.931 146.325 169.913 144.926V143.237C169.913 141.774 170.166 140.688 170.672 139.977C171.178 139.266 171.971 138.91 173.051 138.91C174.122 138.91 174.91 139.254 175.416 139.942C175.922 140.626 176.182 141.683 176.195 143.114V144.755ZM174.931 143.025C174.931 141.954 174.78 141.175 174.479 140.688C174.179 140.195 173.702 139.949 173.051 139.949C172.404 139.949 171.932 140.193 171.636 140.681C171.34 141.168 171.187 141.918 171.178 142.93V144.953C171.178 146.029 171.333 146.824 171.643 147.339C171.957 147.849 172.431 148.104 173.064 148.104C173.689 148.104 174.151 147.863 174.452 147.38C174.757 146.897 174.917 146.136 174.931 145.097V143.025ZM184.057 144.755C184.057 146.236 183.804 147.337 183.298 148.057C182.792 148.777 182.001 149.137 180.926 149.137C179.864 149.137 179.078 148.786 178.567 148.084C178.057 147.378 177.793 146.325 177.774 144.926V143.237C177.774 141.774 178.027 140.688 178.533 139.977C179.039 139.266 179.832 138.91 180.912 138.91C181.983 138.91 182.771 139.254 183.277 139.942C183.783 140.626 184.043 141.683 184.057 143.114V144.755ZM182.792 143.025C182.792 141.954 182.642 141.175 182.341 140.688C182.04 140.195 181.564 139.949 180.912 139.949C180.265 139.949 179.793 140.193 179.497 140.681C179.201 141.168 179.048 141.918 179.039 142.93V144.953C179.039 146.029 179.194 146.824 179.504 147.339C179.818 147.849 180.292 148.104 180.926 148.104C181.55 148.104 182.013 147.863 182.313 147.38C182.619 146.897 182.778 146.136 182.792 145.097V143.025ZM190.79 145.104V149H189.478V139.047H193.148C194.238 139.047 195.09 139.325 195.705 139.881C196.325 140.437 196.635 141.173 196.635 142.089C196.635 143.055 196.332 143.8 195.726 144.324C195.124 144.844 194.26 145.104 193.135 145.104H190.79ZM190.79 144.03H193.148C193.85 144.03 194.388 143.866 194.762 143.538C195.135 143.205 195.322 142.727 195.322 142.103C195.322 141.51 195.135 141.036 194.762 140.681C194.388 140.325 193.875 140.141 193.224 140.127H190.79V144.03ZM200.005 139.047L203.259 147.168L206.513 139.047H208.215V149H206.902V145.124L207.025 140.94L203.758 149H202.753L199.492 140.961L199.622 145.124V149H198.31V139.047H200.005ZM217.833 149H216.562V140.571L214.012 141.508V140.359L217.635 138.999H217.833V149ZM226.501 139.04V140.113H226.269C225.284 140.132 224.5 140.423 223.917 140.988C223.334 141.553 222.996 142.349 222.905 143.374C223.429 142.772 224.145 142.472 225.052 142.472C225.918 142.472 226.608 142.777 227.123 143.388C227.643 143.998 227.902 144.787 227.902 145.753C227.902 146.778 227.622 147.599 227.062 148.214C226.506 148.829 225.758 149.137 224.819 149.137C223.867 149.137 223.094 148.772 222.502 148.043C221.91 147.309 221.613 146.366 221.613 145.213V144.728C221.613 142.896 222.003 141.496 222.782 140.53C223.566 139.56 224.73 139.063 226.275 139.04H226.501ZM224.84 143.524C224.407 143.524 224.008 143.654 223.644 143.914C223.279 144.174 223.026 144.5 222.885 144.892V145.356C222.885 146.177 223.069 146.838 223.438 147.339C223.808 147.84 224.268 148.091 224.819 148.091C225.389 148.091 225.836 147.881 226.159 147.462C226.487 147.043 226.651 146.493 226.651 145.814C226.651 145.131 226.485 144.579 226.152 144.16C225.824 143.736 225.387 143.524 224.84 143.524ZM233.2 149V139.047H236.01C236.876 139.047 237.641 139.238 238.307 139.621C238.972 140.004 239.485 140.549 239.845 141.255C240.209 141.961 240.394 142.772 240.398 143.688V144.324C240.398 145.263 240.216 146.086 239.852 146.792C239.492 147.498 238.974 148.041 238.3 148.419C237.63 148.797 236.848 148.991 235.955 149H233.2ZM234.513 140.127V147.927H235.894C236.905 147.927 237.691 147.612 238.252 146.983C238.817 146.354 239.1 145.459 239.1 144.297V143.716C239.1 142.586 238.833 141.708 238.3 141.084C237.771 140.455 237.019 140.136 236.044 140.127H234.513ZM245.259 149.137C244.256 149.137 243.44 148.809 242.812 148.152C242.183 147.492 241.868 146.61 241.868 145.507V145.274C241.868 144.541 242.007 143.887 242.285 143.312C242.568 142.734 242.96 142.283 243.461 141.959C243.967 141.631 244.514 141.467 245.102 141.467C246.063 141.467 246.811 141.784 247.344 142.417C247.877 143.05 248.144 143.957 248.144 145.138V145.664H243.133C243.151 146.393 243.363 146.983 243.769 147.435C244.179 147.881 244.698 148.104 245.327 148.104C245.774 148.104 246.152 148.013 246.462 147.831C246.772 147.649 247.043 147.407 247.275 147.106L248.048 147.708C247.428 148.66 246.498 149.137 245.259 149.137ZM245.102 142.506C244.591 142.506 244.163 142.693 243.816 143.066C243.47 143.436 243.256 143.955 243.174 144.625H246.879V144.529C246.842 143.887 246.669 143.39 246.359 143.039C246.049 142.684 245.63 142.506 245.102 142.506ZM252.58 148.104C253.031 148.104 253.425 147.968 253.763 147.694C254.1 147.421 254.287 147.079 254.323 146.669H255.52C255.497 147.093 255.351 147.496 255.082 147.879C254.813 148.262 254.453 148.567 254.002 148.795C253.555 149.023 253.081 149.137 252.58 149.137C251.573 149.137 250.771 148.802 250.174 148.132C249.581 147.457 249.285 146.537 249.285 145.37V145.158C249.285 144.438 249.417 143.798 249.682 143.237C249.946 142.677 250.324 142.242 250.816 141.932C251.313 141.622 251.899 141.467 252.573 141.467C253.403 141.467 254.091 141.715 254.638 142.212C255.189 142.709 255.483 143.354 255.52 144.146H254.323C254.287 143.668 254.104 143.276 253.776 142.971C253.453 142.661 253.052 142.506 252.573 142.506C251.931 142.506 251.432 142.738 251.076 143.203C250.725 143.663 250.55 144.331 250.55 145.206V145.445C250.55 146.298 250.725 146.954 251.076 147.414C251.427 147.874 251.928 148.104 252.58 148.104Z" fill="black" fill-opacity="0.65"/>
<path d="M59 108.001C64.5228 108.001 69 103.524 69 98.001C69 92.4781 64.5228 88.001 59 88.001C53.4772 88.001 49 92.4781 49 98.001C49 103.524 53.4772 108.001 59 108.001Z" stroke="#002642" stroke-width="2" stroke-miterlimit="10"/>
<path d="M64.9156 93.9923C64.7879 93.8477 64.6318 93.7308 64.4571 93.6488C64.2825 93.5668 64.0928 93.5214 63.8999 93.5156C63.7071 93.5097 63.515 93.5433 63.3357 93.6145C63.1563 93.6857 62.9934 93.7929 62.8571 93.9294L59.8571 96.9294L56.8571 99.9294L56.3571 100.429L54.3199 98.3923C54.0642 98.1299 53.7185 97.9744 53.3525 97.9571C52.9866 97.9399 52.6277 98.0622 52.3485 98.2994C52.2039 98.4272 52.087 98.5832 52.005 98.7579C51.923 98.9326 51.8776 99.1222 51.8718 99.3151C51.8659 99.508 51.8995 99.7 51.9707 99.8794C52.0419 100.059 52.1491 100.222 52.2856 100.358L54.4942 102.572L55.8428 103.921C55.9727 104.055 56.1502 104.134 56.3372 104.139C56.5242 104.144 56.7057 104.075 56.8428 103.948L56.8556 103.935L58.8556 101.935L61.8556 98.9351L64.8171 95.9737C65.0825 95.718 65.2405 95.3707 65.2588 95.0025C65.2771 94.6344 65.1544 94.2731 64.9156 93.9923Z" fill="#002642"/>
<path d="M24 70H344V68H24V70ZM345 71V170H347V71H345ZM344 171H24V173H344V171ZM23 170V71H21V170H23ZM24 171C23.4477 171 23 170.552 23 170H21C21 171.657 22.3431 173 24 173V171ZM345 170C345 170.552 344.552 171 344 171V173C345.657 173 347 171.657 347 170H345ZM344 70C344.552 70 345 70.4477 345 71H347C347 69.3431 345.657 68 344 68V70ZM24 68C22.3431 68 21 69.3431 21 71H23C23 70.4477 23.4477 70 24 70V68Z" fill="#B7EB8F"/>
<g filter="url(#filter2_ddd)">
<rect x="-1" y="601" width="375" height="64" fill="white"/>
</g>
<path d="M63.8984 631.065C64.1457 631.303 64.2958 631.624 64.3195 631.967C64.3433 632.309 64.239 632.648 64.0269 632.918C63.9078 633.06 63.7603 633.176 63.5937 633.259C63.4272 633.341 63.2454 633.388 63.0597 633.396C62.8741 633.405 62.6888 633.374 62.5156 633.307C62.3424 633.24 62.1851 633.137 62.0537 633.006L60.8676 631.82C60.8396 631.791 60.8036 631.771 60.7642 631.763C60.7248 631.754 60.6838 631.758 60.6466 631.774C60.6094 631.789 60.5776 631.815 60.5554 631.849C60.5332 631.882 60.5216 631.922 60.5221 631.962V644.04C60.5221 645.09 60.1049 646.097 59.3623 646.84C58.6196 647.583 57.6124 648 56.5621 648H50.7198C50.3648 648 50.0243 647.859 49.7732 647.608C49.5222 647.357 49.3811 647.016 49.3811 646.661V637.365C49.3811 637.188 49.3461 637.013 49.278 636.85C49.2098 636.686 49.11 636.538 48.9843 636.414C48.8585 636.289 48.7094 636.191 48.5454 636.124C48.3814 636.058 48.2059 636.024 48.029 636.026H44.2805C43.9255 636.026 43.5849 636.167 43.3339 636.418C43.0828 636.669 42.9418 637.01 42.9418 637.365V646.661C42.9418 647.016 42.8007 647.357 42.5497 647.608C42.2986 647.859 41.9581 648 41.603 648H35.7607C34.7105 648 33.7033 647.583 32.9606 646.84C32.218 646.097 31.8008 645.09 31.8008 644.04V631.962C31.8013 631.922 31.7897 631.882 31.7675 631.849C31.7453 631.815 31.7135 631.789 31.6763 631.774C31.639 631.758 31.5981 631.754 31.5587 631.763C31.5193 631.771 31.4833 631.791 31.4554 631.82L30.2692 633.006C30.1378 633.137 29.9805 633.24 29.8073 633.307C29.634 633.374 29.4487 633.405 29.2631 633.396C29.0775 633.388 28.8957 633.341 28.7291 633.259C28.5626 633.176 28.4151 633.06 28.2959 632.918C28.0838 632.648 27.9796 632.309 28.0033 631.967C28.0271 631.624 28.1772 631.303 28.4245 631.065L37.461 622.028C37.5049 621.987 37.5514 621.949 37.6002 621.913L45.049 614.465C45.3497 614.167 45.7557 614 46.1788 614C46.6019 614 47.008 614.167 47.3087 614.465L54.7575 621.913C54.8063 621.949 54.8528 621.987 54.8967 622.028L63.8984 631.065Z" fill="black"/>
<g clip-path="url(#clip1)">
<path d="M228.745 615.373C228.745 614.615 228.131 614 227.373 614C226.615 614 226 614.615 226 615.373V620.863C226 621.621 226.615 622.235 227.373 622.235C228.131 622.235 228.745 621.621 228.745 620.863V615.373Z" fill="#002642"/>
<path d="M245.051 618.667H243.569V620.863C243.569 621.518 243.308 622.146 242.845 622.61C242.382 623.073 241.753 623.333 241.098 623.333C240.443 623.333 239.814 623.073 239.351 622.61C238.888 622.146 238.627 621.518 238.627 620.863V618.667H229.843V620.863C229.843 621.518 229.583 622.146 229.119 622.61C228.656 623.073 228.028 623.333 227.373 623.333C226.717 623.333 226.089 623.073 225.626 622.61C225.162 622.146 224.902 621.518 224.902 620.863V618.667H223.42C221.053 618.667 219.137 620.918 219.137 623.699V643.831C219.137 646.612 221.053 648.863 223.42 648.863H245.051C247.417 648.863 249.333 646.612 249.333 643.831V623.699C249.333 620.918 247.417 618.667 245.051 618.667ZM247.961 643.831C247.961 645.849 246.654 647.49 245.051 647.49H223.42C221.816 647.49 220.51 645.843 220.51 643.831V630.106H247.961V643.831Z" fill="#002642" stroke="#002642" stroke-miterlimit="10"/>
<path d="M242.47 615.373C242.47 614.615 241.856 614 241.098 614C240.34 614 239.725 614.615 239.725 615.373V620.863C239.725 621.621 240.34 622.235 241.098 622.235C241.856 622.235 242.47 621.621 242.47 620.863V615.373Z" fill="#002642"/>
<path d="M226 633.902H223.529C223.226 633.902 222.98 634.148 222.98 634.451V636.921C222.98 637.225 223.226 637.47 223.529 637.47H226C226.303 637.47 226.549 637.225 226.549 636.921V634.451C226.549 634.148 226.303 633.902 226 633.902Z" fill="#002642" stroke="#002642" stroke-miterlimit="10"/>
<path d="M232.314 633.902H229.843C229.54 633.902 229.294 634.148 229.294 634.451V636.921C229.294 637.225 229.54 637.47 229.843 637.47H232.314C232.617 637.47 232.863 637.225 232.863 636.921V634.451C232.863 634.148 232.617 633.902 232.314 633.902Z" fill="#002642" stroke="#002642" stroke-miterlimit="10"/>
<path d="M238.628 633.902H236.157C235.854 633.902 235.608 634.148 235.608 634.451V636.921C235.608 637.225 235.854 637.47 236.157 637.47H238.628C238.931 637.47 239.177 637.225 239.177 636.921V634.451C239.177 634.148 238.931 633.902 238.628 633.902Z" fill="#002642" stroke="#002642" stroke-miterlimit="10"/>
<path d="M244.941 633.902H242.471C242.167 633.902 241.922 634.148 241.922 634.451V636.921C241.922 637.225 242.167 637.47 242.471 637.47H244.941C245.244 637.47 245.49 637.225 245.49 636.921V634.451C245.49 634.148 245.244 633.902 244.941 633.902Z" fill="#002642" stroke="#002642" stroke-miterlimit="10"/>
<path d="M226 640.49H223.529C223.226 640.49 222.98 640.736 222.98 641.039V643.51C222.98 643.813 223.226 644.059 223.529 644.059H226C226.303 644.059 226.549 643.813 226.549 643.51V641.039C226.549 640.736 226.303 640.49 226 640.49Z" fill="#002642" stroke="#002642" stroke-miterlimit="10"/>
<path d="M232.314 640.49H229.843C229.54 640.49 229.294 640.736 229.294 641.039V643.51C229.294 643.813 229.54 644.059 229.843 644.059H232.314C232.617 644.059 232.863 643.813 232.863 643.51V641.039C232.863 640.736 232.617 640.49 232.314 640.49Z" fill="#002642" stroke="#002642" stroke-miterlimit="10"/>
<path d="M238.628 640.49H236.157C235.854 640.49 235.608 640.736 235.608 641.039V643.51C235.608 643.813 235.854 644.059 236.157 644.059H238.628C238.931 644.059 239.177 643.813 239.177 643.51V641.039C239.177 640.736 238.931 640.49 238.628 640.49Z" fill="#002642" stroke="#002642" stroke-miterlimit="10"/>
<path d="M244.941 640.49H242.471C242.167 640.49 241.922 640.736 241.922 641.039V643.51C241.922 643.813 242.167 644.059 242.471 644.059H244.941C245.244 644.059 245.49 643.813 245.49 643.51V641.039C245.49 640.736 245.244 640.49 244.941 640.49Z" fill="#002642" stroke="#002642" stroke-miterlimit="10"/>
</g>
<path d="M323.21 648C332.163 648 339.421 640.389 339.421 631C339.421 621.611 332.163 614 323.21 614C314.258 614 307 621.611 307 631C307 640.389 314.258 648 323.21 648Z" stroke="black" stroke-width="2" stroke-miterlimit="10"/>
<path d="M323.211 632.579C326.408 632.579 329 629.86 329 626.507C329 623.154 326.408 620.436 323.211 620.436C320.013 620.436 317.421 623.154 317.421 626.507C317.421 629.86 320.013 632.579 323.211 632.579Z" fill="black"/>
<path d="M327.842 635.007H318.579C317.35 635.007 316.172 635.519 315.304 636.43C314.435 637.341 313.947 638.576 313.947 639.864V640.394C315.155 641.686 316.596 642.713 318.187 643.414C319.777 644.115 321.485 644.476 323.21 644.476C324.936 644.476 326.644 644.115 328.234 643.414C329.825 642.713 331.266 641.686 332.474 640.394V639.864C332.474 639.226 332.354 638.595 332.121 638.005C331.888 637.416 331.547 636.881 331.117 636.43C330.687 635.979 330.176 635.621 329.614 635.377C329.052 635.133 328.45 635.007 327.842 635.007Z" fill="black"/>
<path d="M139.716 620.786V647.133" stroke="#DE5F4C" stroke-width="0.0265151" stroke-miterlimit="10"/>
<path d="M120.219 641.61C126.538 639.494 132.859 637.378 139.178 635.262C145.227 637.681 151.275 640.101 157.324 642.52L140.388 649.778C133.665 647.056 126.942 644.333 120.219 641.61Z" fill="#DE5F4C"/>
<path d="M120 621.351C126.351 619.234 132.702 617.117 139.052 615C145.201 617.318 151.351 619.637 157.5 621.955V642.52C151.351 640 145.201 637.48 139.052 634.96C132.774 637.176 126.497 639.394 120.219 641.611C127 644.333 133.782 647.056 140.565 649.778C146.21 647.359 151.855 644.939 157.5 642.52" stroke="#DE5F4C" stroke-width="1.32576" stroke-miterlimit="10" stroke-linecap="round" stroke-linejoin="round"/>
<path d="M139.178 615.302V635.086" stroke="#DE5F4C" stroke-width="1.06061" stroke-miterlimit="10"/>
<path d="M123.452 622.863L134.34 619.234V627.097L123.452 630.726V622.863Z" fill="#DE5F4C"/>
<path d="M123.452 622.863L134.34 619.234V627.097L123.452 630.726V622.863Z" stroke="#DE5F4C" stroke-width="0.795455" stroke-miterlimit="10" stroke-linecap="round" stroke-linejoin="round"/>
<path d="M129.11 643.587C128.745 643.587 128.449 643.291 128.449 642.925V639.637C128.449 639.272 128.745 638.976 129.11 638.976C129.476 638.976 129.772 639.272 129.772 639.637V642.925C129.772 643.291 129.476 643.587 129.11 643.587Z" fill="white"/>
<path d="M133.494 643.587C133.129 643.587 132.833 643.291 132.833 642.925V639.637C132.833 639.272 133.129 638.976 133.494 638.976C133.86 638.976 134.156 639.272 134.156 639.637V642.925C134.156 643.291 133.86 643.587 133.494 643.587Z" fill="white"/>
<path d="M133.362 641.621H129.356V640.979H133.362V641.621Z" fill="white"/>
<path d="M127.882 642.944C127.694 642.944 127.542 642.792 127.542 642.604V639.947C127.542 639.759 127.694 639.606 127.882 639.606C128.07 639.606 128.222 639.759 128.222 639.947V642.604C128.222 642.792 128.07 642.944 127.882 642.944Z" fill="white"/>
<path d="M134.76 642.944C134.572 642.944 134.42 642.792 134.42 642.604V639.947C134.42 639.759 134.572 639.606 134.76 639.606C134.948 639.606 135.1 639.759 135.1 639.947V642.604C135.1 642.792 134.948 642.944 134.76 642.944Z" fill="white"/>
<path d="M127.126 641.697C127.022 641.697 126.937 641.612 126.937 641.508V641.054C126.937 640.95 127.022 640.866 127.126 640.866C127.231 640.866 127.315 640.95 127.315 641.054V641.508C127.315 641.612 127.231 641.697 127.126 641.697Z" fill="white"/>
<path d="M135.516 641.697C135.412 641.697 135.327 641.612 135.327 641.508V641.054C135.327 640.95 135.412 640.866 135.516 640.866C135.621 640.866 135.705 640.95 135.705 641.054V641.508C135.705 641.612 135.621 641.697 135.516 641.697Z" fill="white"/>
<path d="M141.603 627.756C141.63 627.681 141.646 627.613 141.654 627.552C141.68 627.362 141.634 627.261 141.349 626.585C141.324 626.528 141.287 626.439 141.196 626.382C141.105 626.324 141.009 626.328 140.941 626.331C140.895 626.333 140.526 626.356 140.382 626.636C140.322 626.753 140.327 626.863 140.331 626.941C140.344 627.169 140.444 627.181 140.687 627.654C140.762 627.8 140.816 627.922 140.941 627.959C141.001 627.977 141.056 627.969 141.094 627.959L143.028 632.234C142.976 632.256 142.905 632.289 142.825 632.336C142.655 632.434 142.178 632.709 142.061 633.201C141.974 633.565 142.124 633.882 142.163 633.964C142.302 634.258 142.445 634.253 142.825 634.778C142.987 635.004 143.052 635.131 143.079 635.287C143.118 635.512 143.058 635.683 143.028 635.796C142.867 636.408 143.144 637.038 143.18 637.119C143.399 637.602 143.863 637.998 144.402 638.137C144.782 638.234 145.085 638.174 145.394 638.111C145.84 638.021 146.689 637.851 147.175 637.094C147.29 636.915 147.682 636.242 147.455 635.592C147.243 634.984 146.523 634.498 146.336 634.371C146.107 634.216 145.893 634.109 145.75 633.837C145.622 633.591 145.675 633.449 145.623 633.15C145.605 633.046 145.46 632.222 144.86 631.928C144.316 631.663 143.756 631.911 143.664 631.954L141.603 627.756Z" fill="#DE5F4C"/>
<path d="M145.343 634.854C145.343 635.276 145.001 635.618 144.58 635.618C144.159 635.618 143.817 635.276 143.817 634.854C143.817 634.433 144.159 634.091 144.58 634.091C145.001 634.091 145.343 634.433 145.343 634.854Z" stroke="white" stroke-width="0.265152" stroke-miterlimit="10" stroke-linecap="round" stroke-linejoin="round"/>
<path d="M144.326 636.584L146.056 635.77" stroke="white" stroke-width="0.265152" stroke-miterlimit="10" stroke-linecap="round" stroke-linejoin="round"/>
<path d="M140.407 627.069C140.317 627.132 140.276 627.133 140.255 627.119C140.221 627.097 140.239 627.034 140.204 627.018C140.174 627.003 140.118 627.03 140.102 627.069C140.09 627.098 140.128 627.156 140.204 627.272C140.225 627.305 140.239 627.325 140.255 627.323C140.286 627.319 140.306 627.221 140.306 627.221C140.298 627.196 140.302 627.178 140.306 627.17C140.322 627.129 140.384 627.105 140.458 627.119" fill="#DE5F4C"/>
<path d="M140.611 627.425C140.521 627.488 140.479 627.489 140.458 627.476C140.424 627.453 140.442 627.391 140.408 627.374C140.378 627.359 140.321 627.386 140.306 627.425C140.294 627.454 140.331 627.512 140.408 627.628C140.429 627.661 140.443 627.681 140.458 627.679C140.49 627.675 140.509 627.578 140.509 627.578C140.501 627.552 140.506 627.535 140.509 627.526C140.526 627.486 140.588 627.461 140.662 627.476" fill="#DE5F4C"/>
<path d="M140.809 627.726C140.718 627.789 140.677 627.79 140.656 627.777C140.622 627.755 140.64 627.692 140.605 627.675C140.575 627.66 140.519 627.687 140.504 627.726C140.492 627.755 140.529 627.813 140.605 627.929C140.626 627.962 140.641 627.982 140.656 627.98C140.687 627.976 140.707 627.879 140.707 627.879C140.699 627.853 140.704 627.836 140.707 627.828C140.723 627.787 140.786 627.762 140.86 627.777" fill="#DE5F4C"/>
<path d="M141.355 626.669C141.46 626.636 141.486 626.604 141.489 626.579C141.492 626.539 141.431 626.515 141.439 626.477C141.446 626.444 141.501 626.416 141.542 626.427C141.571 626.436 141.595 626.501 141.641 626.632C141.653 626.669 141.661 626.693 141.65 626.704C141.627 626.725 141.538 626.682 141.538 626.682C141.523 626.66 141.506 626.653 141.498 626.651C141.456 626.639 141.398 626.673 141.364 626.741" fill="#DE5F4C"/>
<path d="M141.513 627.048C141.618 627.015 141.644 626.983 141.647 626.958C141.65 626.918 141.589 626.894 141.597 626.856C141.604 626.823 141.659 626.795 141.699 626.806C141.729 626.815 141.753 626.88 141.799 627.011C141.811 627.047 141.819 627.071 141.808 627.082C141.785 627.104 141.696 627.061 141.696 627.061C141.681 627.038 141.664 627.032 141.656 627.03C141.613 627.017 141.556 627.052 141.522 627.119" fill="#DE5F4C"/>
<path d="M141.631 627.388C141.736 627.355 141.762 627.323 141.764 627.298C141.768 627.258 141.706 627.234 141.715 627.196C141.722 627.164 141.777 627.135 141.817 627.146C141.847 627.155 141.871 627.22 141.916 627.351C141.929 627.388 141.937 627.412 141.925 627.423C141.903 627.445 141.814 627.401 141.814 627.401C141.798 627.379 141.782 627.372 141.773 627.37C141.731 627.358 141.674 627.392 141.64 627.46" fill="#DE5F4C"/>
<path d="M143.009 644.64C143.009 645.95 141.948 647.012 140.638 647.012C139.328 647.012 138.267 645.95 138.267 644.64C138.267 643.331 139.328 642.269 140.638 642.269C141.948 642.269 143.009 643.331 143.009 644.64Z" fill="white"/>
<path d="M143.009 644.64C143.009 645.95 141.948 647.012 140.638 647.012C139.328 647.012 138.267 645.95 138.267 644.64C138.267 643.331 139.328 642.269 140.638 642.269C141.948 642.269 143.009 643.331 143.009 644.64Z" stroke="#DE5F4C" stroke-width="0.198864" stroke-miterlimit="10"/>
<path d="M138.963 643.009L142.269 646.316" stroke="#DE5F4C" stroke-width="0.198864" stroke-miterlimit="10"/>
<path d="M139.137 646.446C138.63 645.498 138.793 644.33 139.528 643.574C140.304 642.778 141.55 642.61 142.531 643.183" stroke="#DE5F4C" stroke-width="0.198864" stroke-miterlimit="10"/>
<path d="M138.397 644.053C138.549 644.069 138.783 644.115 139.006 644.271C139.073 644.317 139.308 644.492 139.572 645.141C139.804 645.712 139.734 645.855 139.92 646.229C140.087 646.565 140.327 646.819 140.572 647.012" stroke="#DE5F4C" stroke-width="0.198864" stroke-miterlimit="10"/>
<path d="M140.094 642.356C140.096 642.487 140.119 642.728 140.268 642.965C140.375 643.136 140.507 643.239 140.616 643.313C141.113 643.652 141.537 643.658 142.008 643.836C142.263 643.932 142.623 644.114 143.009 644.488" stroke="#DE5F4C" stroke-width="0.198864" stroke-miterlimit="10"/>
</g>
<defs>
<filter id="filter0_d" x="11" y="14" width="40" height="42" filterUnits="userSpaceOnUse" color-interpolation-filters="sRGB">
<feFlood flood-opacity="0" result="BackgroundImageFix"/>
<feColorMatrix in="SourceAlpha" type="matrix" values="0 0 0 0 0 0 0 0 0 0 0 0 0 0 0 0 0 0 127 0" result="hardAlpha"/>
<feOffset dy="2"/>
<feColorMatrix type="matrix" values="0 0 0 0 0 0 0 0 0 0 0 0 0 0 0 0 0 0 0.043 0"/>
<feBlend mode="normal" in2="BackgroundImageFix" result="effect1_dropShadow"/>
<feBlend mode="normal" in="SourceGraphic" in2="effect1_dropShadow" result="shape"/>
</filter>
<filter id="filter1_d" x="22" y="190" width="332" height="76" filterUnits="userSpaceOnUse" color-interpolation-filters="sRGB">
<feFlood flood-opacity="0" result="BackgroundImageFix"/>
<feColorMatrix in="SourceAlpha" type="matrix" values="0 0 0 0 0 0 0 0 0 0 0 0 0 0 0 0 0 0 127 0" result="hardAlpha"/>
<feOffset dy="4"/>
<feGaussianBlur stdDeviation="2"/>
<feColorMatrix type="matrix" values="0 0 0 0 0 0 0 0 0 0 0 0 0 0 0 0 0 0 0.25 0"/>
<feBlend mode="normal" in2="BackgroundImageFix" result="effect1_dropShadow"/>
<feBlend mode="normal" in="SourceGraphic" in2="effect1_dropShadow" result="shape"/>
</filter>
<filter id="filter2_ddd" x="-15" y="590" width="403" height="93" filterUnits="userSpaceOnUse" color-interpolation-filters="sRGB">
<feFlood flood-opacity="0" result="BackgroundImageFix"/>
<feColorMatrix in="SourceAlpha" type="matrix" values="0 0 0 0 0 0 0 0 0 0 0 0 0 0 0 0 0 0 127 0" result="hardAlpha"/>
<feOffset dy="4"/>
<feGaussianBlur stdDeviation="2.5"/>
<feColorMatrix type="matrix" values="0 0 0 0 0 0 0 0 0 0 0 0 0 0 0 0 0 0 0.2 0"/>
<feBlend mode="normal" in2="BackgroundImageFix" result="effect1_dropShadow"/>
<feColorMatrix in="SourceAlpha" type="matrix" values="0 0 0 0 0 0 0 0 0 0 0 0 0 0 0 0 0 0 127 0" result="hardAlpha"/>
<feOffset dy="3"/>
<feGaussianBlur stdDeviation="7"/>
<feColorMatrix type="matrix" values="0 0 0 0 0 0 0 0 0 0 0 0 0 0 0 0 0 0 0.12 0"/>
<feBlend mode="normal" in2="effect1_dropShadow" result="effect2_dropShadow"/>
<feColorMatrix in="SourceAlpha" type="matrix" values="0 0 0 0 0 0 0 0 0 0 0 0 0 0 0 0 0 0 127 0" result="hardAlpha"/>
<feOffset dy="8"/>
<feGaussianBlur stdDeviation="5"/>
<feColorMatrix type="matrix" values="0 0 0 0 0 0 0 0 0 0 0 0 0 0 0 0 0 0 0.14 0"/>
<feBlend mode="normal" in2="effect2_dropShadow" result="effect3_dropShadow"/>
<feBlend mode="normal" in="SourceGraphic" in2="effect3_dropShadow" result="shape"/>
</filter>
<clipPath id="clip0">
<rect width="375" height="667" fill="white"/>
</clipPath>
<clipPath id="clip1">
<rect width="30.4706" height="35" fill="white" transform="translate(219 614)"/>
</clipPath>
</defs>
</svg>
