<svg width="40" height="37" viewBox="0 0 40 37" fill="none" xmlns="http://www.w3.org/2000/svg">
<path d="M20.7157 6.78568V33.1329" stroke="#468751" stroke-width="0.0265151" stroke-miterlimit="10"/>
<path d="M1.21869 27.6106C7.53833 25.4944 13.8588 23.3781 20.1784 21.2619C26.2269 23.6814 32.2752 26.1009 38.3235 28.5201L21.3883 35.7782C14.665 33.0557 7.94197 30.333 1.21869 27.6106Z" fill="#468751"/>
<path d="M1 7.35072C7.35073 5.23372 13.7017 3.11673 20.0525 0.99999C26.2014 3.31828 32.3508 5.6371 38.5 7.95539V28.5202C32.3508 25.9998 26.2014 23.4797 20.0525 20.9596C13.7742 23.1764 7.4967 25.3936 1.21868 27.6107C8.00046 30.3331 14.7825 33.0556 21.5645 35.7783C27.21 33.3589 32.8548 30.9394 38.5 28.5202" stroke="#468751" stroke-width="1.32576" stroke-miterlimit="10" stroke-linecap="round" stroke-linejoin="round"/>
<path d="M20.1784 1.3023V21.0864" stroke="#468751" stroke-width="1.06061" stroke-miterlimit="10"/>
<path d="M4.45242 8.8627L15.3396 5.23364V13.0967L4.45242 16.7258V8.8627Z" fill="#468751"/>
<path d="M4.45242 8.8627L15.3396 5.23364V13.0967L4.45242 16.7258V8.8627Z" stroke="#468751" stroke-width="0.795455" stroke-miterlimit="10" stroke-linecap="round" stroke-linejoin="round"/>
<path d="M10.1104 29.5866C9.74495 29.5866 9.44881 29.2905 9.44881 28.9253V25.6372C9.44881 25.272 9.74495 24.9758 10.1104 24.9758C10.4758 24.9758 10.7717 25.272 10.7717 25.6372V28.9253C10.7717 29.2905 10.4758 29.5866 10.1104 29.5866Z" fill="white"/>
<path d="M14.4944 29.5866C14.129 29.5866 13.8329 29.2905 13.8329 28.9253V25.6372C13.8329 25.272 14.129 24.9758 14.4944 24.9758C14.8596 24.9758 15.1557 25.272 15.1557 25.6372V28.9253C15.1557 29.2905 14.8596 29.5866 14.4944 29.5866Z" fill="white"/>
<path d="M14.3621 27.6214H10.3562V26.979H14.3621V27.6214Z" fill="white"/>
<path d="M8.88206 28.9441C8.6942 28.9441 8.54192 28.7918 8.54192 28.6039V25.9466C8.54192 25.7587 8.6942 25.6064 8.88206 25.6064C9.06991 25.6064 9.2222 25.7587 9.2222 25.9466V28.6039C9.2222 28.7918 9.06991 28.9441 8.88206 28.9441Z" fill="white"/>
<path d="M15.7604 28.9441C15.5726 28.9441 15.4203 28.7918 15.4203 28.6039V25.9466C15.4203 25.7587 15.5726 25.6064 15.7604 25.6064C15.9483 25.6064 16.1006 25.7587 16.1006 25.9466V28.6039C16.1006 28.7918 15.9483 28.9441 15.7604 28.9441Z" fill="white"/>
<path d="M8.12607 27.6969C8.02174 27.6969 7.93716 27.6123 7.93716 27.508V27.0546C7.93716 26.9502 8.02174 26.8656 8.12607 26.8656C8.23041 26.8656 8.31525 26.9502 8.31525 27.0546V27.508C8.31525 27.6123 8.23041 27.6969 8.12607 27.6969Z" fill="white"/>
<path d="M16.5163 27.6969C16.412 27.6969 16.3274 27.6123 16.3274 27.508V27.0546C16.3274 26.9502 16.412 26.8656 16.5163 26.8656C16.6207 26.8656 16.7053 26.9502 16.7053 27.0546V27.508C16.7053 27.6123 16.6207 27.6969 16.5163 27.6969Z" fill="white"/>
<path d="M22.6032 13.7555C22.6306 13.6812 22.6458 13.6124 22.654 13.5521C22.6798 13.3616 22.6342 13.2612 22.3486 12.5852C22.3244 12.528 22.2873 12.4392 22.1961 12.3815C22.1055 12.3241 22.0093 12.3275 21.9416 12.3306C21.8949 12.333 21.5261 12.3562 21.3817 12.636C21.3219 12.7525 21.3266 12.8631 21.3311 12.9414C21.3438 13.1693 21.4441 13.1806 21.6871 13.6538C21.7624 13.7998 21.8162 13.9223 21.9416 13.9592C22.0011 13.9766 22.0565 13.9687 22.0941 13.9592L24.028 18.2337C23.9764 18.2556 23.905 18.2888 23.8246 18.3354C23.6552 18.4335 23.1786 18.7093 23.0611 19.2007C22.9741 19.5645 23.1243 19.8818 23.163 19.9637C23.3016 20.2575 23.445 20.2525 23.8246 20.7781C23.9874 21.0036 24.0523 21.1309 24.0791 21.2869C24.1176 21.5116 24.0578 21.6826 24.028 21.7959C23.8676 22.4082 24.1442 23.0379 24.1806 23.1188C24.3995 23.6015 24.8632 23.998 25.402 24.1366C25.7822 24.2343 26.0849 24.1735 26.3943 24.1113C26.8398 24.0214 27.689 23.8504 28.1753 23.0935C28.2897 22.9154 28.6817 22.2417 28.4551 21.5922C28.243 20.9841 27.5235 20.498 27.3356 20.3708C27.1072 20.2161 26.893 20.1091 26.7505 19.8367C26.6222 19.5912 26.6754 19.4486 26.6232 19.1496C26.605 19.046 26.4604 18.2216 25.8599 17.9284C25.3164 17.6628 24.756 17.9113 24.664 17.9539L22.6032 13.7555Z" fill="#468751"/>
<path d="M26.3435 20.8543C26.3435 21.2758 26.0015 21.6176 25.5803 21.6176C25.1587 21.6176 24.8167 21.2758 24.8167 20.8543C24.8167 20.4327 25.1587 20.091 25.5803 20.091C26.0015 20.091 26.3435 20.4327 26.3435 20.8543Z" stroke="white" stroke-width="0.265152" stroke-miterlimit="10" stroke-linecap="round" stroke-linejoin="round"/>
<path d="M25.3257 22.5845L27.0559 21.7703" stroke="white" stroke-width="0.265152" stroke-miterlimit="10" stroke-linecap="round" stroke-linejoin="round"/>
<path d="M21.4072 13.0685C21.3169 13.132 21.2755 13.133 21.2547 13.1193C21.2204 13.0972 21.2386 13.0342 21.2038 13.0176C21.1738 13.0031 21.1177 13.0295 21.1021 13.0685C21.0903 13.0975 21.1277 13.156 21.2038 13.2721C21.2249 13.3046 21.2392 13.3254 21.2547 13.323C21.2858 13.3185 21.3055 13.2213 21.3055 13.2213C21.2976 13.1955 21.3024 13.1784 21.3055 13.1702C21.3219 13.1293 21.3841 13.1048 21.4581 13.1193" fill="#468751"/>
<path d="M21.6108 13.4247C21.5205 13.4882 21.4791 13.4893 21.4583 13.4756C21.4243 13.4534 21.4422 13.3905 21.4074 13.3739C21.3774 13.3594 21.3213 13.3857 21.3057 13.4247C21.2939 13.4537 21.3313 13.5122 21.4074 13.6281C21.4285 13.6608 21.4428 13.6813 21.4583 13.6792C21.4894 13.6748 21.5091 13.5775 21.5091 13.5775C21.5012 13.5515 21.506 13.5346 21.5091 13.5264C21.5255 13.4856 21.5877 13.4611 21.6617 13.4756" fill="#468751"/>
<path d="M21.8087 13.7257C21.7183 13.7892 21.6769 13.7903 21.6561 13.7766C21.6219 13.7545 21.6401 13.6915 21.6053 13.6749C21.5752 13.6604 21.5191 13.6868 21.5036 13.7257C21.4917 13.7545 21.5291 13.8132 21.6053 13.9291C21.6264 13.9618 21.6406 13.9824 21.6561 13.9803C21.6872 13.9755 21.707 13.8786 21.707 13.8786C21.6991 13.8525 21.7038 13.8356 21.707 13.8274C21.7233 13.7866 21.7855 13.7621 21.8595 13.7766" fill="#468751"/>
<path d="M22.3549 12.6693C22.4603 12.6364 22.4864 12.6042 22.4885 12.5794C22.4919 12.5389 22.4308 12.5149 22.4387 12.477C22.4458 12.4443 22.5009 12.4161 22.5415 12.4274C22.5712 12.4356 22.5947 12.5012 22.6405 12.6321C22.6532 12.6688 22.6608 12.6927 22.6497 12.7035C22.6271 12.7254 22.538 12.6817 22.538 12.6817C22.5225 12.6598 22.5062 12.653 22.4977 12.6508C22.4556 12.6387 22.3979 12.673 22.3641 12.7407" fill="#468751"/>
<path d="M22.5129 13.0479C22.6183 13.015 22.6444 12.9828 22.6465 12.9581C22.6499 12.9175 22.5888 12.8935 22.5967 12.8556C22.6038 12.8232 22.6589 12.795 22.6992 12.8061C22.7292 12.8145 22.7527 12.8801 22.7985 13.0108C22.8111 13.0474 22.8188 13.0714 22.8077 13.0822C22.7851 13.1043 22.696 13.0606 22.696 13.0606C22.6805 13.0384 22.6639 13.0319 22.6557 13.0295C22.6133 13.0174 22.5558 13.0516 22.5221 13.1193" fill="#468751"/>
<path d="M22.6305 13.3883C22.7359 13.3554 22.7622 13.3232 22.7641 13.2985C22.7675 13.2579 22.7064 13.2339 22.7146 13.196C22.7217 13.1636 22.7765 13.1354 22.817 13.1464C22.8471 13.1549 22.8705 13.2205 22.9161 13.3514C22.9288 13.3878 22.9364 13.4118 22.9253 13.4226C22.9027 13.4447 22.8136 13.401 22.8136 13.401C22.7981 13.3788 22.7817 13.3722 22.7733 13.3699C22.7312 13.3578 22.6737 13.392 22.6397 13.4597" fill="#468751"/>
<path d="M24.0091 30.6405C24.0091 31.9502 22.9476 33.0117 21.6379 33.0117C20.3281 33.0117 19.2666 31.9502 19.2666 30.6405C19.2666 29.3307 20.3281 28.2692 21.6379 28.2692C22.9476 28.2692 24.0091 29.3307 24.0091 30.6405Z" fill="white"/>
<path d="M24.0091 30.6405C24.0091 31.9502 22.9476 33.0117 21.6379 33.0117C20.3281 33.0117 19.2666 31.9502 19.2666 30.6405C19.2666 29.3307 20.3281 28.2692 21.6379 28.2692C22.9476 28.2692 24.0091 29.3307 24.0091 30.6405Z" stroke="#468751" stroke-width="0.198864" stroke-miterlimit="10"/>
<path d="M19.9629 29.0088L23.2694 32.3157" stroke="#468751" stroke-width="0.198864" stroke-miterlimit="10"/>
<path d="M20.1368 32.446C19.6301 31.4975 19.7927 30.3301 20.5283 29.5744C21.3039 28.7777 22.5496 28.6101 23.5305 29.1829" stroke="#468751" stroke-width="0.198864" stroke-miterlimit="10"/>
<path d="M19.397 30.0531C19.5491 30.0686 19.7833 30.1147 20.0065 30.2707C20.0726 30.3171 20.3084 30.4923 20.5719 31.1407C20.804 31.7122 20.7342 31.8544 20.9199 32.2286C21.0872 32.5653 21.3267 32.8193 21.5725 33.0116" stroke="#468751" stroke-width="0.198864" stroke-miterlimit="10"/>
<path d="M21.0939 28.3562C21.096 28.4874 21.1186 28.7283 21.268 28.9654C21.3752 29.1358 21.507 29.2394 21.6158 29.3134C22.113 29.6523 22.5374 29.6575 23.0085 29.8356C23.2633 29.9321 23.6235 30.1136 24.0089 30.4883" stroke="#468751" stroke-width="0.198864" stroke-miterlimit="10"/>
</svg>
