<svg width="32" height="27" viewBox="0 0 32 27" fill="none" xmlns="http://www.w3.org/2000/svg">
<path d="M21.1308 13.1874C23.1142 13.1883 25.0366 13.8725 26.5742 15.1247C28.1119 16.3769 29.1708 18.1206 29.5725 20.062H12.6891C13.0908 18.1206 14.1497 16.3769 15.6874 15.1247C17.225 13.8725 19.1475 13.1883 21.1308 13.1874ZM21.1308 11.4475C18.5471 11.4476 16.0567 12.4129 14.1483 14.154C12.2399 15.895 11.0513 18.2861 10.8158 20.858C10.8055 20.9783 10.8204 21.0994 10.8595 21.2137C10.8987 21.3279 10.9611 21.4327 11.043 21.5215C11.1248 21.6103 11.2243 21.6811 11.335 21.7293C11.4457 21.7776 11.5653 21.8023 11.6861 21.8019H30.5734C30.6942 21.8023 30.8137 21.7776 30.9244 21.7293C31.0351 21.6811 31.1346 21.6103 31.2165 21.5215C31.2983 21.4327 31.3608 21.3279 31.3999 21.2137C31.439 21.0994 31.4539 20.9783 31.4437 20.858C31.2082 18.2865 30.0199 15.8957 28.1119 14.1547C26.204 12.4137 23.7142 11.4482 21.1308 11.4475Z" fill= "white"/>
<path d="M11.0094 14.8555C13.8692 14.8555 16.1875 12.538 16.1875 9.67938C16.1875 6.8207 13.8692 4.5033 11.0094 4.5033C8.14954 4.5033 5.83118 6.8207 5.83118 9.67938C5.83118 12.538 8.14954 14.8555 11.0094 14.8555Z" fill="white"/>
<path d="M21.2352 1.89138C21.9155 1.89138 22.5805 2.09304 23.1462 2.47086C23.7119 2.84867 24.1528 3.38567 24.4131 4.01396C24.6735 4.64224 24.7416 5.3336 24.6088 6.00058C24.4761 6.66756 24.1485 7.28022 23.6674 7.76109C23.1864 8.24196 22.5735 8.56943 21.9062 8.7021C21.2389 8.83477 20.5473 8.76669 19.9188 8.50644C19.2903 8.2462 18.7531 7.80549 18.3751 7.24005C17.9971 6.6746 17.7954 6.00982 17.7954 5.32977C17.7959 4.41803 18.1585 3.54379 18.8035 2.89909C19.4484 2.25439 20.3231 1.89195 21.2352 1.89138ZM21.2352 0.15152C20.2105 0.15109 19.2087 0.45443 18.3565 1.02316C17.5043 1.59189 16.84 2.40048 16.4475 3.34664C16.0551 4.29281 15.9523 5.33404 16.1519 6.33867C16.3515 7.3433 16.8447 8.26618 17.5691 8.99059C18.2935 9.715 19.2166 10.2084 20.2215 10.4084C21.2265 10.6083 22.2682 10.5059 23.2149 10.1141C24.1616 9.7222 24.9708 9.05849 25.5402 8.20689C26.1095 7.35528 26.4133 6.35403 26.4133 5.32977C26.4133 3.95679 25.8678 2.64001 24.8968 1.66896C23.9258 0.69791 22.6087 0.152097 21.2352 0.15152Z" fill="white"/>
<path d="M11.0094 14.8555C13.8692 14.8555 16.1875 12.538 16.1875 9.67938C16.1875 6.8207 13.8692 4.5033 11.0094 4.5033C8.14954 4.5033 5.83118 6.8207 5.83118 9.67938C5.83118 12.538 8.14954 14.8555 11.0094 14.8555Z" fill="white"/>
<path d="M10.905 15.7972C8.32126 15.7973 5.83083 16.7626 3.92244 18.5036C2.01405 20.2446 0.825464 22.6357 0.589939 25.2077C0.579672 25.328 0.594594 25.4491 0.633708 25.5633C0.672823 25.6775 0.735264 25.7824 0.817124 25.8712C0.898984 25.96 0.998449 26.0307 1.10917 26.079C1.21988 26.1273 1.33943 26.152 1.46022 26.1515H20.3475C20.4683 26.152 20.5879 26.1273 20.6986 26.079C20.8093 26.0307 20.9088 25.96 20.9906 25.8712C21.0725 25.7824 21.1349 25.6775 21.174 25.5633C21.2131 25.4491 21.2281 25.328 21.2178 25.2077C20.9823 22.6361 19.794 20.2453 17.8861 18.5043C15.9782 16.7633 13.4883 15.7978 10.905 15.7972Z" fill="white"/>
<path d="M10.905 15.7972C8.32126 15.7973 5.83083 16.7626 3.92244 18.5036C2.01405 20.2446 0.825464 22.6357 0.589939 25.2077C0.579672 25.328 0.594594 25.4491 0.633708 25.5633C0.672823 25.6775 0.735264 25.7824 0.817124 25.8712C0.898984 25.96 0.998449 26.0307 1.10917 26.079C1.21988 26.1273 1.33943 26.152 1.46022 26.1515H20.3475C20.4683 26.152 20.5879 26.1273 20.6986 26.079C20.8093 26.0307 20.9088 25.96 20.9906 25.8712C21.0725 25.7824 21.1349 25.6775 21.174 25.5633C21.2131 25.4491 21.2281 25.328 21.2178 25.2077C20.9823 22.6361 19.794 20.2453 17.8861 18.5043C15.9782 16.7633 13.4883 15.7978 10.905 15.7972Z" fill="white"/>
</svg>
