<svg width="15" height="13" viewBox="0 0 15 13" fill="none" xmlns="http://www.w3.org/2000/svg">
<path d="M2.59424 1.44444C2.59424 2.24171 2.01358 2.88889 1.29712 2.88889C0.581171 2.88889 0 2.24171 0 1.44444C0 0.646615 0.581171 0 1.29712 0C2.01358 0 2.59424 0.646615 2.59424 1.44444Z" fill="#002642"/>
<path d="M14.1356 2.556H4.9691C4.4913 2.556 4.10419 2.05891 4.10419 1.44445C4.10419 0.83 4.4913 0.332344 4.9691 0.332344H14.1356C14.6129 0.332344 15 0.83 15 1.44445C15 2.05891 14.6129 2.556 14.1356 2.556Z" fill="#002642"/>
<path d="M2.59424 6.49999C2.59424 7.29726 2.01358 7.94444 1.29712 7.94444C0.581171 7.94444 0 7.29726 0 6.49999C0 5.70216 0.581171 5.05555 1.29712 5.05555C2.01358 5.05555 2.59424 5.70216 2.59424 6.49999Z" fill="#002642"/>
<path d="M14.1356 7.61155H4.9691C4.4913 7.61155 4.10419 7.11446 4.10419 6.5C4.10419 5.88555 4.4913 5.38789 4.9691 5.38789H14.1356C14.6129 5.38789 15 5.88555 15 6.5C15 7.11446 14.6129 7.61155 14.1356 7.61155Z" fill="#002642"/>
<path d="M2.59424 11.5555C2.59424 12.3528 2.01358 13 1.29712 13C0.581171 13 0 12.3528 0 11.5555C0 10.7577 0.581171 10.1111 1.29712 10.1111C2.01358 10.1111 2.59424 10.7577 2.59424 11.5555Z" fill="#002642"/>
<path d="M14.1356 12.6671H4.9691C4.4913 12.6671 4.10419 12.17 4.10419 11.5555C4.10419 10.9411 4.4913 10.4434 4.9691 10.4434H14.1356C14.6129 10.4434 15 10.9411 15 11.5555C15 12.17 14.6129 12.6671 14.1356 12.6671Z" fill="#002642"/>
</svg>
