<svg width="22" height="22" viewBox="0 0 22 22" fill="none" xmlns="http://www.w3.org/2000/svg">
<path d="M11 21.001C16.5228 21.001 21 16.5239 21 11.001C21 5.47816 16.5228 1.00101 11 1.00101C5.47715 1.00101 1 5.47816 1 11.001C1 16.5239 5.47715 21.001 11 21.001Z" stroke="#002642" stroke-width="2" stroke-miterlimit="10"/>
<path d="M16.9157 6.99244C16.788 6.84783 16.6319 6.73092 16.4572 6.64892C16.2825 6.56693 16.0929 6.52159 15.9 6.5157C15.7071 6.50981 15.5151 6.5435 15.3357 6.61468C15.1564 6.68586 14.9935 6.79303 14.8571 6.92958L11.8571 9.92958L8.85715 12.9296L8.35715 13.4296L6.32 11.3924C6.06432 11.13 5.71856 10.9745 5.3526 10.9573C4.98664 10.94 4.62779 11.0624 4.34857 11.2996C4.20396 11.4273 4.08705 11.5834 4.00506 11.7581C3.92306 11.9328 3.87773 12.1224 3.87184 12.3153C3.86595 12.5082 3.89963 12.7002 3.97081 12.8796C4.042 13.0589 4.14917 13.2218 4.28572 13.3582L6.49429 15.5724L7.84286 16.921C7.97279 17.0556 8.15033 17.1338 8.33732 17.1389C8.5243 17.1439 8.70582 17.0755 8.84286 16.9481L8.85572 16.9353L10.8557 14.9353L13.8557 11.9353L16.8171 8.97387C17.0826 8.71813 17.2405 8.37081 17.2589 8.00268C17.2772 7.63454 17.1545 7.27326 16.9157 6.99244Z" fill="#002642"/>
</svg>
