<svg width="41" height="20" viewBox="0 0 41 20" fill="none" xmlns="http://www.w3.org/2000/svg">
<g filter="url(#filter0_d)">
<path d="M8.81509 9.922C9.23042 9.922 9.60142 9.852 9.92809 9.712C10.2548 9.572 10.5301 9.376 10.7541 9.124C10.9828 8.872 11.1554 8.571 11.2721 8.221C11.3934 7.871 11.4541 7.486 11.4541 7.066V0.968999H12.8051V7.066C12.8051 7.64467 12.7118 8.18133 12.5251 8.676C12.3431 9.17067 12.0794 9.6 11.7341 9.964C11.3934 10.3233 10.9758 10.6057 10.4811 10.811C9.98642 11.0163 9.43109 11.119 8.81509 11.119C8.19909 11.119 7.64375 11.0163 7.14909 10.811C6.65442 10.6057 6.23442 10.3233 5.88909 9.964C5.54375 9.6 5.27775 9.17067 5.09109 8.676C4.90909 8.18133 4.81809 7.64467 4.81809 7.066V0.968999H6.16909V7.059C6.16909 7.479 6.22742 7.864 6.34409 8.214C6.46542 8.564 6.63809 8.865 6.86209 9.117C7.09075 9.369 7.36842 9.56733 7.69509 9.712C8.02642 9.852 8.39975 9.922 8.81509 9.922ZM15.9159 4.938C16.0699 4.76533 16.2333 4.609 16.4059 4.469C16.5786 4.329 16.7606 4.21 16.9519 4.112C17.1479 4.00933 17.3533 3.93233 17.5679 3.881C17.7873 3.825 18.0229 3.797 18.2749 3.797C18.6623 3.797 19.0029 3.86233 19.2969 3.993C19.5956 4.119 19.8429 4.301 20.0389 4.539C20.2396 4.77233 20.3913 5.05467 20.4939 5.386C20.5966 5.71733 20.6479 6.08367 20.6479 6.485V11H19.3949V6.485C19.3949 5.94833 19.2713 5.533 19.0239 5.239C18.7813 4.94033 18.4103 4.791 17.9109 4.791C17.5423 4.791 17.1969 4.87967 16.8749 5.057C16.5576 5.23433 16.2636 5.47467 15.9929 5.778V11H14.7399V3.909H15.4889C15.6663 3.909 15.7759 3.99533 15.8179 4.168L15.9159 4.938ZM27.1666 5.596C26.9332 5.28333 26.6812 5.06633 26.4106 4.945C26.1399 4.819 25.8366 4.756 25.5006 4.756C24.8426 4.756 24.3362 4.99167 23.9816 5.463C23.6269 5.93433 23.4496 6.60633 23.4496 7.479C23.4496 7.941 23.4892 8.33767 23.5686 8.669C23.6479 8.99567 23.7646 9.26633 23.9186 9.481C24.0726 9.691 24.2616 9.845 24.4856 9.943C24.7096 10.041 24.9639 10.09 25.2486 10.09C25.6592 10.09 26.0162 9.99667 26.3196 9.81C26.6276 9.62333 26.9099 9.35967 27.1666 9.019V5.596ZM28.4126 0.689V11H27.6706C27.4932 11 27.3812 10.9137 27.3346 10.741L27.2226 9.88C26.9192 10.244 26.5739 10.538 26.1866 10.762C25.7992 10.986 25.3512 11.098 24.8426 11.098C24.4366 11.098 24.0679 11.021 23.7366 10.867C23.4052 10.7083 23.1229 10.4773 22.8896 10.174C22.6562 9.87067 22.4766 9.49267 22.3506 9.04C22.2246 8.58733 22.1616 8.067 22.1616 7.479C22.1616 6.95633 22.2316 6.471 22.3716 6.023C22.5116 5.57033 22.7122 5.17833 22.9736 4.847C23.2349 4.51567 23.5546 4.25667 23.9326 4.07C24.3152 3.87867 24.7446 3.783 25.2206 3.783C25.6546 3.783 26.0256 3.85767 26.3336 4.007C26.6462 4.15167 26.9239 4.35467 27.1666 4.616V0.689H28.4126ZM33.3696 3.797C33.8876 3.797 34.3542 3.88333 34.7696 4.056C35.1849 4.22867 35.5396 4.47367 35.8336 4.791C36.1276 5.10833 36.3516 5.49333 36.5056 5.946C36.6642 6.394 36.7436 6.89567 36.7436 7.451C36.7436 8.011 36.6642 8.515 36.5056 8.963C36.3516 9.411 36.1276 9.79367 35.8336 10.111C35.5396 10.4283 35.1849 10.6733 34.7696 10.846C34.3542 11.014 33.8876 11.098 33.3696 11.098C32.8469 11.098 32.3756 11.014 31.9556 10.846C31.5402 10.6733 31.1856 10.4283 30.8916 10.111C30.5976 9.79367 30.3712 9.411 30.2126 8.963C30.0586 8.515 29.9816 8.011 29.9816 7.451C29.9816 6.89567 30.0586 6.394 30.2126 5.946C30.3712 5.49333 30.5976 5.10833 30.8916 4.791C31.1856 4.47367 31.5402 4.22867 31.9556 4.056C32.3756 3.88333 32.8469 3.797 33.3696 3.797ZM33.3696 10.125C34.0696 10.125 34.5922 9.89167 34.9376 9.425C35.2829 8.95367 35.4556 8.298 35.4556 7.458C35.4556 6.61333 35.2829 5.95533 34.9376 5.484C34.5922 5.01267 34.0696 4.777 33.3696 4.777C33.0149 4.777 32.7046 4.83767 32.4386 4.959C32.1772 5.08033 31.9579 5.25533 31.7806 5.484C31.6079 5.71267 31.4772 5.995 31.3886 6.331C31.3046 6.66233 31.2626 7.038 31.2626 7.458C31.2626 8.298 31.4352 8.95367 31.7806 9.425C32.1306 9.89167 32.6602 10.125 33.3696 10.125Z" fill="white"/>
</g>
<defs>
<filter id="filter0_d" x="0.818085" y="0.688995" width="39.9255" height="18.43" filterUnits="userSpaceOnUse" color-interpolation-filters="sRGB">
<feFlood flood-opacity="0" result="BackgroundImageFix"/>
<feColorMatrix in="SourceAlpha" type="matrix" values="0 0 0 0 0 0 0 0 0 0 0 0 0 0 0 0 0 0 127 0" result="hardAlpha"/>
<feOffset dy="4"/>
<feGaussianBlur stdDeviation="2"/>
<feComposite in2="hardAlpha" operator="out"/>
<feColorMatrix type="matrix" values="0 0 0 0 0 0 0 0 0 0 0 0 0 0 0 0 0 0 0.25 0"/>
<feBlend mode="normal" in2="BackgroundImageFix" result="effect1_dropShadow"/>
<feBlend mode="normal" in="SourceGraphic" in2="effect1_dropShadow" result="shape"/>
</filter>
</defs>
</svg>
