<svg width="39" height="39" viewBox="0 0 39 39" fill="none" xmlns="http://www.w3.org/2000/svg">
<path d="M13.6499 0C8.26512 0 3.8999 4.85025 3.8999 10.8333C3.8999 16.8164 8.26512 21.6667 13.6499 21.6667C19.0347 21.6667 23.3999 16.8164 23.3999 10.8333C23.3999 4.85025 19.0347 0 13.6499 0ZM7.7999 10.8333C7.7999 7.24348 10.419 4.33333 13.6499 4.33333C16.8808 4.33333 19.4999 7.24348 19.4999 10.8333C19.4999 14.4232 16.8808 17.3333 13.6499 17.3333C10.419 17.3333 7.7999 14.4232 7.7999 10.8333Z" fill="#58B994"/>
<path d="M29.0714 11.3064C28.5228 10.9956 27.9158 10.8336 27.3 10.8336V6.50024C28.5316 6.50024 29.7457 6.82417 30.8429 7.44575C30.9638 7.51421 31.0828 7.58607 31.2 7.66122C32.1465 8.26841 32.969 9.09077 33.6127 10.0763C34.3361 11.1838 34.8132 12.466 35.0049 13.8177C35.1966 15.1695 35.0975 16.5525 34.7157 17.8535C34.3339 19.1546 33.6802 20.3367 32.8082 21.303C31.9362 22.2694 30.8706 22.9926 29.6987 23.4135C28.6558 23.7879 27.5551 23.9135 26.4684 23.784C26.3339 23.768 26.1996 23.7481 26.0657 23.7242C24.8504 23.5078 23.6985 22.975 22.7041 22.1692L22.7021 22.1676L25.001 18.6672C25.4985 19.0705 26.0748 19.3371 26.6829 19.4454C27.2909 19.5536 27.9134 19.5004 28.4993 19.29C29.0852 19.0796 29.618 18.718 30.054 18.2348C30.49 17.7516 30.8168 17.1606 31.0077 16.5101C31.1986 15.8596 31.2482 15.1681 31.1523 14.4923C31.0565 13.8164 30.818 13.1754 30.4563 12.6216C30.0946 12.0679 29.62 11.6172 29.0714 11.3064Z" fill="#58B994"/>
<path d="M35.0961 39C35.0961 37.8624 34.8944 36.736 34.5026 35.685C34.1108 34.634 33.5366 33.679 32.8126 32.8746C32.0887 32.0703 31.2292 31.4322 30.2833 30.9968C29.3374 30.5615 28.3236 30.3374 27.2998 30.3374V26C28.6299 26 29.9486 26.252 31.1998 26.7435C31.394 26.8198 31.5865 26.9018 31.7772 26.9896C33.1967 27.6429 34.4865 28.6005 35.573 29.8076C36.6594 31.0148 37.5212 32.4479 38.1092 34.0251C38.1882 34.237 38.262 34.4509 38.3307 34.6667C38.773 36.0568 38.9998 37.5222 38.9998 39H35.0961Z" fill="#58B994"/>
<path d="M27.3 39H23.4C23.4 33.0169 19.0348 28.1667 13.65 28.1667C8.26522 28.1667 3.9 33.0169 3.9 39H0C0 30.6237 6.11131 23.8333 13.65 23.8333C21.1887 23.8333 27.3 30.6237 27.3 39Z" fill="#58B994"/>
</svg>
