<svg width="23" height="23" viewBox="0 0 23 23" fill="none" xmlns="http://www.w3.org/2000/svg">
<path d="M22.5688 20.4866L17.8804 15.7982C17.8246 15.7435 17.765 15.693 17.7018 15.6471C19.1742 13.6561 19.8395 11.182 19.564 8.72101C19.2886 6.26006 18.0928 3.99425 16.2167 2.37805C14.3405 0.761852 11.9226 -0.0852055 9.44797 0.00677772C6.97336 0.098761 4.62503 1.12298 2.87401 2.87401C1.12298 4.62503 0.098761 6.97336 0.00677772 9.44797C-0.0852055 11.9226 0.761852 14.3405 2.37805 16.2167C3.99425 18.0928 6.26006 19.2886 8.72101 19.564C11.182 19.8395 13.6561 19.1742 15.6471 17.7018C15.693 17.765 15.7435 17.8246 15.7982 17.8804L20.4866 22.5688C20.7627 22.8449 21.1372 23 21.5277 23C21.9181 23 22.2926 22.8449 22.5688 22.5688C22.8449 22.2926 23 21.9181 23 21.5277C23 21.1372 22.8449 20.7627 22.5688 20.4866ZM9.81258 16.6813C8.45407 16.6813 7.12608 16.2784 5.99652 15.5237C4.86697 14.769 3.98659 13.6962 3.46671 12.4411C2.94684 11.186 2.81081 9.80496 3.07584 8.47256C3.34087 7.14016 3.99506 5.91627 4.95566 4.95566C5.91627 3.99506 7.14016 3.34087 8.47256 3.07584C9.80496 2.81081 11.186 2.94684 12.4411 3.46671C13.6962 3.98659 14.769 4.86697 15.5237 5.99652C16.2784 7.12608 16.6813 8.45407 16.6813 9.81258C16.6813 11.6343 15.9576 13.3814 14.6695 14.6695C13.3814 15.9576 11.6343 16.6813 9.81258 16.6813Z" fill="#FAFAF4"/>
</svg>
