<?xml version="1.0" standalone="no"?>
<!DOCTYPE svg PUBLIC "-//W3C//DTD SVG 20010904//EN"
 "http://www.w3.org/TR/2001/REC-SVG-20010904/DTD/svg10.dtd">
<svg version="1.0" xmlns="http://www.w3.org/2000/svg"
 width="512.000000pt" height="512.000000pt" viewBox="0 0 512.000000 512.000000"
 preserveAspectRatio="xMidYMid meet">
<metadata>
Created by potrace 1.16, written by Peter Selinger 2001-2019
</metadata>
<g transform="translate(0.000000,512.000000) scale(0.100000,-0.100000)"
fill="#000000" stroke="none">
<path d="M1280 5097 c-29 -15 -55 -40 -74 -70 -27 -44 -29 -56 -34 -172 l-5
-125 -132 0 c-226 0 -395 -43 -560 -144 -213 -128 -365 -326 -442 -572 l-28
-89 -3 -1515 c-2 -1118 0 -1535 9 -1590 27 -177 120 -365 247 -501 131 -140
272 -228 457 -286 l90 -28 1750 0 1750 0 79 23 c110 32 204 73 289 128 100 64
250 220 310 320 57 97 111 242 126 344 9 55 11 472 9 1590 l-3 1515 -28 90
c-116 370 -413 635 -784 700 -47 8 -145 15 -218 15 l-132 0 -5 125 c-5 116 -7
128 -34 172 -42 68 -99 96 -185 91 -75 -4 -120 -28 -160 -86 -22 -32 -24 -47
-27 -169 l-4 -133 -978 0 -978 0 -4 133 c-3 122 -5 137 -27 169 -40 58 -85 82
-160 86 -55 3 -74 -1 -111 -21z m-110 -967 c0 -234 8 -277 64 -335 94 -98 256
-78 323 40 22 38 23 51 23 263 l0 222 980 0 980 0 0 -222 c0 -212 1 -225 23
-263 67 -118 229 -138 323 -40 56 58 64 101 64 335 l0 190 123 0 c239 0 399
-71 519 -231 88 -118 116 -208 125 -405 l6 -134 -2163 0 -2163 0 6 134 c6 143
24 232 62 305 35 70 98 149 156 197 121 99 228 133 422 133 l127 1 0 -190z
m3548 -2112 c-3 -1055 -5 -1126 -22 -1178 -53 -160 -160 -294 -291 -362 -140
-73 -8 -68 -1845 -68 -1837 0 -1705 -5 -1845 68 -131 68 -238 202 -291 362
-17 52 -19 123 -22 1178 l-3 1122 2161 0 2161 0 -3 -1122z"/>
<path d="M1100 2549 c-99 -39 -150 -181 -101 -278 26 -50 82 -98 123 -106 18
-3 146 -5 285 -3 l251 3 39 31 c50 39 83 105 83 164 -1 80 -55 164 -123 189
-36 14 -522 14 -557 0z"/>
<path d="M2275 2546 c-38 -17 -91 -72 -104 -109 -15 -39 -14 -121 2 -160 19
-44 89 -105 129 -112 18 -3 146 -5 285 -3 l251 3 39 31 c109 87 109 241 0 328
l-39 31 -266 2 c-209 2 -274 0 -297 -11z"/>
<path d="M3455 2546 c-40 -18 -80 -62 -99 -108 -35 -83 -7 -183 67 -242 l39
-31 251 -3 c139 -2 267 0 285 3 41 8 97 57 124 108 31 61 23 153 -18 203 -66
81 -54 79 -352 81 -208 2 -274 0 -297 -11z"/>
<path d="M1127 1376 c-54 -15 -112 -64 -133 -113 -20 -47 -18 -127 5 -172 26
-50 82 -98 123 -106 18 -3 146 -5 285 -3 l251 3 39 31 c50 39 83 105 83 164
-1 80 -54 162 -125 191 -45 19 -465 23 -528 5z"/>
<path d="M2318 1381 c-48 -10 -99 -45 -129 -89 -20 -30 -24 -48 -24 -113 0
-71 2 -80 31 -115 65 -81 54 -79 349 -82 245 -3 267 -2 302 17 48 24 78 56 98
103 41 101 -10 228 -110 269 -34 15 -456 23 -517 10z"/>
<path d="M3535 1385 c-5 -2 -27 -6 -48 -10 -21 -3 -53 -20 -74 -38 -100 -88
-95 -237 10 -321 l39 -31 278 0 278 0 39 31 c73 58 104 166 70 247 -22 51 -87
103 -146 116 -46 10 -420 15 -446 6z"/>
</g>
</svg>
