<?xml version="1.0" standalone="no"?>
<!DOCTYPE svg PUBLIC "-//W3C//DTD SVG 20010904//EN"
 "http://www.w3.org/TR/2001/REC-SVG-20010904/DTD/svg10.dtd">
<svg version="1.0" xmlns="http://www.w3.org/2000/svg"
 width="512.000000pt" height="512.000000pt" viewBox="0 0 512.000000 512.000000"
 preserveAspectRatio="xMidYMid meet">
<metadata>
Created by potrace 1.16, written by Peter Selinger 2001-2019
</metadata>
<g transform="translate(0.000000,512.000000) scale(0.100000,-0.100000)"
fill="#000000" stroke="none">
<path d="M2389 4487 c-132 -45 -235 -127 -304 -242 -55 -92 -75 -169 -75 -291
l0 -103 -42 -11 c-184 -48 -334 -106 -498 -191 -220 -115 -404 -252 -586 -435
-383 -385 -615 -884 -669 -1436 l-7 -68 -55 0 c-66 0 -111 -24 -138 -73 -15
-29 -17 -50 -12 -148 7 -136 31 -228 92 -354 116 -236 338 -420 600 -497 l80
-23 1780 0 1780 0 89 28 c410 128 696 492 696 885 0 68 -4 93 -19 116 -31 47
-69 66 -133 66 -34 0 -58 4 -58 10 0 40 -25 222 -41 305 -118 590 -452 1102
-948 1459 -215 154 -511 291 -768 356 l-43 11 0 107 c0 84 -5 121 -23 173 -61
180 -196 309 -376 363 -83 25 -239 21 -322 -7z m274 -308 c85 -43 130 -110
141 -214 l7 -60 -251 0 -251 0 7 60 c16 145 108 234 242 235 45 0 75 -6 105
-21z m137 -590 c368 -44 710 -185 1015 -418 85 -64 256 -233 327 -320 257
-319 404 -672 453 -1088 l6 -53 -2041 0 -2041 0 6 53 c47 401 180 731 424
1052 64 84 232 256 320 327 439 354 984 513 1531 447z m1986 -2206 c-4 -16
-23 -62 -44 -103 -55 -111 -178 -233 -292 -289 -171 -83 -6 -76 -1900 -76
-1588 0 -1689 1 -1750 18 -212 58 -392 223 -460 421 l-19 56 2236 0 2235 0 -6
-27z"/>
</g>
</svg>
