<?xml version="1.0" standalone="no"?>
<!DOCTYPE svg PUBLIC "-//W3C//DTD SVG 20010904//EN"
 "http://www.w3.org/TR/2001/REC-SVG-20010904/DTD/svg10.dtd">
<svg version="1.0" xmlns="http://www.w3.org/2000/svg"
 width="512.000000pt" height="512.000000pt" viewBox="0 0 512.000000 512.000000"
 preserveAspectRatio="xMidYMid meet">
<metadata>
Created by potrace 1.16, written by Peter Selinger 2001-2019
</metadata>
<g transform="translate(0.000000,512.000000) scale(0.100000,-0.100000)"
fill="#000000" stroke="none">
<path d="M1810 5114 c-14 -2 -59 -9 -100 -15 -176 -25 -415 -101 -580 -184
-587 -295 -982 -823 -1107 -1480 -24 -127 -29 -474 -9 -615 65 -450 264 -848
583 -1166 485 -482 1170 -686 1841 -548 281 58 570 187 792 353 l65 49 740
-738 c472 -470 753 -743 777 -753 54 -25 145 -22 199 6 68 36 103 93 107 176
3 51 0 79 -13 107 -12 26 -257 279 -756 779 l-738 740 25 30 c49 60 140 202
190 300 133 254 203 507 225 807 43 575 -171 1145 -585 1561 -315 316 -716
518 -1157 582 -97 14 -425 19 -499 9z m473 -449 c512 -81 970 -430 1188 -903
282 -612 156 -1316 -321 -1792 -626 -627 -1626 -626 -2251 2 -238 240 -389
535 -446 870 -19 115 -21 375 -4 478 63 371 216 669 472 916 277 266 611 416
999 448 74 6 269 -4 363 -19z"/>
</g>
</svg>
