<?xml version="1.0" standalone="no"?>
<!DOCTYPE svg PUBLIC "-//W3C//DTD SVG 20010904//EN"
 "http://www.w3.org/TR/2001/REC-SVG-20010904/DTD/svg10.dtd">
<svg version="1.0" xmlns="http://www.w3.org/2000/svg"
 width="660.000000pt" height="1174.000000pt" viewBox="0 0 660.000000 1174.000000"
 preserveAspectRatio="xMidYMid meet">

<g transform="translate(0.000000,1174.000000) scale(0.100000,-0.100000)"
fill="#000000" stroke="none">
<path d="M5808 11370 c-61 -32 -92 -82 -96 -155 -4 -63 9 -106 47 -149 46 -52
159 -73 223 -40 l31 16 51 -51 c53 -52 82 -63 93 -35 4 10 -12 34 -48 70 l-53
54 17 35 c40 85 8 196 -71 246 -57 36 -136 39 -194 9z m149 -49 c104 -48 102
-196 -4 -243 -39 -17 -52 -19 -83 -9 -78 23 -118 86 -104 161 8 37 63 97 96
103 42 8 53 7 95 -12z"/>
<path d="M1598 11369 c-38 -21 -11 -74 34 -67 26 3 37 41 18 64 -14 16 -28 17
-52 3z"/>
<path d="M1070 11164 l0 -195 38 3 37 3 3 78 3 77 74 0 75 0 0 35 0 35 -75 0
-75 0 0 45 0 45 85 0 85 0 0 35 0 35 -125 0 -125 0 0 -196z"/>
<path d="M2560 11290 c0 -38 -2 -70 -5 -70 -3 0 -14 9 -25 20 -31 31 -92 27
-132 -9 -30 -27 -33 -34 -36 -102 -2 -61 1 -80 17 -107 36 -57 101 -68 150
-26 l31 26 0 -26 c0 -23 4 -26 35 -26 l35 0 0 195 0 195 -35 0 -35 0 0 -70z
m-33 -98 c38 -24 39 -120 0 -147 -29 -20 -43 -19 -67 5 -26 26 -28 105 -3 132
17 19 49 23 70 10z"/>
<path d="M545 11233 c-38 -30 -71 -59 -73 -63 -2 -5 32 -36 75 -70 48 -38 79
-57 82 -49 4 12 -7 24 -84 84 l-38 31 61 48 c34 27 62 55 62 62 0 22 -11 17
-85 -43z"/>
<path d="M1370 11114 l0 -145 38 3 37 3 5 100 c5 94 6 100 30 112 14 7 33 10
43 7 14 -4 17 1 17 30 0 32 -3 36 -27 36 -15 0 -37 -10 -50 -22 l-23 -21 0 21
c0 18 -6 22 -35 22 l-35 0 0 -146z"/>
<path d="M1582 11118 l3 -143 38 -3 37 -3 0 145 0 146 -40 0 -41 0 3 -142z"/>
<path d="M1779 11243 c-104 -64 -73 -251 43 -270 74 -12 158 26 158 72 0 20
-63 21 -80 0 -19 -23 -76 -19 -94 7 -31 44 -23 48 85 48 l102 0 -7 41 c-7 45
-36 93 -66 109 -29 15 -112 11 -141 -7z m119 -56 c6 -5 12 -16 12 -23 0 -10
-16 -14 -60 -14 -58 0 -60 1 -50 21 19 35 63 43 98 16z"/>
<path d="M2040 11114 l0 -145 38 3 37 3 3 96 c2 82 6 99 23 115 15 14 25 16
47 8 27 -9 27 -11 32 -114 l5 -105 38 -3 37 -3 0 115 c0 109 -1 116 -26 145
-22 26 -33 31 -70 31 -36 0 -50 -5 -69 -26 l-25 -27 0 27 c0 23 -4 26 -35 26
l-35 0 0 -146z"/>
<path d="M2734 11241 c-36 -22 -46 -57 -28 -100 10 -23 23 -32 56 -42 24 -6
54 -15 68 -19 15 -4 25 -14 25 -26 0 -25 -72 -34 -81 -10 -7 18 -84 23 -84 5
0 -43 57 -79 125 -79 79 0 125 36 125 98 0 39 -25 59 -90 73 -30 7 -62 19 -70
26 -13 13 -13 16 4 29 25 18 50 18 66 -1 7 -9 29 -15 51 -15 38 0 38 1 27 26
-7 14 -24 32 -39 40 -40 20 -118 18 -155 -5z"/>
<path d="M3102 11198 c-28 -28 -7 -78 33 -78 27 0 45 18 45 45 0 27 -18 45
-45 45 -12 0 -26 -5 -33 -12z"/>
<path d="M4029 10268 c-8 -24 -14 -68 -13 -98 0 -58 19 -130 34 -130 5 0 2 16
-6 35 -17 43 -18 147 0 198 8 20 10 37 6 37 -4 0 -13 -19 -21 -42z"/>
<path d="M4255 10295 c29 -89 29 -169 0 -239 -6 -13 -5 -17 2 -13 36 22 41
186 8 243 -9 16 -13 20 -10 9z"/>
<path d="M730 10189 c0 -71 4 -108 10 -104 6 3 10 24 10 46 0 39 0 39 39 39
55 0 78 26 72 80 -4 28 -42 50 -87 50 l-44 0 0 -111z m106 80 c19 -15 18 -54
-2 -73 -8 -9 -31 -16 -50 -16 l-34 0 0 56 0 57 36 -6 c20 -3 42 -11 50 -18z"/>
<path d="M1360 10260 c0 -40 0 -40 -24 -25 -68 45 -127 -72 -69 -137 23 -25
83 -21 83 5 0 7 -4 7 -12 -1 -31 -31 -78 3 -78 57 0 48 16 71 50 71 37 0 54
-29 48 -79 -3 -20 -2 -45 3 -56 4 -12 8 26 8 93 1 61 -1 112 -4 112 -3 0 -5
-18 -5 -40z"/>
<path d="M1937 10293 c-11 -10 -8 -201 3 -208 6 -4 10 13 10 44 l0 51 45 0
c25 0 45 5 45 10 0 6 -20 10 -45 10 l-45 0 0 44 0 45 53 4 52 3 -56 2 c-31 1
-59 -1 -62 -5z"/>
<path d="M2728 10294 c-5 -4 -8 -22 -8 -41 0 -33 0 -33 -24 -18 -19 13 -28 13
-50 4 -14 -7 -29 -21 -32 -33 -12 -35 -5 -88 12 -107 19 -21 69 -26 80 -8 4 8
9 7 15 -2 16 -26 20 -1 17 106 -2 59 -6 103 -10 99z m-18 -83 c38 -72 -30
-162 -74 -99 -34 48 -14 118 34 118 19 0 33 -7 40 -19z"/>
<path d="M2880 10190 c0 -67 4 -110 10 -110 6 0 10 20 10 45 0 43 1 45 30 45
24 0 34 -8 56 -45 33 -56 43 -52 14 5 -20 39 -20 43 -4 61 44 48 4 109 -72
109 l-44 0 0 -110z m98 84 c24 -17 29 -53 10 -72 -7 -7 -29 -12 -50 -12 l-38
0 0 50 c0 48 1 50 28 50 15 0 38 -7 50 -16z"/>
<path d="M1430 10279 c0 -5 5 -7 10 -4 6 3 10 8 10 11 0 2 -4 4 -10 4 -5 0
-10 -5 -10 -11z"/>
<path d="M2200 10280 c0 -5 5 -10 10 -10 6 0 10 5 10 10 0 6 -4 10 -10 10 -5
0 -10 -4 -10 -10z"/>
<path d="M3911 10263 c-1 -12 -7 -24 -13 -26 -10 -4 -10 -6 0 -6 8 -1 12 -21
12 -64 0 -63 11 -87 39 -87 11 0 9 5 -7 16 -19 13 -22 24 -22 75 0 54 2 59 23
60 20 0 20 1 3 8 -11 4 -23 16 -27 27 -7 18 -8 18 -8 -3z"/>
<path d="M942 10240 c-24 -10 -42 -46 -42 -84 0 -34 37 -76 66 -76 30 0 64 17
64 31 0 6 -10 3 -22 -5 -12 -9 -30 -16 -39 -16 -17 0 -59 44 -59 61 0 5 29 9
65 9 39 0 65 4 65 10 0 18 -30 70 -39 70 -5 0 -15 2 -23 4 -7 3 -23 1 -36 -4z
m66 -22 c7 -7 12 -20 12 -30 0 -15 -9 -18 -55 -18 -56 0 -62 9 -32 48 12 15
59 16 75 0z"/>
<path d="M1117 10239 c-9 -5 -22 -7 -27 -4 -6 4 -9 -24 -9 -77 l2 -83 7 65 c8
80 13 90 50 90 37 0 42 -10 50 -90 l7 -65 2 68 c1 55 -3 71 -19 87 -22 22 -37
24 -63 9z"/>
<path d="M1537 10239 c-9 -6 -22 -7 -27 -4 -6 4 -9 -24 -8 -77 l1 -83 6 67 c7
76 17 91 57 86 29 -3 29 -4 32 -75 2 -40 7 -73 12 -73 15 0 12 124 -2 142 -17
22 -49 29 -71 17z"/>
<path d="M1693 10235 c-12 -9 -25 -32 -29 -51 -13 -71 40 -123 91 -90 l26 17
-3 -33 c-4 -39 -45 -61 -78 -40 -27 16 -35 15 -20 -3 14 -17 62 -20 91 -5 17
10 19 22 18 113 0 56 -3 96 -6 90 -4 -10 -10 -10 -26 2 -27 19 -37 19 -64 0z
m71 -27 c18 -26 20 -61 6 -89 -13 -23 -62 -26 -81 -3 -16 19 -15 79 1 99 18
22 57 18 74 -7z"/>
<path d="M2141 10241 c-8 -5 -20 -7 -28 -4 -10 4 -13 -12 -13 -76 0 -101 18
-108 22 -8 3 66 5 72 26 75 12 2 22 8 22 13 0 11 -11 11 -29 0z"/>
<path d="M2303 10238 c-45 -22 -54 -98 -16 -140 27 -31 103 -19 103 16 0 5 -8
2 -18 -7 -24 -22 -55 -21 -75 1 -34 38 -22 52 43 52 54 0 60 2 60 20 0 23 -42
70 -62 69 -7 0 -23 -5 -35 -11z m71 -30 c24 -34 20 -38 -39 -38 -57 0 -63 6
-45 41 15 27 64 25 84 -3z"/>
<path d="M2481 10241 c-8 -5 -20 -7 -28 -4 -10 4 -13 -12 -13 -76 0 -47 4 -81
10 -81 6 0 10 26 10 59 0 78 6 91 40 91 37 0 44 -12 51 -90 l6 -65 1 72 c2 64
0 74 -20 87 -26 18 -37 19 -57 7z"/>
<path d="M3093 10238 c-45 -22 -54 -98 -16 -140 27 -31 103 -19 103 16 0 5 -8
2 -18 -7 -24 -22 -55 -21 -75 1 -34 38 -22 52 43 52 54 0 60 2 60 20 0 23 -42
70 -62 69 -7 0 -23 -5 -35 -11z m71 -30 c24 -34 20 -38 -39 -38 -57 0 -63 6
-45 41 15 27 64 25 84 -3z"/>
<path d="M3264 10240 c-43 -17 -52 -101 -16 -142 17 -21 62 -24 80 -6 9 9 12
3 12 -30 0 -23 5 -42 10 -42 6 0 10 43 10 110 0 67 -4 110 -10 110 -5 0 -10
-5 -10 -11 0 -5 -10 -3 -22 5 -25 18 -25 18 -54 6z m66 -29 c25 -47 1 -121
-38 -121 -28 0 -52 32 -52 67 0 50 16 73 50 73 19 0 33 -7 40 -19z"/>
<path d="M3613 10240 c-67 -27 -48 -160 23 -160 30 0 64 17 64 31 0 5 -11 2
-25 -7 -32 -21 -68 -12 -83 21 -7 14 -12 28 -12 30 0 3 29 5 65 5 39 0 65 4
65 10 0 18 -30 70 -39 70 -5 0 -15 2 -23 4 -7 3 -23 1 -35 -4z m67 -29 c18
-35 12 -41 -45 -41 -56 0 -62 9 -32 48 15 19 65 15 77 -7z"/>
<path d="M3773 10240 c-15 -6 -23 -18 -23 -34 0 -27 9 -36 55 -51 16 -5 31
-18 33 -29 7 -35 -44 -49 -73 -20 -9 9 -18 14 -21 11 -11 -10 29 -37 56 -37
28 0 60 22 60 41 0 16 -39 49 -59 49 -24 0 -45 25 -37 45 7 18 57 20 74 3 9
-9 12 -9 12 0 0 11 -31 33 -47 31 -4 0 -18 -4 -30 -9z"/>
<path d="M4122 10234 c-35 -24 -25 -55 23 -73 45 -17 56 -28 48 -48 -9 -23
-52 -27 -73 -8 -21 19 -28 7 -8 -13 17 -17 64 -15 82 4 30 30 18 56 -36 73
-39 13 -53 32 -35 50 14 14 54 14 62 1 3 -5 12 -10 18 -10 15 1 -31 40 -47 40
-6 0 -22 -7 -34 -16z"/>
<path d="M1430 10159 c0 -51 4 -78 10 -74 6 3 10 40 10 81 0 43 -4 74 -10 74
-6 0 -10 -34 -10 -81z"/>
<path d="M2200 10166 c0 -41 5 -78 10 -81 6 -4 10 23 10 74 0 47 -4 81 -10 81
-6 0 -10 -31 -10 -74z"/>
<path d="M3412 10178 c-2 -49 2 -71 14 -82 18 -19 55 -21 72 -4 9 9 12 9 12
-1 0 -7 5 -9 10 -6 6 3 10 40 10 81 0 43 -4 74 -10 74 -6 0 -10 -28 -10 -65 0
-54 -3 -66 -20 -75 -12 -6 -30 -8 -40 -5 -22 7 -28 26 -33 100 -3 43 -4 41 -5
-17z"/>
<path d="M1983 9340 c0 -75 2 -90 6 -51 4 40 12 57 27 68 33 21 54 -5 54 -68
0 -27 5 -49 10 -49 14 0 13 96 -1 122 -9 17 -17 19 -49 14 -39 -6 -39 -6 -43
31 -2 21 -4 -9 -4 -67z"/>
<path d="M2680 9340 c0 -60 4 -100 10 -100 6 0 10 25 10 55 0 49 3 57 23 64
34 13 47 -5 47 -65 0 -30 5 -54 10 -54 6 0 10 26 10 59 0 68 -14 87 -60 77
-29 -5 -30 -4 -30 29 0 19 -4 35 -10 35 -6 0 -10 -40 -10 -100z"/>
<path d="M3130 9340 c0 -107 17 -140 22 -42 3 56 3 57 33 57 30 0 30 -1 33
-57 4 -73 22 -76 22 -5 0 69 -16 92 -58 84 -31 -6 -32 -5 -32 28 0 19 -4 35
-10 35 -6 0 -10 -40 -10 -100z"/>
<path d="M1800 9420 c0 -5 25 -10 54 -10 l55 0 -55 -79 c-29 -44 -54 -82 -54
-85 0 -3 33 -5 73 -4 69 2 70 2 15 5 -32 2 -58 6 -58 9 0 3 25 41 55 84 30 43
55 81 55 84 0 3 -31 6 -70 6 -40 0 -70 -4 -70 -10z"/>
<path d="M2510 9421 c0 -6 23 -11 51 -13 l50 -3 -50 -72 c-28 -40 -51 -77 -51
-83 0 -6 26 -9 68 -8 63 2 64 2 15 5 -29 2 -53 8 -53 12 0 4 23 40 50 80 28
40 50 77 50 82 0 5 -29 9 -65 9 -36 0 -65 -4 -65 -9z"/>
<path d="M1195 9409 c4 -5 20 -9 36 -9 39 0 29 17 -11 18 -17 0 -28 -4 -25 -9z"/>
<path d="M1090 9390 c-14 -11 -31 -20 -39 -20 -7 0 -26 -11 -41 -24 -24 -20
-27 -26 -17 -41 7 -9 31 -19 54 -22 47 -6 116 4 109 16 -3 4 5 6 17 5 12 -1
26 -3 30 -3 5 -1 5 -7 0 -13 -10 -17 -6 -45 13 -86 8 -18 14 -36 12 -40 -2 -4
11 -21 30 -39 33 -32 33 -32 52 -13 11 11 23 20 26 20 3 0 15 10 26 23 l19 22
-5 -26 c-4 -19 0 -32 15 -44 15 -14 19 -29 18 -62 -5 -85 20 -58 52 58 23 84
24 109 3 157 -14 32 -17 34 -23 18 -6 -14 -10 -16 -15 -7 -5 7 -5 15 -2 18 4
4 -8 13 -25 20 -17 7 -28 17 -24 23 4 6 11 8 16 5 5 -4 9 -2 9 4 0 16 -18 22
-23 9 -3 -9 -12 -6 -27 10 -15 17 -29 22 -45 18 -12 -3 -48 2 -78 13 -51 16
-57 16 -62 2 -6 -14 -8 -14 -19 2 -17 22 -25 21 -56 -3z m45 -20 c10 -11 16
-20 13 -20 -3 0 -13 9 -23 20 -10 11 -16 20 -13 20 3 0 13 -9 23 -20z m74 -5
c16 -8 31 -21 35 -30 4 -12 -4 -10 -34 7 -22 13 -40 26 -40 31 0 10 7 9 39 -8z
m91 -75 c-11 -11 -22 -20 -25 -20 -3 0 0 9 7 20 7 11 18 20 25 20 8 0 5 -8 -7
-20z m80 -19 c0 -6 -4 -13 -10 -16 -5 -3 -10 1 -10 9 0 9 5 16 10 16 6 0 10
-4 10 -9z m-150 -5 c0 -3 -4 -8 -10 -11 -5 -3 -10 -1 -10 4 0 6 5 11 10 11 6
0 10 -2 10 -4z m177 -28 c-3 -8 -6 -5 -6 6 -1 11 2 17 5 13 3 -3 4 -12 1 -19z"/>
<path d="M2154 9372 c-63 -41 -21 -154 50 -136 69 17 58 144 -12 144 -15 0
-32 -4 -38 -8z m58 -19 c22 -20 24 -76 3 -93 -21 -17 -61 -4 -69 22 -9 36 -7
47 14 68 24 24 28 25 52 3z"/>
<path d="M2290 9315 c0 -54 3 -66 20 -75 12 -6 31 -8 43 -4 12 5 28 7 35 6 9
-2 12 17 12 68 0 83 -18 95 -22 14 -3 -60 -20 -83 -52 -71 -12 5 -16 20 -16
67 0 33 -4 60 -10 60 -6 0 -10 -28 -10 -65z"/>
<path d="M2830 9325 c0 -65 26 -102 63 -90 12 3 28 7 35 7 8 1 11 22 10 72 -2
67 -2 68 -5 16 -5 -59 -16 -80 -44 -80 -25 0 -39 30 -39 84 0 25 -4 46 -10 46
-5 0 -10 -25 -10 -55z"/>
<path d="M2980 9371 c0 -6 18 -11 40 -13 l39 -3 -39 -52 c-22 -28 -40 -54 -40
-57 0 -3 26 -5 58 -4 56 1 56 1 14 7 l-43 6 40 54 c23 30 41 58 41 63 0 4 -25
8 -55 8 -30 0 -55 -4 -55 -9z"/>
<path d="M3280 9321 c0 -67 18 -96 54 -87 12 3 29 6 39 6 14 0 17 10 17 70 0
87 -18 93 -22 8 -3 -63 -3 -63 -33 -63 -30 0 -30 0 -33 63 -4 79 -22 82 -22 3z"/>
<path d="M4940 9367 c-50 -16 -136 -103 -149 -152 -34 -125 17 -241 133 -302
19 -10 56 -17 96 -17 53 -1 74 4 117 28 101 56 151 170 119 277 -39 136 -180
209 -316 166z m224 -133 c9 -8 16 -18 16 -22 0 -11 -214 -222 -224 -222 -20 0
-106 94 -106 116 0 39 38 41 73 5 l31 -31 87 85 c47 47 91 85 97 85 6 0 18 -7
26 -16z"/>
<path d="M5577 9364 c-135 -43 -203 -206 -138 -332 61 -118 196 -164 317 -108
87 40 134 118 134 220 0 155 -162 269 -313 220z m128 -25 c98 -25 162 -118
153 -224 -15 -182 -243 -251 -366 -111 -98 112 -41 292 106 336 38 12 57 12
107 -1z"/>
<path d="M5536 9254 c-9 -8 -16 -18 -16 -20 0 -3 20 -26 45 -53 l44 -47 -44
-44 c-36 -35 -42 -47 -34 -62 14 -27 29 -22 76 24 l42 41 46 -42 c29 -26 52
-40 61 -37 9 3 18 6 20 6 2 0 4 8 4 17 0 10 -19 37 -42 60 l-42 43 42 43 c46
47 50 58 27 77 -14 11 -23 6 -63 -33 l-48 -47 -34 36 c-49 50 -65 57 -84 38z"/>
<path d="M1041 9128 c-15 -42 -4 -52 54 -48 47 3 53 18 14 34 l-34 15 38 1
c23 0 36 4 32 10 -3 6 -26 10 -51 10 -37 0 -46 -4 -53 -22z"/>
<path d="M975 9100 c-3 -5 1 -10 9 -10 9 0 16 5 16 10 0 6 -4 10 -9 10 -6 0
-13 -4 -16 -10z"/>
<path d="M1360 9096 c0 -2 8 -10 18 -17 15 -13 16 -12 3 4 -13 16 -21 21 -21
13z"/>
<path d="M1340 9048 c0 -18 18 -34 28 -24 3 4 -2 14 -11 23 -16 16 -17 16 -17
1z"/>
<path d="M985 8990 c3 -5 13 -10 21 -10 8 0 14 5 14 10 0 6 -9 10 -21 10 -11
0 -17 -4 -14 -10z"/>
<path d="M1300 8953 c0 -5 4 -14 9 -22 8 -12 12 -13 26 -1 13 10 13 15 3 21
-16 11 -38 11 -38 2z"/>
<path d="M1015 8920 c11 -5 29 -9 40 -9 l20 0 -20 9 c-11 5 -29 9 -40 9 l-20
0 20 -9z"/>
<path d="M1155 8839 c-107 -41 -115 -49 -20 -24 15 4 25 -3 40 -25 11 -16 23
-30 26 -30 8 0 69 93 69 103 0 13 -35 5 -115 -24z"/>
<path d="M730 7738 c0 -126 17 -140 22 -18 l3 75 34 -82 c19 -46 38 -83 42
-83 4 0 17 26 29 58 13 31 30 71 39 87 16 30 16 29 22 -60 l5 -90 2 113 c1 61
-2 112 -6 112 -5 0 -26 -43 -47 -95 -21 -52 -41 -95 -44 -95 -3 0 -23 43 -45
95 -21 52 -42 95 -47 95 -5 0 -9 -50 -9 -112z"/>
<path d="M1230 7740 c0 -67 4 -110 10 -110 6 0 10 23 10 50 l0 50 45 0 c25 0
45 5 45 10 0 6 -20 10 -45 10 l-45 0 0 44 0 45 53 4 52 3 -62 2 -63 2 0 -110z"/>
<path d="M2020 7810 l0 -40 -25 16 c-33 22 -64 10 -81 -32 -25 -59 5 -124 56
-124 14 0 31 5 38 12 9 9 12 9 12 -1 0 -7 5 -9 10 -6 6 3 10 52 10 111 0 63
-4 104 -10 104 -5 0 -10 -18 -10 -40z m-10 -49 c38 -72 -30 -162 -74 -99 -34
48 -14 118 34 118 19 0 33 -7 40 -19z"/>
<path d="M1505 7830 c3 -5 8 -10 11 -10 2 0 4 5 4 10 0 6 -5 10 -11 10 -5 0
-7 -4 -4 -10z"/>
<path d="M1441 7791 c-8 -5 -20 -7 -28 -4 -10 4 -13 -13 -13 -78 0 -98 17 -98
22 1 3 59 5 65 26 68 12 2 22 8 22 13 0 11 -11 11 -29 0z"/>
<path d="M1604 7790 c-45 -18 -54 -101 -17 -142 18 -21 73 -24 91 -6 20 20 13
30 -10 14 -29 -21 -51 -20 -71 2 -34 38 -22 52 43 52 54 0 60 2 60 20 0 23
-42 70 -62 69 -7 0 -22 -4 -34 -9z m64 -22 c7 -7 12 -20 12 -30 0 -15 -9 -18
-50 -18 -41 0 -50 3 -50 18 0 25 20 42 50 42 14 0 31 -5 38 -12z"/>
<path d="M1781 7791 c-8 -5 -20 -7 -28 -4 -10 4 -13 -13 -13 -78 0 -98 17 -98
22 1 3 63 4 65 32 68 40 5 50 -10 57 -86 l6 -67 1 72 c2 64 0 74 -20 87 -26
18 -37 19 -57 7z"/>
<path d="M2112 7784 c-35 -24 -25 -55 23 -73 45 -17 56 -28 48 -48 -9 -23 -52
-27 -73 -8 -21 19 -28 7 -8 -13 17 -17 64 -15 82 4 30 30 18 56 -36 73 -39 13
-53 32 -35 50 14 14 54 14 62 1 3 -5 12 -10 18 -10 15 1 -31 40 -47 40 -6 0
-22 -7 -34 -16z"/>
<path d="M980 7782 c0 -5 12 -40 26 -78 28 -74 26 -109 -7 -119 -11 -4 -18 -9
-16 -12 3 -3 14 -2 25 1 14 5 31 36 57 107 20 55 35 103 32 105 -5 5 -47 -99
-47 -116 0 -6 -4 -10 -8 -10 -5 0 -17 27 -27 60 -16 54 -35 87 -35 62z"/>
<path d="M1500 7710 c0 -47 4 -80 10 -80 6 0 10 33 10 80 0 47 -4 80 -10 80
-6 0 -10 -33 -10 -80z"/>
<path d="M1984 6975 c0 -60 1 -85 3 -55 5 62 16 80 48 80 28 0 35 -17 35 -81
0 -34 4 -48 11 -43 16 10 6 123 -12 135 -8 5 -28 7 -46 4 -31 -5 -32 -4 -36
32 -2 21 -4 -11 -3 -72z"/>
<path d="M1800 7060 c0 -5 25 -10 56 -10 l55 0 -55 -79 c-31 -43 -56 -84 -56
-90 0 -7 26 -11 70 -11 40 0 70 4 70 10 0 6 -25 10 -55 10 -30 0 -55 2 -55 4
0 3 25 40 55 84 30 44 55 83 55 86 0 3 -31 6 -70 6 -40 0 -70 -4 -70 -10z"/>
<path d="M2520 6970 c0 -118 18 -136 22 -23 l3 76 30 -73 c17 -40 35 -72 40
-71 6 1 24 37 40 79 l30 77 3 -82 c4 -118 22 -104 22 17 0 127 -15 132 -60 20
-18 -44 -36 -78 -40 -75 -4 2 -20 38 -36 80 -40 105 -54 99 -54 -25z"/>
<path d="M1203 7041 c10 -12 9 -12 -10 -2 -19 10 -23 9 -23 -3 0 -8 8 -17 19
-21 25 -8 62 -40 55 -48 -7 -7 -59 27 -90 59 -19 19 -24 20 -51 9 -17 -7 -34
-18 -37 -24 -4 -6 -12 -9 -17 -5 -13 8 -50 -31 -41 -42 4 -4 -1 -4 -10 -1 -23
8 -23 -5 0 -26 26 -24 172 -21 157 3 -6 9 44 4 53 -6 4 -4 2 -9 -4 -11 -12 -4
-7 -51 7 -69 5 -6 10 -22 11 -35 2 -13 18 -38 36 -56 33 -32 33 -32 52 -13 11
11 23 20 26 20 3 0 15 10 26 23 l19 22 -5 -26 c-4 -19 0 -32 15 -45 14 -12 20
-29 19 -54 -3 -50 -1 -60 9 -60 10 0 11 4 40 105 11 39 21 83 21 98 0 37 -27
100 -40 92 -6 -3 -7 -11 -4 -17 4 -7 2 -8 -4 -4 -6 4 -9 13 -5 21 3 9 -1 15
-11 16 -9 1 -22 2 -28 3 -7 0 -13 8 -13 16 0 8 6 14 13 12 18 -3 10 20 -8 26
-7 3 -10 0 -6 -7 12 -18 -10 -12 -28 8 -13 14 -26 18 -49 15 -20 -4 -39 0 -52
10 -19 15 -19 15 -1 16 11 0 16 3 12 8 -4 4 -20 7 -36 7 -23 0 -26 -3 -17 -14z
m-72 -58 c13 -16 12 -17 -3 -4 -17 13 -22 21 -14 21 2 0 10 -8 17 -17z m166
-57 c-12 -14 -24 -23 -26 -20 -5 5 30 44 40 44 4 0 -2 -11 -14 -24z m76 -31
c-7 -21 -13 -19 -13 6 0 11 4 18 10 14 5 -3 7 -12 3 -20z m-143 11 c0 -3 -4
-8 -10 -11 -5 -3 -10 -1 -10 4 0 6 5 11 10 11 6 0 10 -2 10 -4z"/>
<path d="M2145 6995 c-30 -30 -32 -64 -4 -99 40 -51 109 -20 109 49 0 40 -28
75 -60 75 -12 0 -32 -11 -45 -25z m73 -7 c17 -17 15 -73 -2 -88 -42 -34 -92
22 -68 75 13 27 49 34 70 13z"/>
<path d="M2290 6956 c0 -75 9 -86 68 -83 l42 1 0 73 c0 89 -18 97 -22 11 -3
-63 -3 -63 -33 -63 -30 0 -30 0 -33 63 -4 82 -22 80 -22 -2z"/>
<path d="M2774 7006 c-10 -8 -16 -18 -11 -22 4 -4 13 -2 19 4 19 19 55 14 61
-8 4 -17 0 -20 -24 -20 -27 0 -69 -29 -69 -47 1 -25 23 -38 68 -39 l50 -1 -5
61 c-3 34 -10 67 -16 74 -13 16 -49 15 -73 -2z m72 -71 c9 -23 -16 -46 -45
-43 -34 4 -40 35 -9 47 34 14 48 13 54 -4z"/>
<path d="M2931 7003 c-32 -27 -37 -73 -11 -106 41 -52 110 -22 110 48 0 63
-54 94 -99 58z m67 -15 c17 -17 15 -73 -2 -88 -42 -34 -92 22 -68 75 13 27 49
34 70 13z"/>
<path d="M3070 6945 c0 -91 18 -101 22 -12 3 62 3 62 33 62 30 0 30 0 33 -62
4 -76 22 -84 22 -10 0 63 10 80 41 75 22 -3 24 -8 27 -65 4 -82 22 -82 22 0 0
67 -10 87 -45 87 -12 0 -26 -5 -33 -12 -9 -9 -15 -9 -24 0 -7 7 -21 12 -33 12
-12 0 -26 -5 -33 -12 -9 -9 -12 -9 -12 0 0 7 -4 12 -10 12 -6 0 -10 -32 -10
-75z"/>
<path d="M3329 7000 c-13 -10 -19 -19 -13 -20 5 0 15 5 21 11 16 16 57 7 61
-13 3 -13 -3 -18 -20 -18 -50 0 -90 -55 -55 -77 6 -4 32 -8 57 -9 l45 -1 -3
61 c-5 84 -41 110 -93 66z m69 -77 c-2 -24 -8 -28 -33 -28 -38 0 -47 31 -13
44 40 17 50 13 46 -16z"/>
<path d="M3479 6999 c-17 -17 -20 -29 -16 -62 9 -65 65 -89 108 -46 17 17 20
29 16 62 -9 65 -65 89 -108 46z m79 -11 c28 -28 6 -98 -31 -98 -43 0 -61 45
-37 91 12 21 50 25 68 7z"/>
<path d="M1059 6783 c-18 -4 -31 -37 -23 -58 7 -17 68 -17 91 0 17 13 17 14
-2 20 -47 16 -48 19 -10 24 30 5 36 8 22 14 -20 7 -51 8 -78 0z"/>
<path d="M975 6741 c-6 -11 9 -23 19 -14 9 9 7 23 -3 23 -6 0 -12 -4 -16 -9z"/>
<path d="M1340 6688 c0 -18 18 -34 28 -24 3 4 -2 14 -11 23 -16 16 -17 16 -17
1z"/>
<path d="M985 6630 c3 -5 13 -10 21 -10 8 0 14 5 14 10 0 6 -9 10 -21 10 -11
0 -17 -4 -14 -10z"/>
<path d="M1304 6584 c3 -9 6 -20 6 -26 0 -6 9 -3 21 8 19 17 19 19 2 25 -29
12 -36 10 -29 -7z"/>
<path d="M1005 6560 c3 -5 21 -10 38 -9 27 0 29 2 12 9 -28 12 -57 12 -50 0z"/>
<path d="M1155 6475 c-49 -19 -82 -34 -73 -34 9 -1 28 3 42 9 21 8 29 5 50
-20 14 -17 27 -30 31 -30 7 0 65 91 65 102 0 13 -20 8 -115 -27z"/>
<path d="M1960 5575 c0 -114 17 -147 22 -42 3 62 3 62 33 62 30 0 30 0 33 -62
2 -35 7 -63 12 -63 13 0 13 106 0 131 -12 21 -50 25 -68 7 -9 -9 -12 -3 -12
30 0 23 -4 42 -10 42 -6 0 -10 -42 -10 -105z"/>
<path d="M1790 5661 c0 -6 22 -11 50 -13 l49 -3 -54 -79 c-30 -44 -55 -83 -55
-88 0 -4 32 -8 70 -8 83 0 95 18 15 22 l-55 3 55 79 c30 44 55 83 55 88 0 4
-29 8 -65 8 -36 0 -65 -4 -65 -9z"/>
<path d="M2521 5651 c-43 -43 -37 -128 12 -165 22 -16 33 -18 64 -10 36 8 38
12 41 52 l3 42 -35 0 c-20 0 -36 -4 -36 -10 0 -5 12 -10 26 -10 22 0 25 -4 22
-27 -2 -23 -9 -29 -34 -31 -38 -4 -61 17 -70 62 -13 72 49 124 97 80 27 -24
35 -10 10 15 -26 26 -75 27 -100 2z"/>
<path d="M1183 5645 c9 -6 14 -15 11 -18 -4 -3 -13 1 -22 9 -14 14 -16 14 -24
-1 -9 -15 -11 -15 -21 -1 -8 10 -17 13 -25 7 -11 -6 -7 -13 14 -30 14 -11 22
-21 17 -21 -5 0 -18 9 -28 20 -24 26 -44 25 -55 -2 -5 -13 -9 -17 -9 -10 -1 6
-8 12 -16 12 -17 0 -38 -34 -27 -45 4 -4 -4 -4 -16 0 -21 6 -23 5 -13 -13 6
-11 18 -22 27 -26 35 -14 149 -3 139 13 -2 4 6 6 18 5 12 -1 29 -3 37 -3 11
-1 11 -4 2 -13 -18 -18 -15 -31 5 -24 16 6 16 6 0 -12 -16 -17 -16 -21 -1 -51
9 -18 14 -35 11 -38 -8 -8 58 -63 76 -63 8 0 18 12 22 28 4 15 10 21 12 15 7
-20 23 -15 17 5 -5 13 -4 14 4 3 9 -12 11 -12 15 0 2 8 2 4 0 -9 -2 -13 2 -25
11 -28 22 -8 37 -60 26 -89 -11 -28 2 -42 19 -21 17 20 51 149 51 191 0 42
-26 98 -41 89 -8 -4 -7 -10 2 -16 11 -8 11 -9 -1 -5 -8 2 -14 11 -12 20 2 10
-8 18 -27 22 -20 4 -28 11 -24 21 3 7 9 11 14 8 5 -3 9 -1 9 5 0 16 -18 22
-23 9 -3 -9 -11 -6 -26 10 -15 15 -29 20 -44 17 -13 -4 -36 -1 -52 6 l-30 12
25 7 c27 9 23 11 -30 15 -29 2 -32 1 -17 -10z m45 -74 c3 -8 -13 -3 -37 11
-22 12 -41 29 -41 36 0 15 72 -28 78 -47z m50 -46 c-12 -14 -24 -23 -26 -20
-6 6 28 45 39 45 5 0 -1 -11 -13 -25z m73 -38 c-13 -13 -15 1 -4 30 7 17 8 17
11 -1 2 -10 -1 -23 -7 -29z"/>
<path d="M2132 5604 c-19 -13 -23 -23 -20 -62 2 -39 8 -49 31 -62 24 -13 30
-13 55 0 22 13 28 23 30 62 3 39 -1 49 -20 62 -12 9 -29 16 -38 16 -9 0 -26
-7 -38 -16z m68 -19 c27 -33 7 -95 -30 -95 -24 0 -42 24 -42 55 0 31 18 55 42
55 10 0 23 -7 30 -15z"/>
<path d="M2270 5563 c0 -76 9 -87 65 -89 l45 -2 0 74 c0 90 -18 99 -22 12 -3
-63 -3 -63 -33 -63 -30 0 -30 0 -33 63 -4 78 -22 82 -22 5z"/>
<path d="M2700 5600 c-12 -12 -20 -33 -20 -55 0 -86 105 -103 126 -20 18 72
-56 125 -106 75z m82 -25 c24 -53 -26 -109 -68 -75 -17 15 -19 71 -2 88 21 21
57 14 70 -13z"/>
<path d="M2851 5559 c-1 -78 8 -90 65 -85 l39 4 3 62 c2 35 -2 68 -7 73 -8 8
-11 -6 -11 -44 0 -57 -12 -79 -41 -79 -25 0 -33 17 -40 80 l-6 55 -2 -66z"/>
<path d="M3022 5611 c-19 -12 -30 -62 -20 -98 9 -34 35 -48 69 -38 16 5 20 3
17 -10 -5 -29 -34 -42 -59 -27 -18 11 -20 11 -17 0 6 -17 65 -23 84 -7 10 8
14 35 14 98 l0 86 -38 2 c-20 1 -43 -1 -50 -6z m63 -66 c0 -49 -1 -50 -29 -50
-36 0 -53 37 -36 79 8 22 15 27 38 24 25 -3 27 -6 27 -53z"/>
<path d="M3178 5609 c-35 -20 -31 -106 6 -131 40 -27 96 12 96 67 0 59 -54 93
-102 64z m70 -21 c17 -17 15 -73 -2 -88 -42 -34 -92 22 -68 75 13 27 49 34 70
13z"/>
<path d="M3320 5558 c0 -76 8 -86 68 -85 l42 2 0 72 c0 42 -4 73 -10 73 -5 0
-10 -24 -10 -54 0 -57 -15 -80 -47 -74 -14 2 -19 15 -21 58 -5 81 -22 88 -22
8z"/>
<path d="M1038 5383 c-12 -3 -18 -14 -18 -34 0 -16 3 -29 8 -30 4 0 19 -2 34
-4 14 -2 34 3 44 10 17 12 16 14 -16 28 l-35 15 40 1 c30 1 36 4 25 11 -15 10
-51 11 -82 3z"/>
<path d="M960 5340 c0 -5 5 -10 10 -10 6 0 10 5 10 10 0 6 -4 10 -10 10 -5 0
-10 -4 -10 -10z"/>
<path d="M1361 5313 c7 -12 15 -20 18 -17 3 2 -3 12 -13 22 -17 16 -18 16 -5
-5z"/>
<path d="M1322 5279 c2 -7 10 -15 17 -17 8 -3 12 1 9 9 -2 7 -10 15 -17 17 -8
3 -12 -1 -9 -9z"/>
<path d="M965 5230 c3 -5 15 -10 26 -10 11 0 17 5 14 10 -3 6 -15 10 -26 10
-11 0 -17 -4 -14 -10z"/>
<path d="M1290 5180 c0 -23 13 -26 29 -6 9 11 8 15 -5 20 -23 9 -24 8 -24 -14z"/>
<path d="M985 5160 c3 -5 21 -10 38 -9 27 0 29 2 12 9 -28 12 -57 12 -50 0z"/>
<path d="M1135 5074 c-49 -19 -76 -33 -60 -30 17 3 37 7 47 11 11 4 21 -3 34
-24 10 -17 22 -31 26 -31 6 0 49 57 72 98 12 20 -22 13 -119 -24z"/>
</g>
</svg>
