<svg width="375" height="667" viewBox="0 0 375 667" fill="none" xmlns="http://www.w3.org/2000/svg">
<g clip-path="url(#clip0)">
<rect width="375" height="667" fill="#FAFAF4"/>
<path d="M105.331 325.169C107.57 325.169 109.17 323.684 109.17 321.74C109.17 320.17 108.168 318.999 106.568 318.643V318.577C107.92 318.184 108.772 317.11 108.772 315.679C108.772 313.886 107.389 312.467 105.331 312.467C103.32 312.467 101.787 313.808 101.763 315.727H102.505C102.523 314.188 103.743 313.162 105.319 313.162C106.936 313.162 108.035 314.23 108.035 315.703C108.035 317.279 106.737 318.287 105.017 318.287H104.558V318.987H105.017C107.051 318.987 108.422 320.104 108.422 321.74C108.422 323.273 107.16 324.469 105.319 324.469C103.61 324.469 102.276 323.418 102.246 321.909H101.479C101.509 323.811 103.139 325.169 105.331 325.169ZM115.72 325.169C117.936 325.181 119.415 323.346 119.415 321.209C119.415 318.945 117.755 317.267 115.75 317.267C114.374 317.267 113.112 318.07 112.629 319.229H112.563C112.563 315.335 113.722 313.168 115.865 313.168C117.38 313.168 118.316 314.224 118.485 315.727H119.234C119.053 313.801 117.779 312.467 115.865 312.467C112.949 312.467 111.838 315.685 111.838 319.368C111.838 323.479 113.643 325.163 115.72 325.169ZM115.72 324.469C114.181 324.469 113.034 323.273 112.762 321.33C112.527 319.543 113.897 317.967 115.672 317.967C117.368 317.967 118.672 319.392 118.672 321.209C118.672 323.002 117.417 324.469 115.72 324.469ZM127.011 325H127.747V318.915C127.747 317.381 128.671 316.289 130.138 316.289C131.593 316.289 132.311 317.285 132.311 318.728V325H133.048V318.836C133.048 317.357 133.893 316.289 135.426 316.289C136.857 316.289 137.612 317.224 137.612 318.776V325H138.348V318.776C138.348 316.814 137.376 315.607 135.583 315.607C134.207 315.607 133.235 316.307 132.873 317.4H132.806C132.444 316.301 131.629 315.607 130.289 315.607C129.063 315.607 128.158 316.198 127.802 317.128H127.729V315.727H127.011V325ZM141.441 325H142.171V315.727H141.441V325ZM141.809 314.085C142.135 314.085 142.4 313.826 142.4 313.506C142.4 313.186 142.135 312.926 141.809 312.926C141.483 312.926 141.211 313.186 141.211 313.506C141.211 313.826 141.483 314.085 141.809 314.085ZM145.992 318.987C145.992 317.369 147.115 316.289 148.661 316.289C150.2 316.289 151.22 317.333 151.22 318.915V325H151.957V318.885C151.957 316.856 150.665 315.607 148.8 315.607C147.477 315.607 146.481 316.234 146.047 317.194H145.974V315.727H145.256V325H145.992V318.987ZM160.958 321.71C160.958 323.364 159.726 324.402 158.278 324.402C156.792 324.402 155.754 323.358 155.754 321.812V315.727H155.018V321.843C155.018 323.871 156.309 325.121 158.127 325.121C159.449 325.121 160.463 324.451 160.898 323.497H160.958V325H161.694V315.727H160.958V321.71ZM168.024 315.727H166.074V313.506H165.344V315.727H163.973V316.385H165.344V322.941C165.344 324.348 166.436 325.151 167.596 325.151C167.97 325.151 168.223 325.085 168.453 325L168.272 324.33C168.091 324.39 167.909 324.439 167.644 324.439C166.823 324.439 166.074 323.931 166.074 322.809V316.385H168.024V315.727ZM174.272 325.193C176.102 325.193 177.224 324.125 177.647 323.189L176.977 322.917C176.633 323.605 175.782 324.511 174.272 324.511C172.165 324.511 170.904 322.809 170.874 320.527H177.949V320.068C177.949 317.315 176.174 315.588 174.097 315.588C171.797 315.588 170.143 317.635 170.143 320.406C170.143 323.171 171.755 325.193 174.272 325.193ZM170.886 319.857C171.031 317.834 172.341 316.277 174.097 316.277C175.86 316.277 177.212 317.846 177.212 319.857H170.886ZM186.376 317.725C185.93 316.361 184.952 315.588 183.382 315.588C181.607 315.588 180.333 316.615 180.333 318.112C180.333 319.307 181.088 320.146 182.603 320.515L184.082 320.877C185.187 321.148 185.737 321.746 185.737 322.603C185.737 323.726 184.722 324.517 183.207 324.517C181.837 324.517 180.985 323.877 180.72 322.664L180.013 322.845C180.333 324.354 181.487 325.193 183.213 325.193C185.145 325.193 186.485 324.119 186.485 322.579C186.485 321.384 185.737 320.557 184.276 320.195L182.851 319.838C181.643 319.543 181.064 318.969 181.064 318.088C181.064 317.001 182.018 316.259 183.382 316.259C184.65 316.259 185.356 316.892 185.694 317.907L186.376 317.725Z" fill="#002642"/>
<path d="M53.8963 43H58.5092V35.2656H61.8757L66.0092 43H71.1016L66.4673 34.5199C68.9496 33.4545 70.3239 31.2919 70.3239 28.3089C70.3239 23.973 67.4581 21.1818 62.5043 21.1818H53.8963V43ZM58.5092 31.5582V24.9531H61.62C64.2834 24.9531 65.5724 26.1357 65.5724 28.3089C65.5724 30.4716 64.2834 31.5582 61.6413 31.5582H58.5092ZM80.6923 43.3196C84.7406 43.3196 87.4679 41.3487 88.1071 38.3125L83.9096 38.0355C83.4515 39.282 82.2797 39.9318 80.7669 39.9318C78.4977 39.9318 77.0595 38.4297 77.0595 35.9901V35.9794H88.2029V34.733C88.2029 29.1719 84.8365 26.4233 80.5112 26.4233C75.6958 26.4233 72.5744 29.843 72.5744 34.8928C72.5744 40.081 75.6532 43.3196 80.6923 43.3196ZM77.0595 33.1669C77.1554 31.3026 78.5723 29.8111 80.5858 29.8111C82.5566 29.8111 83.9203 31.2173 83.9309 33.1669H77.0595ZM104.78 31.3026C104.375 28.2876 101.946 26.4233 97.8123 26.4233C93.6255 26.4233 90.8663 28.3622 90.877 31.5156C90.8663 33.9659 92.411 35.5533 95.6071 36.1925L98.4409 36.7571C99.8684 37.0447 100.518 37.5668 100.54 38.3871C100.518 39.3565 99.4636 40.049 97.8762 40.049C96.2569 40.049 95.1809 39.3565 94.9039 38.0249L90.4402 38.2592C90.8663 41.3913 93.5297 43.3196 97.8656 43.3196C102.106 43.3196 105.142 41.157 105.153 37.929C105.142 35.5639 103.597 34.147 100.422 33.4972L97.4608 32.9006C95.9373 32.5703 95.3727 32.0483 95.3833 31.2599C95.3727 30.2798 96.4806 29.6406 97.8869 29.6406C99.4636 29.6406 100.401 30.5036 100.625 31.5582L104.78 31.3026ZM115.468 43.3196C119.516 43.3196 122.243 41.3487 122.882 38.3125L118.685 38.0355C118.227 39.282 117.055 39.9318 115.542 39.9318C113.273 39.9318 111.835 38.4297 111.835 35.9901V35.9794H122.978V34.733C122.978 29.1719 119.612 26.4233 115.287 26.4233C110.471 26.4233 107.35 29.843 107.35 34.8928C107.35 40.081 110.429 43.3196 115.468 43.3196ZM111.835 33.1669C111.931 31.3026 113.348 29.8111 115.361 29.8111C117.332 29.8111 118.696 31.2173 118.706 33.1669H111.835ZM125.94 43H130.478V33.7422C130.478 31.7287 131.949 30.3438 133.951 30.3438C134.58 30.3438 135.443 30.4503 135.869 30.5888V26.5618C135.464 26.4659 134.9 26.402 134.441 26.402C132.609 26.402 131.107 27.4673 130.51 29.4915H130.34V26.6364H125.94V43ZM153.969 26.6364H149.164L145.777 38.3445H145.606L142.208 26.6364H137.414L143.135 43H148.248L153.969 26.6364ZM160.489 43.3089C162.907 43.3089 164.473 42.2543 165.272 40.7308H165.4V43H169.704V31.9631C169.704 28.0639 166.402 26.4233 162.758 26.4233C158.838 26.4233 156.26 28.2983 155.631 31.2812L159.828 31.6222C160.137 30.5355 161.107 29.7365 162.737 29.7365C164.282 29.7365 165.166 30.5142 165.166 31.8565V31.9205C165.166 32.9751 164.047 33.1136 161.203 33.3906C157.964 33.6889 155.056 34.7756 155.056 38.4297C155.056 41.6683 157.368 43.3089 160.489 43.3089ZM161.789 40.1768C160.393 40.1768 159.392 39.527 159.392 38.2805C159.392 37.0021 160.446 36.3736 162.044 36.1499C163.035 36.0114 164.654 35.777 165.198 35.4148V37.1513C165.198 38.8665 163.781 40.1768 161.789 40.1768ZM181.929 26.6364H178.85V22.7159H174.312V26.6364H172.075V30.0455H174.312V38.5682C174.29 41.7749 176.474 43.3622 179.766 43.2237C180.938 43.1811 181.769 42.9467 182.227 42.7976L181.513 39.4205C181.29 39.4631 180.81 39.5696 180.384 39.5696C179.479 39.5696 178.85 39.2287 178.85 37.9716V30.0455H181.929V26.6364ZM184.885 43H189.424V26.6364H184.885V43ZM187.165 24.527C188.518 24.527 189.626 23.4936 189.626 22.2259C189.626 20.9688 188.518 19.9354 187.165 19.9354C185.823 19.9354 184.715 20.9688 184.715 22.2259C184.715 23.4936 185.823 24.527 187.165 24.527ZM200.453 43.3196C205.417 43.3196 208.507 39.9212 208.507 34.8821C208.507 29.8111 205.417 26.4233 200.453 26.4233C195.488 26.4233 192.399 29.8111 192.399 34.8821C192.399 39.9212 195.488 43.3196 200.453 43.3196ZM200.474 39.804C198.183 39.804 197.012 37.7053 197.012 34.8501C197.012 31.995 198.183 29.8857 200.474 29.8857C202.722 29.8857 203.894 31.995 203.894 34.8501C203.894 37.7053 202.722 39.804 200.474 39.804ZM215.996 33.5398C216.007 31.4304 217.264 30.1946 219.096 30.1946C220.918 30.1946 222.015 31.3878 222.004 33.3906V43H226.543V32.581C226.543 28.767 224.306 26.4233 220.896 26.4233C218.468 26.4233 216.71 27.6165 215.975 29.5234H215.783V26.6364H211.458V43H215.996V33.5398Z" fill="#002642"/>
<g filter="url(#filter0_d)">
<path d="M19.9033 31.4942L28.9596 24.4208C28.9833 24.4022 29.0117 24.3906 29.0416 24.3874C29.0716 24.3842 29.1018 24.3895 29.1289 24.4027C29.156 24.4159 29.1788 24.4365 29.1946 24.4621C29.2105 24.4877 29.2189 24.5172 29.2187 24.5473V26.1002C29.2187 26.1987 29.1725 26.2931 29.0962 26.3534L21.8641 32.0005L29.0962 37.6476C29.1746 37.7078 29.2187 37.8023 29.2187 37.9007V39.4536C29.2187 39.5882 29.0641 39.6625 28.9596 39.5802L19.9033 32.5067C19.8264 32.4467 19.7641 32.3699 19.7213 32.2822C19.6784 32.1944 19.6562 32.0981 19.6562 32.0005C19.6562 31.9029 19.6784 31.8065 19.7213 31.7188C19.7641 31.6311 19.8264 31.5543 19.9033 31.4942Z" fill="#002642"/>
</g>
<g filter="url(#filter1_ddd)">
<rect y="603" width="375" height="64" fill="white"/>
</g>
<path d="M64.8984 633.065C65.1457 633.303 65.2958 633.624 65.3195 633.967C65.3433 634.309 65.239 634.648 65.0269 634.918C64.9078 635.06 64.7603 635.176 64.5937 635.259C64.4272 635.341 64.2454 635.388 64.0597 635.396C63.8741 635.405 63.6888 635.374 63.5156 635.307C63.3424 635.24 63.1851 635.137 63.0537 635.006L61.8676 633.82C61.8396 633.791 61.8036 633.771 61.7642 633.763C61.7248 633.754 61.6838 633.758 61.6466 633.774C61.6094 633.789 61.5776 633.815 61.5554 633.849C61.5332 633.882 61.5216 633.922 61.5221 633.962V646.04C61.5221 647.09 61.1049 648.097 60.3623 648.84C59.6196 649.583 58.6124 650 57.5621 650H51.7198C51.3648 650 51.0243 649.859 50.7732 649.608C50.5222 649.357 50.3811 649.016 50.3811 648.661V639.365C50.3811 639.188 50.3461 639.013 50.278 638.85C50.2098 638.686 50.11 638.538 49.9843 638.414C49.8585 638.289 49.7094 638.191 49.5454 638.124C49.3814 638.058 49.2059 638.024 49.029 638.026H45.2805C44.9255 638.026 44.5849 638.167 44.3339 638.418C44.0828 638.669 43.9418 639.01 43.9418 639.365V648.661C43.9418 649.016 43.8007 649.357 43.5497 649.608C43.2986 649.859 42.9581 650 42.603 650H36.7607C35.7105 650 34.7033 649.583 33.9606 648.84C33.218 648.097 32.8008 647.09 32.8008 646.04V633.962C32.8013 633.922 32.7897 633.882 32.7675 633.849C32.7453 633.815 32.7135 633.789 32.6763 633.774C32.639 633.758 32.5981 633.754 32.5587 633.763C32.5193 633.771 32.4833 633.791 32.4554 633.82L31.2692 635.006C31.1378 635.137 30.9805 635.24 30.8073 635.307C30.634 635.374 30.4487 635.405 30.2631 635.396C30.0775 635.388 29.8957 635.341 29.7291 635.259C29.5626 635.176 29.4151 635.06 29.2959 634.918C29.0838 634.648 28.9796 634.309 29.0033 633.967C29.0271 633.624 29.1772 633.303 29.4245 633.065L38.461 624.028C38.5049 623.987 38.5514 623.949 38.6002 623.913L46.049 616.465C46.3497 616.167 46.7557 616 47.1788 616C47.6019 616 48.008 616.167 48.3087 616.465L55.7575 623.913C55.8063 623.949 55.8528 623.987 55.8967 624.028L64.8984 633.065Z" fill="black"/>
<g clip-path="url(#clip1)">
<path d="M229.745 617.373C229.745 616.615 229.131 616 228.373 616C227.615 616 227 616.615 227 617.373V622.863C227 623.621 227.615 624.235 228.373 624.235C229.131 624.235 229.745 623.621 229.745 622.863V617.373Z" fill="#002642"/>
<path d="M246.051 620.667H244.569V622.863C244.569 623.518 244.308 624.146 243.845 624.61C243.382 625.073 242.753 625.333 242.098 625.333C241.443 625.333 240.814 625.073 240.351 624.61C239.888 624.146 239.627 623.518 239.627 622.863V620.667H230.843V622.863C230.843 623.518 230.583 624.146 230.12 624.61C229.656 625.073 229.028 625.333 228.373 625.333C227.717 625.333 227.089 625.073 226.626 624.61C226.162 624.146 225.902 623.518 225.902 622.863V620.667H224.42C222.053 620.667 220.137 622.918 220.137 625.698V645.831C220.137 648.612 222.053 650.863 224.42 650.863H246.051C248.417 650.863 250.333 648.612 250.333 645.831V625.698C250.333 622.918 248.417 620.667 246.051 620.667ZM248.961 645.831C248.961 647.849 247.654 649.49 246.051 649.49H224.42C222.816 649.49 221.51 647.843 221.51 645.831V632.105H248.961V645.831Z" fill="#002642" stroke="#002642" stroke-miterlimit="10"/>
<path d="M243.471 617.373C243.471 616.615 242.856 616 242.098 616C241.34 616 240.725 616.615 240.725 617.373V622.863C240.725 623.621 241.34 624.235 242.098 624.235C242.856 624.235 243.471 623.621 243.471 622.863V617.373Z" fill="#002642"/>
<path d="M227 635.902H224.529C224.226 635.902 223.98 636.148 223.98 636.451V638.922C223.98 639.225 224.226 639.471 224.529 639.471H227C227.303 639.471 227.549 639.225 227.549 638.922V636.451C227.549 636.148 227.303 635.902 227 635.902Z" fill="#002642" stroke="#002642" stroke-miterlimit="10"/>
<path d="M233.314 635.902H230.843C230.54 635.902 230.294 636.148 230.294 636.451V638.922C230.294 639.225 230.54 639.471 230.843 639.471H233.314C233.617 639.471 233.863 639.225 233.863 638.922V636.451C233.863 636.148 233.617 635.902 233.314 635.902Z" fill="#002642" stroke="#002642" stroke-miterlimit="10"/>
<path d="M239.627 635.902H237.157C236.854 635.902 236.608 636.148 236.608 636.451V638.922C236.608 639.225 236.854 639.471 237.157 639.471H239.627C239.931 639.471 240.176 639.225 240.176 638.922V636.451C240.176 636.148 239.931 635.902 239.627 635.902Z" fill="#002642" stroke="#002642" stroke-miterlimit="10"/>
<path d="M245.941 635.902H243.471C243.167 635.902 242.922 636.148 242.922 636.451V638.922C242.922 639.225 243.167 639.471 243.471 639.471H245.941C246.244 639.471 246.49 639.225 246.49 638.922V636.451C246.49 636.148 246.244 635.902 245.941 635.902Z" fill="#002642" stroke="#002642" stroke-miterlimit="10"/>
<path d="M227 642.49H224.529C224.226 642.49 223.98 642.736 223.98 643.039V645.51C223.98 645.813 224.226 646.059 224.529 646.059H227C227.303 646.059 227.549 645.813 227.549 645.51V643.039C227.549 642.736 227.303 642.49 227 642.49Z" fill="#002642" stroke="#002642" stroke-miterlimit="10"/>
<path d="M233.314 642.49H230.843C230.54 642.49 230.294 642.736 230.294 643.039V645.51C230.294 645.813 230.54 646.059 230.843 646.059H233.314C233.617 646.059 233.863 645.813 233.863 645.51V643.039C233.863 642.736 233.617 642.49 233.314 642.49Z" fill="#002642" stroke="#002642" stroke-miterlimit="10"/>
<path d="M239.627 642.49H237.157C236.854 642.49 236.608 642.736 236.608 643.039V645.51C236.608 645.813 236.854 646.059 237.157 646.059H239.627C239.931 646.059 240.176 645.813 240.176 645.51V643.039C240.176 642.736 239.931 642.49 239.627 642.49Z" fill="#002642" stroke="#002642" stroke-miterlimit="10"/>
<path d="M245.941 642.49H243.471C243.167 642.49 242.922 642.736 242.922 643.039V645.51C242.922 645.813 243.167 646.059 243.471 646.059H245.941C246.244 646.059 246.49 645.813 246.49 645.51V643.039C246.49 642.736 246.244 642.49 245.941 642.49Z" fill="#002642" stroke="#002642" stroke-miterlimit="10"/>
</g>
<path d="M324.21 650C333.163 650 340.421 642.389 340.421 633C340.421 623.611 333.163 616 324.21 616C315.258 616 308 623.611 308 633C308 642.389 315.258 650 324.21 650Z" stroke="black" stroke-width="2" stroke-miterlimit="10"/>
<path d="M324.21 634.579C327.408 634.579 330 631.86 330 628.507C330 625.154 327.408 622.436 324.21 622.436C321.013 622.436 318.421 625.154 318.421 628.507C318.421 631.86 321.013 634.579 324.21 634.579Z" fill="black"/>
<path d="M328.842 637.007H319.579C318.351 637.007 317.172 637.519 316.304 638.43C315.435 639.341 314.947 640.576 314.947 641.864V642.394C316.155 643.686 317.596 644.713 319.187 645.414C320.777 646.115 322.485 646.476 324.21 646.476C325.936 646.476 327.644 646.115 329.234 645.414C330.825 644.713 332.266 643.686 333.474 642.394V641.864C333.474 641.226 333.354 640.595 333.121 640.006C332.888 639.416 332.547 638.881 332.117 638.43C331.687 637.979 331.176 637.621 330.614 637.377C330.053 637.133 329.45 637.007 328.842 637.007Z" fill="black"/>
<path d="M140.716 622.786V649.133" stroke="#3D3D3D" stroke-width="0.0265151" stroke-miterlimit="10"/>
<path d="M121.219 643.611C127.538 641.494 133.859 639.378 140.178 637.262C146.227 639.681 152.275 642.101 158.323 644.52L141.388 651.778C134.665 649.056 127.942 646.333 121.219 643.611Z" fill="#012C44"/>
<path d="M121 623.351C127.351 621.234 133.702 619.117 140.052 617C146.201 619.318 152.351 621.637 158.5 623.955V644.52C152.351 642 146.201 639.48 140.052 636.96C133.774 639.176 127.497 641.394 121.219 643.611C128 646.333 134.782 649.056 141.565 651.778C147.21 649.359 152.855 646.939 158.5 644.52" stroke="#00253E" stroke-width="1.32576" stroke-miterlimit="10" stroke-linecap="round" stroke-linejoin="round"/>
<path d="M140.178 617.302V637.086" stroke="#00253E" stroke-width="1.06061" stroke-miterlimit="10"/>
<path d="M124.452 624.863L135.34 621.234V629.097L124.452 632.726V624.863Z" fill="#00253E"/>
<path d="M124.452 624.863L135.34 621.234V629.097L124.452 632.726V624.863Z" stroke="#00253E" stroke-width="0.795455" stroke-miterlimit="10" stroke-linecap="round" stroke-linejoin="round"/>
<path d="M130.11 645.587C129.745 645.587 129.449 645.29 129.449 644.925V641.637C129.449 641.272 129.745 640.976 130.11 640.976C130.476 640.976 130.772 641.272 130.772 641.637V644.925C130.772 645.29 130.476 645.587 130.11 645.587Z" fill="white"/>
<path d="M134.494 645.587C134.129 645.587 133.833 645.29 133.833 644.925V641.637C133.833 641.272 134.129 640.976 134.494 640.976C134.86 640.976 135.156 641.272 135.156 641.637V644.925C135.156 645.29 134.86 645.587 134.494 645.587Z" fill="white"/>
<path d="M134.362 643.621H130.356V642.979H134.362V643.621Z" fill="white"/>
<path d="M128.882 644.944C128.694 644.944 128.542 644.792 128.542 644.604V641.947C128.542 641.759 128.694 641.606 128.882 641.606C129.07 641.606 129.222 641.759 129.222 641.947V644.604C129.222 644.792 129.07 644.944 128.882 644.944Z" fill="white"/>
<path d="M135.76 644.944C135.573 644.944 135.42 644.792 135.42 644.604V641.947C135.42 641.759 135.573 641.606 135.76 641.606C135.948 641.606 136.101 641.759 136.101 641.947V644.604C136.101 644.792 135.948 644.944 135.76 644.944Z" fill="white"/>
<path d="M128.126 643.697C128.022 643.697 127.937 643.612 127.937 643.508V643.055C127.937 642.95 128.022 642.866 128.126 642.866C128.23 642.866 128.315 642.95 128.315 643.055V643.508C128.315 643.612 128.23 643.697 128.126 643.697Z" fill="white"/>
<path d="M136.516 643.697C136.412 643.697 136.327 643.612 136.327 643.508V643.055C136.327 642.95 136.412 642.866 136.516 642.866C136.621 642.866 136.705 642.95 136.705 643.055V643.508C136.705 643.612 136.621 643.697 136.516 643.697Z" fill="white"/>
<path d="M142.603 629.756C142.631 629.681 142.646 629.612 142.654 629.552C142.68 629.362 142.634 629.261 142.349 628.585C142.324 628.528 142.287 628.439 142.196 628.381C142.105 628.324 142.009 628.327 141.942 628.331C141.895 628.333 141.526 628.356 141.382 628.636C141.322 628.752 141.327 628.863 141.331 628.941C141.344 629.169 141.444 629.181 141.687 629.654C141.762 629.8 141.816 629.922 141.942 629.959C142.001 629.977 142.056 629.969 142.094 629.959L144.028 634.234C143.976 634.256 143.905 634.289 143.825 634.335C143.655 634.433 143.179 634.709 143.061 635.201C142.974 635.565 143.124 635.882 143.163 635.964C143.302 636.257 143.445 636.252 143.825 636.778C143.987 637.004 144.052 637.131 144.079 637.287C144.118 637.512 144.058 637.683 144.028 637.796C143.868 638.408 144.144 639.038 144.181 639.119C144.4 639.601 144.863 639.998 145.402 640.137C145.782 640.234 146.085 640.173 146.394 640.111C146.84 640.021 147.689 639.85 148.175 639.093C148.29 638.915 148.682 638.242 148.455 637.592C148.243 636.984 147.524 636.498 147.336 636.371C147.107 636.216 146.893 636.109 146.75 635.837C146.622 635.591 146.675 635.449 146.623 635.15C146.605 635.046 146.46 634.222 145.86 633.928C145.316 633.663 144.756 633.911 144.664 633.954L142.603 629.756Z" fill="#00253E"/>
<path d="M146.344 636.854C146.344 637.276 146.002 637.618 145.58 637.618C145.159 637.618 144.817 637.276 144.817 636.854C144.817 636.433 145.159 636.091 145.58 636.091C146.002 636.091 146.344 636.433 146.344 636.854Z" stroke="white" stroke-width="0.265152" stroke-miterlimit="10" stroke-linecap="round" stroke-linejoin="round"/>
<path d="M145.326 638.584L147.056 637.77" stroke="white" stroke-width="0.265152" stroke-miterlimit="10" stroke-linecap="round" stroke-linejoin="round"/>
<path d="M141.407 629.068C141.317 629.132 141.276 629.133 141.255 629.119C141.22 629.097 141.239 629.034 141.204 629.018C141.174 629.003 141.118 629.029 141.102 629.068C141.09 629.097 141.128 629.156 141.204 629.272C141.225 629.305 141.239 629.325 141.255 629.323C141.286 629.319 141.306 629.221 141.306 629.221C141.298 629.195 141.302 629.178 141.306 629.17C141.322 629.129 141.384 629.105 141.458 629.119" fill="black"/>
<path d="M141.611 629.425C141.52 629.488 141.479 629.489 141.458 629.476C141.424 629.453 141.442 629.39 141.407 629.374C141.377 629.359 141.321 629.386 141.306 629.425C141.294 629.454 141.331 629.512 141.407 629.628C141.429 629.661 141.443 629.681 141.458 629.679C141.489 629.675 141.509 629.578 141.509 629.578C141.501 629.551 141.506 629.535 141.509 629.526C141.525 629.486 141.588 629.461 141.662 629.476" fill="black"/>
<path d="M141.809 629.726C141.718 629.789 141.677 629.79 141.656 629.777C141.622 629.754 141.64 629.691 141.605 629.675C141.575 629.66 141.519 629.687 141.504 629.726C141.492 629.754 141.529 629.813 141.605 629.929C141.626 629.962 141.641 629.982 141.656 629.98C141.687 629.976 141.707 629.879 141.707 629.879C141.699 629.852 141.704 629.836 141.707 629.827C141.723 629.787 141.785 629.762 141.86 629.777" fill="black"/>
<path d="M142.355 628.669C142.46 628.636 142.486 628.604 142.488 628.579C142.492 628.539 142.431 628.515 142.439 628.477C142.446 628.444 142.501 628.416 142.541 628.427C142.571 628.436 142.595 628.501 142.641 628.632C142.653 628.669 142.661 628.693 142.65 628.704C142.627 628.725 142.538 628.682 142.538 628.682C142.522 628.66 142.506 628.653 142.498 628.651C142.456 628.639 142.398 628.673 142.364 628.741" fill="black"/>
<path d="M142.513 629.048C142.618 629.015 142.644 628.983 142.646 628.958C142.65 628.918 142.589 628.894 142.597 628.856C142.604 628.823 142.659 628.795 142.699 628.806C142.729 628.814 142.753 628.88 142.799 629.011C142.811 629.047 142.819 629.071 142.808 629.082C142.785 629.104 142.696 629.061 142.696 629.061C142.68 629.038 142.664 629.032 142.656 629.029C142.613 629.017 142.556 629.052 142.522 629.119" fill="black"/>
<path d="M142.631 629.388C142.736 629.355 142.762 629.323 142.764 629.298C142.768 629.258 142.706 629.234 142.715 629.196C142.722 629.164 142.776 629.135 142.817 629.146C142.847 629.155 142.871 629.22 142.916 629.351C142.929 629.388 142.936 629.412 142.925 629.423C142.903 629.445 142.814 629.401 142.814 629.401C142.798 629.379 142.782 629.372 142.773 629.37C142.731 629.358 142.674 629.392 142.64 629.46" fill="black"/>
<path d="M144.009 646.64C144.009 647.95 142.948 649.012 141.638 649.012C140.328 649.012 139.267 647.95 139.267 646.64C139.267 645.331 140.328 644.269 141.638 644.269C142.948 644.269 144.009 645.331 144.009 646.64Z" fill="white"/>
<path d="M144.009 646.64C144.009 647.95 142.948 649.012 141.638 649.012C140.328 649.012 139.267 647.95 139.267 646.64C139.267 645.331 140.328 644.269 141.638 644.269C142.948 644.269 144.009 645.331 144.009 646.64Z" stroke="black" stroke-width="0.198864" stroke-miterlimit="10"/>
<path d="M139.963 645.009L143.269 648.316" stroke="black" stroke-width="0.198864" stroke-miterlimit="10"/>
<path d="M140.137 648.446C139.63 647.498 139.793 646.33 140.528 645.574C141.304 644.778 142.55 644.61 143.531 645.183" stroke="black" stroke-width="0.198864" stroke-miterlimit="10"/>
<path d="M139.397 646.053C139.549 646.069 139.783 646.115 140.006 646.271C140.073 646.317 140.308 646.492 140.572 647.141C140.804 647.712 140.734 647.854 140.92 648.229C141.087 648.565 141.327 648.819 141.573 649.012" stroke="black" stroke-width="0.198864" stroke-miterlimit="10"/>
<path d="M141.094 644.356C141.096 644.487 141.119 644.728 141.268 644.965C141.375 645.136 141.507 645.239 141.616 645.313C142.113 645.652 142.537 645.658 143.009 645.836C143.263 645.932 143.623 646.114 144.009 646.488" stroke="black" stroke-width="0.198864" stroke-miterlimit="10"/>
<g filter="url(#filter2_d)">
<path d="M78 368C78 363.582 81.5817 360 86 360H276C280.418 360 284 363.582 284 368V385C284 389.418 280.418 393 276 393H86C81.5817 393 78 389.418 78 385V368Z" fill="#DE5F4C"/>
<path d="M104.45 369.636V377.78C104.45 379.911 102.881 381.475 100.641 381.475C98.4012 381.475 96.8316 379.911 96.8316 377.78V369.636H96.077V377.822C96.0709 380.334 97.9846 382.199 100.641 382.199C103.303 382.199 105.205 380.34 105.205 377.822V369.636H104.45ZM114.41 374.725C113.963 373.361 112.985 372.588 111.415 372.588C109.64 372.588 108.367 373.615 108.367 375.112C108.367 376.307 109.121 377.146 110.637 377.515L112.116 377.877C113.22 378.148 113.77 378.746 113.77 379.603C113.77 380.726 112.756 381.517 111.24 381.517C109.87 381.517 109.019 380.877 108.753 379.664L108.047 379.845C108.367 381.354 109.52 382.193 111.246 382.193C113.178 382.193 114.518 381.119 114.518 379.579C114.518 378.384 113.77 377.557 112.309 377.195L110.884 376.838C109.677 376.543 109.097 375.969 109.097 375.088C109.097 374.001 110.051 373.259 111.415 373.259C112.683 373.259 113.389 373.892 113.727 374.907L114.41 374.725ZM120.684 382.193C122.513 382.193 123.636 381.125 124.058 380.189L123.388 379.917C123.044 380.605 122.193 381.511 120.684 381.511C118.577 381.511 117.315 379.809 117.285 377.527H124.36V377.068C124.36 374.315 122.585 372.588 120.508 372.588C118.208 372.588 116.554 374.635 116.554 377.406C116.554 380.171 118.166 382.193 120.684 382.193ZM117.297 376.857C117.442 374.834 118.752 373.277 120.508 373.277C122.271 373.277 123.623 374.846 123.623 376.857H117.297ZM133.989 382H134.858L137.859 370.874H137.925L140.925 382H141.795L145.193 369.636H144.415L141.396 380.835H141.324L138.354 369.636H137.436L134.466 380.835H134.393L131.375 369.636H130.59L133.989 382ZM148.76 382.199C150.233 382.199 151.271 381.366 151.754 380.328H151.808V382H152.545V375.522C152.545 373.494 151.036 372.588 149.388 372.588C147.957 372.588 146.617 373.234 146.085 374.569L146.78 374.828C147.142 373.911 148.084 373.265 149.406 373.265C150.903 373.265 151.808 374.128 151.808 375.474V375.86C151.808 376.573 150.77 376.645 149.357 376.814C146.882 377.116 145.82 377.901 145.82 379.446C145.82 381.209 147.16 382.199 148.76 382.199ZM148.832 381.517C147.534 381.517 146.556 380.738 146.556 379.471C146.556 378.324 147.401 377.708 149.43 377.466C150.335 377.364 151.422 377.195 151.808 376.875V378.239C151.808 380.123 150.571 381.517 148.832 381.517ZM161.525 374.725C161.078 373.361 160.1 372.588 158.531 372.588C156.756 372.588 155.482 373.615 155.482 375.112C155.482 376.307 156.237 377.146 157.752 377.515L159.231 377.877C160.336 378.148 160.885 378.746 160.885 379.603C160.885 380.726 159.871 381.517 158.355 381.517C156.985 381.517 156.134 380.877 155.868 379.664L155.162 379.845C155.482 381.354 156.635 382.193 158.362 382.193C160.293 382.193 161.634 381.119 161.634 379.579C161.634 378.384 160.885 377.557 159.424 377.195L157.999 376.838C156.792 376.543 156.212 375.969 156.212 375.088C156.212 374.001 157.166 373.259 158.531 373.259C159.798 373.259 160.505 373.892 160.843 374.907L161.525 374.725ZM164.919 375.987C164.919 374.369 166.048 373.289 167.612 373.289C169.157 373.289 170.183 374.327 170.183 375.915V382H170.914V375.885C170.914 373.85 169.622 372.607 167.75 372.607C166.41 372.607 165.426 373.228 164.992 374.194H164.919V369.636H164.183V382H164.919V375.987ZM173.997 382H174.728V372.727H173.997V382ZM174.365 371.085C174.691 371.085 174.957 370.826 174.957 370.506C174.957 370.186 174.691 369.926 174.365 369.926C174.039 369.926 173.768 370.186 173.768 370.506C173.768 370.826 174.039 371.085 174.365 371.085ZM178.549 375.987C178.549 374.369 179.672 373.289 181.217 373.289C182.757 373.289 183.777 374.333 183.777 375.915V382H184.513V375.885C184.513 373.856 183.222 372.607 181.356 372.607C180.034 372.607 179.038 373.234 178.603 374.194H178.531V372.727H177.812V382H178.549V375.987ZM190.919 385.67C193.086 385.67 194.553 384.542 194.553 382.217V372.727H193.841V374.798H193.756C193.315 373.603 192.368 372.588 190.762 372.588C188.516 372.588 187.061 374.581 187.061 377.364C187.061 380.147 188.558 381.952 190.756 381.952C192.277 381.952 193.321 381.082 193.75 379.881H193.822V382.187C193.822 384.089 192.706 384.994 190.919 384.994C189.428 384.994 188.486 384.348 188.081 383.449L187.466 383.811C187.973 384.958 189.186 385.67 190.919 385.67ZM190.822 381.27C188.92 381.27 187.792 379.676 187.792 377.358C187.792 375.051 188.902 373.277 190.822 373.277C192.712 373.277 193.828 375.015 193.828 377.358C193.828 379.772 192.681 381.27 190.822 381.27ZM202.692 369.636V382H203.417V371.429H203.489L207.962 382H208.675L213.148 371.429H213.221V382H213.945V369.636H213.124L208.361 380.913H208.276L203.513 369.636H202.692ZM219.715 382.199C221.188 382.199 222.226 381.366 222.709 380.328H222.763V382H223.5V375.522C223.5 373.494 221.991 372.588 220.343 372.588C218.912 372.588 217.572 373.234 217.04 374.569L217.735 374.828C218.097 373.911 219.039 373.265 220.361 373.265C221.858 373.265 222.763 374.128 222.763 375.474V375.86C222.763 376.573 221.725 376.645 220.312 376.814C217.837 377.116 216.775 377.901 216.775 379.446C216.775 381.209 218.115 382.199 219.715 382.199ZM219.787 381.517C218.489 381.517 217.511 380.738 217.511 379.471C217.511 378.324 218.357 377.708 220.385 377.466C221.29 377.364 222.377 377.195 222.763 376.875V378.239C222.763 380.123 221.526 381.517 219.787 381.517ZM230.065 382.193C231.876 382.193 233.241 381.01 233.506 379.295H232.758C232.516 380.642 231.423 381.511 230.065 381.511C228.127 381.511 226.805 379.742 226.805 377.382C226.805 374.991 228.182 373.277 230.065 373.277C231.46 373.277 232.504 374.206 232.74 375.456H233.488C233.216 373.748 231.816 372.588 230.059 372.588C227.711 372.588 226.075 374.641 226.075 377.394C226.075 380.147 227.699 382.193 230.065 382.193ZM236.754 375.987C236.754 374.369 237.883 373.289 239.447 373.289C240.992 373.289 242.018 374.327 242.018 375.915V382H242.749V375.885C242.749 373.85 241.457 372.607 239.585 372.607C238.245 372.607 237.261 373.228 236.827 374.194H236.754V369.636H236.018V382H236.754V375.987ZM245.832 382H246.563V372.727H245.832V382ZM246.2 371.085C246.526 371.085 246.792 370.826 246.792 370.506C246.792 370.186 246.526 369.926 246.2 369.926C245.874 369.926 245.603 370.186 245.603 370.506C245.603 370.826 245.874 371.085 246.2 371.085ZM250.384 375.987C250.384 374.369 251.507 373.289 253.052 373.289C254.592 373.289 255.612 374.333 255.612 375.915V382H256.348V375.885C256.348 373.856 255.057 372.607 253.191 372.607C251.869 372.607 250.873 373.234 250.438 374.194H250.366V372.727H249.647V382H250.384V375.987ZM263.025 382.193C264.854 382.193 265.977 381.125 266.4 380.189L265.73 379.917C265.386 380.605 264.535 381.511 263.025 381.511C260.918 381.511 259.657 379.809 259.627 377.527H266.702V377.068C266.702 374.315 264.927 372.588 262.85 372.588C260.55 372.588 258.896 374.635 258.896 377.406C258.896 380.171 260.508 382.193 263.025 382.193ZM259.639 376.857C259.783 374.834 261.093 373.277 262.85 373.277C264.613 373.277 265.965 374.846 265.965 376.857H259.639Z" fill="white"/>
</g>
<path d="M18 338C18 336.896 18.8957 336 20.0005 336H356C357.104 336 358 336.896 358 338C358 339.105 357.104 340.001 356 340.001H20.0005C18.8957 340.001 18 339.105 18 338Z" fill="#BFBFBF"/>
<path d="M18 338C18 336.896 18.8957 336 20.0005 336H146.001C147.106 336 148.002 336.896 148.002 338C148.002 339.105 147.106 340.001 146.001 340.001H20.0005C18.8957 340.001 18 339.105 18 338Z" fill="#023666"/>
<rect x="142" y="332" width="12" height="12" rx="6" fill="white" stroke="#023666" stroke-width="2"/>
<rect y="63" width="375" height="188" fill="#FAFAF4"/>
<path d="M133.732 130.457H138.153C138.089 126.568 134.893 123.884 130.036 123.884C125.252 123.884 121.747 126.526 121.768 130.489C121.758 133.706 124.027 135.549 127.713 136.433L130.089 137.03C132.464 137.605 133.786 138.287 133.796 139.757C133.786 141.355 132.273 142.442 129.929 142.442C127.532 142.442 125.806 141.334 125.657 139.15H121.193C121.31 143.869 124.688 146.309 129.982 146.309C135.309 146.309 138.441 143.763 138.452 139.768C138.441 136.135 135.703 134.207 131.911 133.354L129.95 132.886C128.054 132.449 126.467 131.746 126.499 130.18C126.499 128.773 127.745 127.74 130.004 127.74C132.209 127.74 133.562 128.741 133.732 130.457ZM150.972 123.159H147.062L140.031 149.281H143.941L150.972 123.159ZM171.493 124.182H166.902V137.903H166.71L157.292 124.182H153.244V146H157.857V132.268H158.017L167.509 146H171.493V124.182ZM191.612 124.182H187.276L181.875 127.602V131.692L186.871 128.56H186.999V146H191.612V124.182ZM204.785 135.091C204.785 140.386 206.181 144.786 209.089 148.578H213.425C211.199 145.766 209.505 140.141 209.505 135.091C209.505 130.052 211.199 124.427 213.425 121.614H209.089C206.181 125.407 204.785 129.796 204.785 135.091ZM216.879 146H221.642L230.697 128.006V124.182H215.388V127.953H225.924V128.102L216.879 146ZM241.944 146.479C247.431 146.479 250.744 142.303 250.755 135.112C250.765 127.974 247.409 123.884 241.944 123.884C236.468 123.884 233.145 127.964 233.134 135.112C233.113 142.282 236.447 146.469 241.944 146.479ZM241.944 142.655C239.441 142.655 237.821 140.141 237.832 135.112C237.843 130.158 239.451 127.665 241.944 127.665C244.426 127.665 246.046 130.158 246.046 135.112C246.056 140.141 244.437 142.655 241.944 142.655ZM265.568 124.182H261.03V146H265.568V124.182ZM269.204 146H273.742V129.636H269.204V146ZM271.483 127.527C272.836 127.527 273.944 126.494 273.944 125.226C273.944 123.969 272.836 122.935 271.483 122.935C270.141 122.935 269.033 123.969 269.033 125.226C269.033 126.494 270.141 127.527 271.483 127.527ZM286.081 129.636H283.002V125.716H278.464V129.636H276.227V133.045H278.464V141.568C278.443 144.775 280.627 146.362 283.919 146.224C285.091 146.181 285.922 145.947 286.38 145.798L285.666 142.42C285.442 142.463 284.963 142.57 284.537 142.57C283.631 142.57 283.002 142.229 283.002 140.972V133.045H286.081V129.636ZM289.038 146H293.576V136.742C293.576 134.729 295.046 133.344 297.049 133.344C297.678 133.344 298.54 133.45 298.967 133.589V129.562C298.562 129.466 297.997 129.402 297.539 129.402C295.707 129.402 294.205 130.467 293.608 132.491H293.438V129.636H289.038V146ZM308.009 146.32C312.057 146.32 314.784 144.349 315.423 141.312L311.226 141.036C310.768 142.282 309.596 142.932 308.083 142.932C305.814 142.932 304.376 141.43 304.376 138.99V138.979H315.519V137.733C315.519 132.172 312.153 129.423 307.828 129.423C303.012 129.423 299.891 132.843 299.891 137.893C299.891 143.081 302.97 146.32 308.009 146.32ZM304.376 136.167C304.472 134.303 305.889 132.811 307.902 132.811C309.873 132.811 311.237 134.217 311.247 136.167H304.376ZM332.096 134.303C331.691 131.288 329.262 129.423 325.129 129.423C320.942 129.423 318.183 131.362 318.193 134.516C318.183 136.966 319.727 138.553 322.923 139.192L325.757 139.757C327.185 140.045 327.835 140.567 327.856 141.387C327.835 142.357 326.78 143.049 325.193 143.049C323.573 143.049 322.497 142.357 322.22 141.025L317.757 141.259C318.183 144.391 320.846 146.32 325.182 146.32C329.422 146.32 332.458 144.157 332.469 140.929C332.458 138.564 330.914 137.147 327.739 136.497L324.777 135.901C323.254 135.57 322.689 135.048 322.7 134.26C322.689 133.28 323.797 132.641 325.203 132.641C326.78 132.641 327.718 133.504 327.941 134.558L332.096 134.303ZM342.976 137.254C342.976 131.959 341.58 127.559 338.672 123.766H334.336C336.562 126.579 338.256 132.204 338.256 137.254C338.256 142.293 336.562 147.918 334.336 150.73H338.672C341.58 146.938 342.976 142.548 342.976 137.254Z" fill="#002642"/>
<path d="M140.156 178.182H135.82L130.419 181.602V185.692L135.415 182.56H135.543V200H140.156V178.182ZM145.011 196.165H155.484V200H159.894V196.165H162.6V192.468H159.894V178.182H154.12L145.011 192.532V196.165ZM155.569 192.468H149.656V192.298L155.399 183.21H155.569V192.468ZM164.762 200H166.036V195.964C166.036 195.082 166.654 194.469 167.378 194.469C168.086 194.469 168.576 194.938 168.576 195.649V200H169.846V195.828C169.846 195.04 170.327 194.469 171.158 194.469C171.831 194.469 172.385 194.844 172.385 195.73V200H173.66V195.611C173.66 194.115 172.824 193.369 171.64 193.369C170.698 193.369 169.991 193.821 169.675 194.52H169.607C169.321 193.804 168.721 193.369 167.847 193.369C166.982 193.369 166.339 193.8 166.066 194.52H165.985V193.455H164.762V200ZM175.367 200H176.641V193.455H175.367V200ZM176.011 192.445C176.45 192.445 176.816 192.104 176.816 191.686C176.816 191.268 176.45 190.923 176.011 190.923C175.568 190.923 175.205 191.268 175.205 191.686C175.205 192.104 175.568 192.445 176.011 192.445ZM179.63 196.114C179.63 195.07 180.269 194.473 181.155 194.473C182.02 194.473 182.544 195.04 182.544 195.99V200H183.819V195.837C183.819 194.217 182.928 193.369 181.59 193.369C180.606 193.369 179.962 193.825 179.66 194.52H179.579V193.455H178.356V200H179.63V196.114ZM190.432 195.053C190.168 194.034 189.371 193.369 187.956 193.369C186.478 193.369 185.429 194.149 185.429 195.308C185.429 196.237 185.992 196.855 187.219 197.128L188.327 197.371C188.958 197.511 189.252 197.793 189.252 198.202C189.252 198.709 188.711 199.105 187.875 199.105C187.113 199.105 186.623 198.777 186.469 198.134L185.238 198.321C185.451 199.48 186.414 200.132 187.884 200.132C189.465 200.132 190.56 199.293 190.56 198.108C190.56 197.183 189.972 196.612 188.77 196.335L187.731 196.097C187.01 195.926 186.699 195.683 186.704 195.24C186.699 194.737 187.245 194.379 187.969 194.379C188.762 194.379 189.128 194.818 189.277 195.257L190.432 195.053Z" fill="#023666"/>
<path d="M201.496 186.825C202.86 186.825 204.042 185.685 204.053 184.268C204.042 182.872 202.86 181.732 201.496 181.732C200.09 181.732 198.929 182.872 198.939 184.268C198.929 185.685 200.09 186.825 201.496 186.825ZM201.496 198.277C202.86 198.277 204.042 197.137 204.053 195.72C204.042 194.325 202.86 193.185 201.496 193.185C200.09 193.185 198.929 194.325 198.939 195.72C198.929 197.137 200.09 198.277 201.496 198.277Z" fill="#023666"/>
<path d="M221.309 200.479C226.796 200.479 230.109 196.303 230.12 189.112C230.131 181.974 226.775 177.884 221.309 177.884C215.834 177.884 212.51 181.964 212.499 189.112C212.478 196.282 215.812 200.469 221.309 200.479ZM221.309 196.655C218.806 196.655 217.187 194.141 217.197 189.112C217.208 184.158 218.817 181.665 221.309 181.665C223.792 181.665 225.411 184.158 225.411 189.112C225.422 194.141 223.802 196.655 221.309 196.655ZM241.964 200.479C247.45 200.479 250.763 196.303 250.774 189.112C250.785 181.974 247.429 177.884 241.964 177.884C236.488 177.884 233.164 181.964 233.153 189.112C233.132 196.282 236.467 200.469 241.964 200.479ZM241.964 196.655C239.46 196.655 237.841 194.141 237.852 189.112C237.862 184.158 239.471 181.665 241.964 181.665C244.446 181.665 246.065 184.158 246.065 189.112C246.076 194.141 244.457 196.655 241.964 196.655ZM258.056 195.053C257.792 194.034 256.995 193.369 255.58 193.369C254.102 193.369 253.053 194.149 253.053 195.308C253.053 196.237 253.616 196.855 254.843 197.128L255.951 197.371C256.582 197.511 256.876 197.793 256.876 198.202C256.876 198.709 256.335 199.105 255.499 199.105C254.737 199.105 254.247 198.777 254.093 198.134L252.862 198.321C253.075 199.48 254.038 200.132 255.508 200.132C257.089 200.132 258.184 199.293 258.184 198.108C258.184 197.183 257.596 196.612 256.394 196.335L255.355 196.097C254.634 195.926 254.323 195.683 254.328 195.24C254.323 194.737 254.869 194.379 255.593 194.379C256.386 194.379 256.752 194.818 256.901 195.257L258.056 195.053ZM262.406 200.132C263.834 200.132 264.844 199.429 265.133 198.364L263.927 198.146C263.697 198.764 263.143 199.08 262.419 199.08C261.328 199.08 260.595 198.372 260.561 197.111H265.214V196.659C265.214 194.294 263.8 193.369 262.317 193.369C260.493 193.369 259.291 194.759 259.291 196.77C259.291 198.803 260.476 200.132 262.406 200.132ZM260.565 196.156C260.616 195.227 261.29 194.422 262.325 194.422C263.314 194.422 263.961 195.155 263.966 196.156H260.565ZM269.385 200.132C270.932 200.132 271.933 199.203 272.074 197.929H270.834C270.672 198.636 270.122 199.054 269.394 199.054C268.316 199.054 267.621 198.155 267.621 196.727C267.621 195.325 268.328 194.443 269.394 194.443C270.203 194.443 270.698 194.955 270.834 195.568H272.074C271.938 194.247 270.86 193.369 269.372 193.369C267.527 193.369 266.334 194.759 266.334 196.757C266.334 198.73 267.485 200.132 269.385 200.132ZM278.341 195.053C278.077 194.034 277.28 193.369 275.866 193.369C274.387 193.369 273.339 194.149 273.339 195.308C273.339 196.237 273.901 196.855 275.128 197.128L276.236 197.371C276.867 197.511 277.161 197.793 277.161 198.202C277.161 198.709 276.62 199.105 275.785 199.105C275.022 199.105 274.532 198.777 274.378 198.134L273.147 198.321C273.36 199.48 274.323 200.132 275.793 200.132C277.374 200.132 278.469 199.293 278.469 198.108C278.469 197.183 277.881 196.612 276.68 196.335L275.64 196.097C274.92 195.926 274.608 195.683 274.613 195.24C274.608 194.737 275.154 194.379 275.878 194.379C276.671 194.379 277.037 194.818 277.187 195.257L278.341 195.053Z" fill="#023666"/>
<path d="M52.4026 216H51.1489C50.624 216 50.1984 215.562 50.1984 215.021V213.732C50.1984 213.19 50.624 212.752 51.1489 212.752H52.4026C52.9275 212.752 53.3531 213.19 53.3531 213.732V215.021C53.3531 215.562 52.9275 216 52.4026 216Z" fill="black"/>
<path d="M56.4171 216H55.1652C54.6385 216 54.2129 215.562 54.2129 215.021V213.732C54.2129 213.19 54.6385 212.752 55.1652 212.752H56.4171C56.942 212.752 57.3676 213.19 57.3676 213.732V215.021C57.3676 215.562 56.942 216 56.4171 216Z" fill="black"/>
<path d="M90.8151 216H89.5614C89.0365 216 88.6109 215.562 88.6109 215.021V213.732C88.6109 213.19 89.0365 212.752 89.5614 212.752H90.8151C91.34 212.752 91.7656 213.19 91.7656 213.732V215.021C91.7656 215.562 91.34 216 90.8151 216Z" fill="black"/>
<path d="M94.8299 216H93.578C93.0531 216 92.6275 215.562 92.6275 215.021V213.732C92.6275 213.19 93.0531 212.752 93.578 212.752H94.8299C95.3548 212.752 95.7822 213.19 95.7822 213.732V215.021C95.7822 215.562 95.3548 216 94.8299 216Z" fill="black"/>
<path d="M96.6476 128H50.0723C45.5096 128 41.8105 131.808 41.8105 136.508V205.13C41.8105 209.829 45.5096 213.639 50.0723 213.639H96.6476C101.21 213.639 104.911 209.829 104.911 205.13V136.508C104.911 131.808 101.21 128 96.6476 128ZM96.6476 130.804C99.703 130.804 102.187 133.364 102.187 136.508V205.13C102.187 208.275 99.703 210.835 96.6476 210.835H50.0723C47.0187 210.835 44.5343 208.275 44.5343 205.13V136.508C44.5343 133.364 47.0187 130.804 50.0723 130.804H96.6476Z" fill="black"/>
<path d="M42.9579 141.583H103.264" stroke="black" stroke-width="0.930871" stroke-miterlimit="10" stroke-linecap="round" stroke-linejoin="round"/>
<path d="M42.9579 146.31H103.549" stroke="black" stroke-width="0.930871" stroke-miterlimit="10" stroke-linecap="round" stroke-linejoin="round"/>
<path d="M93.1508 178.35C93.1508 189.522 84.3554 198.577 73.5046 198.577C62.6539 198.577 53.8566 189.522 53.8566 178.35C53.8566 167.178 62.6539 158.121 73.5046 158.121C84.3554 158.121 93.1508 167.178 93.1508 178.35Z" stroke="black" stroke-width="1.11705" stroke-miterlimit="10"/>
<path d="M14.564 183.812H16.598C17.4616 183.812 18.162 183.091 18.162 182.202V174.793C18.162 173.902 17.4616 173.181 16.598 173.181H14.564C13.7004 173.181 13 173.902 13 174.793V182.202C13 183.091 13.7004 183.812 14.564 183.812Z" fill="black"/>
<path d="M15.128 178.35C15.128 189.521 23.9235 198.577 34.7742 198.577C45.6249 198.577 54.4222 189.521 54.4222 178.35C54.4222 167.178 45.6249 158.121 34.7742 158.121C23.9235 158.121 15.128 167.178 15.128 178.35Z" fill="white"/>
<path d="M15.128 178.35C15.128 189.522 23.9235 198.577 34.7742 198.577C45.6249 198.577 54.4222 189.522 54.4222 178.35C54.4222 167.178 45.6249 158.121 34.7742 158.121C23.9235 158.121 15.128 167.178 15.128 178.35Z" stroke="black" stroke-width="1.11705" stroke-miterlimit="10"/>
<path d="M54.7167 135.334C54.7167 137.087 53.3371 138.507 51.6329 138.507C49.9306 138.507 48.551 137.087 48.551 135.334C48.551 133.579 49.9306 132.159 51.6329 132.159C53.3371 132.159 54.7167 133.579 54.7167 135.334Z" fill="black"/>
<path d="M63.8952 135.334C63.8952 137.087 62.5156 138.507 60.8114 138.507C59.1091 138.507 57.7295 137.087 57.7295 135.334C57.7295 133.579 59.1091 132.159 60.8114 132.159C62.5156 132.159 63.8952 133.579 63.8952 135.334Z" fill="black"/>
<path d="M42.9579 204.779H102.641" stroke="black" stroke-width="0.930871" stroke-miterlimit="10" stroke-linecap="round" stroke-linejoin="round"/>
<path d="M85.4066 137.302C85.4066 137.547 85.2133 137.746 84.9757 137.746C84.7381 137.746 84.5465 137.547 84.5465 137.302C84.5465 137.058 84.7381 136.86 84.9757 136.86C85.2133 136.86 85.4066 137.058 85.4066 137.302Z" fill="black"/>
<path d="M86.8414 137.302C86.8414 137.547 86.6481 137.746 86.4105 137.746C86.1729 137.746 85.9796 137.547 85.9796 137.302C85.9796 137.058 86.1729 136.86 86.4105 136.86C86.6481 136.86 86.8414 137.058 86.8414 137.302Z" fill="black"/>
<path d="M88.2743 137.302C88.2743 137.547 88.0827 137.746 87.8451 137.746C87.6075 137.746 87.4142 137.547 87.4142 137.302C87.4142 137.058 87.6075 136.86 87.8451 136.86C88.0827 136.86 88.2743 137.058 88.2743 137.302Z" fill="black"/>
<path d="M89.7088 137.302C89.7088 137.547 89.5173 137.746 89.2779 137.746C89.0421 137.746 88.8488 137.547 88.8488 137.302C88.8488 137.058 89.0421 136.86 89.2779 136.86C89.5173 136.86 89.7088 137.058 89.7088 137.302Z" fill="black"/>
<path d="M91.1432 137.302C91.1432 137.547 90.9517 137.746 90.7123 137.746C90.4746 137.746 90.2831 137.547 90.2831 137.302C90.2831 137.058 90.4746 136.86 90.7123 136.86C90.9517 136.86 91.1432 137.058 91.1432 137.302Z" fill="black"/>
<path d="M92.578 137.302C92.578 137.547 92.3847 137.746 92.1471 137.746C91.9095 137.746 91.7162 137.547 91.7162 137.302C91.7162 137.058 91.9095 136.86 92.1471 136.86C92.3847 136.86 92.578 137.058 92.578 137.302Z" fill="black"/>
<path d="M94.0106 137.302C94.0106 137.547 93.8191 137.746 93.5814 137.746C93.3438 137.746 93.1505 137.547 93.1505 137.302C93.1505 137.058 93.3438 136.86 93.5814 136.86C93.8191 136.86 94.0106 137.058 94.0106 137.302Z" fill="black"/>
<path d="M95.4452 137.302C95.4452 137.547 95.2519 137.746 95.0143 137.746C94.7784 137.746 94.5852 137.547 94.5852 137.302C94.5852 137.058 94.7784 136.86 95.0143 136.86C95.2519 136.86 95.4452 137.058 95.4452 137.302Z" fill="black"/>
<path d="M50.6345 178.35C50.6345 187.287 43.5981 194.531 34.9179 194.531C26.2359 194.531 19.1995 187.287 19.1995 178.35C19.1995 169.411 26.2359 162.167 34.9179 162.167C43.5981 162.167 50.6345 169.411 50.6345 178.35Z" stroke="black" stroke-width="0.372349" stroke-miterlimit="10"/>
<path d="M27.7378 176.74L36.817 185.62" stroke="black" stroke-width="0.186174" stroke-miterlimit="10" stroke-linecap="round" stroke-linejoin="round"/>
<path d="M32.7316 173.001L41.8108 181.881" stroke="black" stroke-width="0.186174" stroke-miterlimit="10" stroke-linecap="round" stroke-linejoin="round"/>
<path d="M81.7342 191.09C82.9311 192.426 83.8 194.071 84.238 195.831C84.5572 197.105 84.6565 198.446 85.1442 199.663C85.6318 200.879 86.6533 202.004 87.93 202.064C89.5277 202.137 90.7371 200.583 91.3755 199.072C93.2765 194.571 92.5086 189.003 89.4675 185.225" fill="white"/>
<path d="M81.1331 191.711C81.9222 192.607 82.5712 193.644 83.0092 194.769C83.4933 196.008 83.6387 197.321 83.9367 198.612C84.4225 200.722 85.8908 203.169 88.322 202.924C90.6166 202.692 91.9058 200.337 92.5672 198.312C93.2766 196.145 93.4131 193.812 93.0833 191.557C92.7109 188.997 91.6575 186.606 90.0705 184.605C89.7779 184.236 89.1714 184.298 88.8664 184.605C88.51 184.964 88.5773 185.481 88.8664 185.844C91.2532 188.853 92.1151 193.071 91.2142 196.828C90.8525 198.331 90.0935 200.75 88.3965 201.146C86.3536 201.622 85.6621 198.674 85.3908 197.23C84.912 194.677 84.0519 192.423 82.3372 190.471C81.5995 189.633 80.399 190.874 81.1331 191.711Z" fill="black"/>
<path d="M58.6088 186.425C55.4541 190.115 55.2804 196.138 58.2134 200.016C59.3695 201.546 61.3361 202.802 63.0722 202.053C64.9111 201.259 65.3331 198.818 65.4803 196.771C65.6292 194.723 66.014 192.286 67.837 191.449" fill="white"/>
<path d="M58.0059 185.804C54.9753 189.415 54.415 194.849 56.5979 199.059C57.6565 201.098 59.6763 203.256 62.1093 203.149C64.5333 203.043 65.7498 200.788 66.1222 198.581C66.4645 196.547 66.0974 193.271 68.2661 192.205C69.2556 191.721 68.392 190.21 67.4061 190.693C65.5601 191.597 64.9749 193.746 64.7355 195.67C64.528 197.343 64.6628 199.647 63.3116 200.877C61.6801 202.362 59.4901 200.448 58.568 199.032C57.4686 197.346 56.9455 195.338 56.9756 193.317C57.0093 191.044 57.7594 188.773 59.2099 187.044C59.9228 186.195 58.7241 184.95 58.0059 185.804Z" fill="black"/>
<path d="M89.6997 175.929C90.1129 172.825 90.331 169.694 90.3452 166.559C90.3488 166.023 90.3417 165.471 90.159 164.967C89.9764 164.463 89.5774 164.009 89.0631 163.919C88.4744 163.814 87.9158 164.191 87.4282 164.551C85.7755 165.773 84.121 166.994 82.4683 168.215L82.0551 168.482C79.3686 167.04 77.3151 166.784 73.7916 166.784C71.731 166.784 69.7574 167.076 67.9362 167.604C66.4803 166.289 65.0227 164.973 63.5668 163.657C63.3026 163.417 62.9976 163.164 62.6483 163.187C62.306 163.211 62.0383 163.49 61.8184 163.759C59.5202 166.548 59.2365 169.607 59.3641 173.262C57.9863 175.126 57.1972 177.28 57.1972 179.579C57.1972 186.646 64.6273 192.375 73.7916 192.375C82.9577 192.375 90.3878 186.646 90.3878 179.579C90.3878 178.31 90.1448 177.087 89.6997 175.929Z" fill="white"/>
<path d="M90.521 176.162C90.8012 174.039 91.0069 171.907 91.1115 169.767C91.1629 168.699 91.1966 167.629 91.1966 166.559C91.1966 165.652 91.1292 164.713 90.5778 163.965C90.0458 163.24 89.191 162.866 88.3168 163.096C87.4107 163.335 86.6393 164.06 85.8963 164.607C84.483 165.653 83.098 166.771 81.6262 167.726H82.4845C80.4239 166.63 78.2871 166.084 75.9748 165.957C73.1907 165.803 70.4066 165.989 67.7112 166.76C67.9861 166.835 68.2627 166.91 68.5394 166.984C67.0835 165.668 65.6471 164.324 64.1682 163.035C63.5174 162.468 62.7319 162.05 61.9002 162.53C61.2494 162.906 60.7671 163.674 60.3628 164.299C58.6391 166.957 58.4104 170.154 58.5132 173.261L58.6285 172.818C56.1459 176.239 55.6511 180.681 57.5131 184.513C59.1232 187.823 62.1751 190.18 65.4343 191.581C72.6215 194.668 82.2983 193.629 87.8682 187.672C90.8597 184.469 92.1063 179.933 90.521 175.697C90.3561 175.257 89.9482 174.946 89.473 175.083C89.0634 175.202 88.7123 175.717 88.8789 176.162C89.9926 179.136 89.6024 182.26 87.8859 184.889C86.2882 187.334 83.7488 189.096 81.1031 190.136C75.1129 192.495 67.6084 191.907 62.4286 187.823C60.3397 186.176 58.6959 183.885 58.1905 181.194C57.8837 179.558 58.077 177.858 58.6498 176.308C58.9778 175.421 59.4743 174.647 59.9815 173.864C60.267 173.424 60.2032 172.995 60.1943 172.487C60.1854 171.987 60.1872 171.489 60.2049 170.99C60.2652 169.312 60.5383 167.616 61.2973 166.114C61.5012 165.712 61.7317 165.325 61.9853 164.954C62.1254 164.75 62.5758 164.058 62.7354 164.061C62.8968 164.065 63.5423 164.797 63.7214 164.958C64.17 165.363 64.6169 165.769 65.0655 166.174C65.4574 166.528 65.8511 166.882 66.243 167.236C66.6331 167.591 67.0498 168.107 67.5073 168.361C67.9595 168.613 68.4667 168.357 68.9259 168.244C69.4455 168.115 69.9704 168.005 70.4971 167.917C72.4122 167.598 74.3877 167.596 76.3205 167.731C77.8261 167.835 79.3138 168.146 80.7006 168.777C81.0854 168.953 81.5269 169.292 81.9419 169.343C82.2859 169.385 82.543 169.208 82.8161 169.024C83.6602 168.452 84.4652 167.813 85.2863 167.207C86.1924 166.537 87.0862 165.849 88.0065 165.199C88.2583 165.022 88.6573 164.68 88.9889 164.801C89.301 164.916 89.4127 165.38 89.4588 165.668C89.6202 166.725 89.4836 167.899 89.4428 168.965C89.4021 170.074 89.3347 171.18 89.2425 172.285C89.1485 173.424 89.0279 174.563 88.8789 175.697C88.8169 176.168 88.9889 176.632 89.473 176.774C89.8684 176.891 90.4589 176.632 90.521 176.162Z" fill="black"/>
<path d="M65.5158 183.796C66.9752 183.796 66.9788 181.459 65.5158 181.459C64.0546 181.459 64.0529 183.796 65.5158 183.796Z" fill="black"/>
<path d="M81.4045 184.309C82.8639 184.309 82.8675 181.972 81.4045 181.972C79.9433 181.972 79.9416 184.309 81.4045 184.309Z" fill="black"/>
<path d="M70.9207 187.376C72.1354 187.248 73.3571 187.258 74.5701 187.407C74.242 186.821 73.9157 186.235 73.5894 185.649C73.538 185.748 73.4813 185.841 73.4174 185.93C73.476 185.852 73.5362 185.773 73.5948 185.693C73.483 185.841 73.3571 185.97 73.2153 186.085C73.2915 186.025 73.3678 185.963 73.444 185.903C73.2986 186.014 73.1443 186.106 72.9777 186.179C73.0681 186.138 73.1585 186.1 73.249 186.06C73.0982 186.122 72.944 186.166 72.7826 186.191C72.8819 186.177 72.983 186.162 73.0841 186.149C72.9174 186.169 72.7542 186.169 72.5875 186.151C72.6886 186.164 72.7897 186.179 72.889 186.191C72.7046 186.164 72.529 186.117 72.3552 186.043C72.4457 186.082 72.5361 186.122 72.6266 186.16C72.474 186.091 72.3304 186.007 72.1956 185.905C72.2719 185.965 72.3481 186.025 72.4244 186.087C72.3074 185.992 72.2027 185.888 72.1052 185.771C71.9261 185.554 71.5697 185.43 71.3037 185.43C71.0253 185.43 70.6919 185.556 70.5004 185.771C70.0571 186.27 70.089 186.925 70.5004 187.424C71.1086 188.161 72.1495 188.599 73.0841 188.486C73.5877 188.424 74.0789 188.285 74.5027 187.986C74.9318 187.683 75.3024 187.305 75.5489 186.829C75.744 186.456 75.7617 186.02 75.5489 185.649C75.329 185.262 74.9815 185.121 74.5701 185.07C73.3571 184.921 72.1354 184.912 70.9207 185.039C70.6121 185.07 70.3443 185.147 70.1174 185.381C69.9205 185.583 69.7733 185.916 69.7857 186.208C69.8106 186.787 70.2876 187.442 70.9207 187.376Z" fill="black"/>
<path d="M72.0007 187.935C72.5734 189.196 73.7402 190.18 75.0649 190.489C76.4995 190.823 77.9944 190.398 79.0991 189.412C79.6524 188.919 78.8473 188.097 78.2976 188.587C77.4836 189.311 76.3221 189.611 75.2759 189.339C74.2492 189.072 73.4246 188.326 72.9813 187.343C72.8501 187.058 72.4511 186.985 72.2028 187.135C71.9191 187.307 71.8712 187.646 72.0007 187.935Z" fill="black"/>
<path d="M66.6133 188.143C67.2517 189.474 68.7093 190.378 70.1563 190.279C71.6619 190.177 72.9528 189.142 73.4759 187.698C73.5823 187.402 73.3553 187.059 73.0787 186.98C72.7613 186.889 72.4882 187.09 72.38 187.387C72.0325 188.349 71.0713 189.078 70.073 189.116C69.0197 189.155 68.055 188.516 67.5939 187.553C67.2712 186.878 66.2923 187.469 66.6133 188.143Z" fill="black"/>
<path d="M59.7048 198.418C59.5027 199.629 59.7314 200.892 60.4088 201.913C60.5595 202.139 60.8645 202.262 61.1075 202.101C61.3256 201.955 61.4515 201.624 61.2901 201.382C61.1483 201.168 61.0277 200.943 60.9248 200.708C60.9621 200.794 60.8894 200.613 60.884 200.595C60.861 200.531 60.8379 200.467 60.8184 200.401C60.783 200.286 60.7528 200.171 60.728 200.054C60.7138 199.987 60.6996 199.919 60.689 199.852C60.6872 199.846 60.6642 199.682 60.6783 199.788C60.6606 199.653 60.65 199.516 60.6482 199.377C60.6447 199.258 60.6464 199.138 60.6535 199.017C60.6571 198.95 60.6642 198.88 60.6713 198.813C60.6783 198.749 60.6801 198.745 60.673 198.8C60.6783 198.765 60.6837 198.732 60.689 198.698C60.7351 198.428 60.6198 198.119 60.3326 198.051C60.0843 197.993 59.7527 198.128 59.7048 198.418Z" fill="black"/>
<path d="M62.2174 198.135C62.5543 199.353 62.8912 200.569 63.2299 201.785C63.3044 202.059 63.5899 202.229 63.8577 202.154C64.1219 202.079 64.2904 201.779 64.2141 201.506C63.8772 200.29 63.5385 199.072 63.2016 197.856C63.1271 197.582 62.8416 197.412 62.5738 197.489C62.3096 197.564 62.1412 197.861 62.2174 198.135Z" fill="black"/>
<path d="M86.5204 197.901C86.5701 198.161 86.5931 198.402 86.5914 198.708C86.5914 198.999 86.5719 199.247 86.5275 199.486C86.4211 200.076 86.2456 200.551 85.9512 201.047C85.8076 201.29 85.8998 201.626 86.1339 201.767C86.3768 201.913 86.6889 201.821 86.8325 201.579C87.533 200.394 87.7582 198.979 87.5064 197.622C87.455 197.343 87.1287 197.184 86.8786 197.255C86.5949 197.336 86.469 197.622 86.5204 197.901Z" fill="black"/>
<path d="M88.799 198.108C89.2636 199.243 89.2565 200.518 88.7192 201.615C88.5951 201.867 88.6536 202.185 88.9019 202.334C89.1306 202.471 89.4764 202.4 89.6005 202.145C90.2549 200.815 90.3506 199.211 89.785 197.829C89.6786 197.567 89.4463 197.379 89.1572 197.462C88.9178 197.529 88.6926 197.845 88.799 198.108Z" fill="black"/>
<path d="M62.1607 171.461C61.8947 169.656 62.2707 167.779 63.1644 166.209H62.2831C63.0013 167.264 63.7283 168.316 64.4394 169.376C64.4926 169.457 64.5422 169.539 64.5919 169.619C64.599 169.647 64.6061 169.672 64.6132 169.7C64.6185 169.637 64.6167 169.632 64.6061 169.683C64.5866 169.72 64.6025 169.709 64.5866 169.727C64.466 169.855 64.333 169.937 64.1752 170.008C63.7123 170.218 63.2336 170.395 62.9942 170.894C62.7016 171.498 63.5829 172.031 63.8755 171.425C64.0652 171.032 64.677 170.972 65.0051 170.735C65.53 170.359 65.7853 169.76 65.4945 169.137C65.3633 168.856 65.1558 168.604 64.9838 168.349C64.787 168.062 64.5919 167.775 64.3968 167.489C63.9854 166.884 63.5758 166.282 63.1644 165.677C62.9481 165.362 62.4888 165.316 62.2831 165.677C61.2404 167.511 60.8662 169.647 61.1748 171.743C61.2173 172.022 61.5596 172.177 61.8043 172.11C62.0951 172.026 62.2015 171.744 62.1607 171.461Z" fill="black"/>
<path d="M86.4761 171.571C86.0735 170.879 85.561 170.267 84.9457 169.769V170.512C85.9476 169.334 87.0772 168.283 88.3256 167.388C88.0685 167.237 87.8131 167.087 87.5578 166.935C87.54 169.064 87.5223 171.191 87.5063 173.32C87.501 173.997 88.5224 173.997 88.5277 173.32C88.5437 171.191 88.5614 169.064 88.5792 166.935C88.5809 166.559 88.1341 166.249 87.8096 166.481C86.4902 167.427 85.2844 168.522 84.224 169.769C84.0591 169.962 83.9952 170.328 84.224 170.512C84.7737 170.958 85.233 171.483 85.593 172.102C85.9317 172.681 86.8148 172.153 86.4761 171.571Z" fill="black"/>
<path d="M54.4595 180.618C56.9846 181.614 59.4371 182.792 61.8044 184.136C62.379 184.464 62.8968 183.555 62.3204 183.228C59.8751 181.839 57.3393 180.632 54.7308 179.604C54.1172 179.361 53.8512 180.378 54.4595 180.618Z" fill="black"/>
<path d="M54.7819 184.722L62.2102 186.527C62.8486 186.683 63.1217 185.667 62.4816 185.512L55.0533 183.708C54.4149 183.553 54.1418 184.567 54.7819 184.722Z" fill="black"/>
<path d="M86.0928 184.59C88.3041 182.774 90.8488 181.41 93.5566 180.564C94.1844 180.369 93.9166 179.354 93.2853 179.551C90.3984 180.451 87.7243 181.912 85.3693 183.847C84.8569 184.269 85.5839 185.008 86.0928 184.59Z" fill="black"/>
<path d="M85.3464 187.113C87.7989 185.733 90.434 184.754 93.1755 184.188C93.8192 184.055 93.5461 183.042 92.9042 183.173C90.0811 183.758 87.3574 184.784 84.8304 186.206C84.2541 186.529 84.7684 187.438 85.3464 187.113Z" fill="black"/>
<g filter="url(#filter3_d)">
<path d="M118 230C118 225.582 121.582 222 126 222H294C298.418 222 302 225.582 302 230V247C302 251.418 298.418 255 294 255H126C121.582 255 118 251.418 118 247V230Z" fill="#002642" fill-opacity="0.8"/>
<path d="M145.352 235.5C144.996 233.478 143.305 231.467 140.541 231.467C137.456 231.467 135.307 233.985 135.307 237.818C135.307 241.652 137.456 244.169 140.541 244.169C143.305 244.169 144.996 242.141 145.352 240.136H144.579C144.259 241.821 142.768 243.445 140.541 243.445C138.102 243.445 136.049 241.483 136.049 237.818C136.049 234.19 138.102 232.192 140.541 232.192C142.768 232.192 144.259 233.834 144.579 235.5H145.352ZM150.45 244.199C151.923 244.199 152.962 243.366 153.445 242.328H153.499V244H154.235V237.522C154.235 235.494 152.726 234.588 151.078 234.588C149.647 234.588 148.307 235.234 147.776 236.569L148.47 236.828C148.832 235.911 149.774 235.265 151.096 235.265C152.593 235.265 153.499 236.128 153.499 237.474V237.86C153.499 238.573 152.46 238.645 151.048 238.814C148.573 239.116 147.51 239.901 147.51 241.446C147.51 243.209 148.85 244.199 150.45 244.199ZM150.523 243.517C149.225 243.517 148.247 242.738 148.247 241.471C148.247 240.324 149.092 239.708 151.12 239.466C152.026 239.364 153.112 239.195 153.499 238.875V240.239C153.499 242.123 152.261 243.517 150.523 243.517ZM158.06 237.987C158.06 236.369 159.183 235.289 160.728 235.289C162.267 235.289 163.288 236.333 163.288 237.915V244H164.024V237.885C164.024 235.856 162.732 234.607 160.867 234.607C159.545 234.607 158.549 235.234 158.114 236.194H158.042V234.727H157.323V244H158.06V237.987ZM170.562 244.193C172.373 244.193 173.738 243.01 174.003 241.295H173.255C173.013 242.642 171.921 243.511 170.562 243.511C168.624 243.511 167.302 241.742 167.302 239.382C167.302 236.991 168.679 235.277 170.562 235.277C171.957 235.277 173.001 236.206 173.237 237.456H173.985C173.714 235.748 172.313 234.588 170.556 234.588C168.208 234.588 166.572 236.641 166.572 239.394C166.572 242.147 168.196 244.193 170.562 244.193ZM180.131 244.193C181.96 244.193 183.083 243.125 183.505 242.189L182.835 241.917C182.491 242.605 181.64 243.511 180.131 243.511C178.024 243.511 176.762 241.809 176.732 239.527H183.807V239.068C183.807 236.315 182.032 234.588 179.956 234.588C177.656 234.588 176.002 236.635 176.002 239.406C176.002 242.171 177.613 244.193 180.131 244.193ZM176.744 238.857C176.889 236.834 178.199 235.277 179.956 235.277C181.718 235.277 183.071 236.846 183.071 238.857H176.744ZM187.079 231.636H186.343V244H187.079V231.636ZM195.169 244H195.923V238.832H198.984C199.201 238.832 199.407 238.82 199.612 238.796L202.419 244H203.288L200.373 238.633C201.876 238.168 202.745 236.919 202.745 235.252C202.745 233.109 201.326 231.636 198.978 231.636H195.169V244ZM195.923 238.126V232.337H198.96C200.862 232.337 201.997 233.49 201.997 235.252C201.997 237.003 200.862 238.126 198.966 238.126H195.923ZM209.017 244.193C210.847 244.193 211.97 243.125 212.392 242.189L211.722 241.917C211.378 242.605 210.527 243.511 209.017 243.511C206.911 243.511 205.649 241.809 205.619 239.527H212.694V239.068C212.694 236.315 210.919 234.588 208.842 234.588C206.542 234.588 204.888 236.635 204.888 239.406C204.888 242.171 206.5 244.193 209.017 244.193ZM205.631 238.857C205.776 236.834 207.086 235.277 208.842 235.277C210.605 235.277 211.957 236.846 211.957 238.857H205.631ZM221.122 236.725C220.675 235.361 219.697 234.588 218.127 234.588C216.352 234.588 215.079 235.615 215.079 237.112C215.079 238.307 215.833 239.146 217.348 239.515L218.828 239.877C219.932 240.148 220.482 240.746 220.482 241.603C220.482 242.726 219.467 243.517 217.952 243.517C216.582 243.517 215.731 242.877 215.465 241.664L214.759 241.845C215.079 243.354 216.232 244.193 217.958 244.193C219.89 244.193 221.23 243.119 221.23 241.579C221.23 240.384 220.482 239.557 219.021 239.195L217.596 238.838C216.389 238.543 215.809 237.969 215.809 237.088C215.809 236.001 216.763 235.259 218.127 235.259C219.395 235.259 220.101 235.892 220.439 236.907L221.122 236.725ZM227.395 244.193C229.225 244.193 230.347 243.125 230.77 242.189L230.1 241.917C229.756 242.605 228.905 243.511 227.395 243.511C225.289 243.511 224.027 241.809 223.997 239.527H231.072V239.068C231.072 236.315 229.297 234.588 227.22 234.588C224.92 234.588 223.266 236.635 223.266 239.406C223.266 242.171 224.878 244.193 227.395 244.193ZM224.009 238.857C224.154 236.834 225.464 235.277 227.22 235.277C228.983 235.277 230.335 236.846 230.335 238.857H224.009ZM233.607 244H234.344V237.891C234.344 236.393 235.461 235.313 237.006 235.313C237.199 235.313 237.326 235.337 237.423 235.349V234.607C237.308 234.6 237.181 234.6 237.048 234.6C235.823 234.6 234.791 235.228 234.392 236.176H234.326V234.727H233.607V244ZM246.463 234.727H245.672L242.726 243.052H242.666L239.72 234.727H238.929L242.279 244H243.113L246.463 234.727ZM250.939 244.199C252.412 244.199 253.451 243.366 253.934 242.328H253.988V244H254.725V237.522C254.725 235.494 253.215 234.588 251.567 234.588C250.137 234.588 248.796 235.234 248.265 236.569L248.959 236.828C249.322 235.911 250.263 235.265 251.585 235.265C253.083 235.265 253.988 236.128 253.988 237.474V237.86C253.988 238.573 252.95 238.645 251.537 238.814C249.062 239.116 247.999 239.901 247.999 241.446C247.999 243.209 249.34 244.199 250.939 244.199ZM251.012 243.517C249.714 243.517 248.736 242.738 248.736 241.471C248.736 240.324 249.581 239.708 251.61 239.466C252.515 239.364 253.602 239.195 253.988 238.875V240.239C253.988 242.123 252.751 243.517 251.012 243.517ZM261.091 234.727H259.141V232.506H258.41V234.727H257.04V235.385H258.41V241.941C258.41 243.348 259.503 244.151 260.662 244.151C261.036 244.151 261.29 244.085 261.519 244L261.338 243.33C261.157 243.39 260.976 243.439 260.71 243.439C259.889 243.439 259.141 242.931 259.141 241.809V235.385H261.091V234.727ZM263.858 244H264.589V234.727H263.858V244ZM264.227 233.085C264.553 233.085 264.818 232.826 264.818 232.506C264.818 232.186 264.553 231.926 264.227 231.926C263.901 231.926 263.629 232.186 263.629 232.506C263.629 232.826 263.901 233.085 264.227 233.085ZM271.121 244.193C273.415 244.193 275.081 242.177 275.081 239.394C275.081 236.611 273.409 234.588 271.121 234.588C268.827 234.588 267.161 236.605 267.161 239.394C267.161 242.177 268.827 244.193 271.121 244.193ZM271.121 243.511C269.171 243.511 267.891 241.694 267.891 239.394C267.891 237.106 269.183 235.277 271.121 235.277C273.065 235.277 274.351 237.1 274.351 239.394C274.351 241.694 273.071 243.511 271.121 243.511ZM278.355 237.987C278.355 236.369 279.478 235.289 281.023 235.289C282.562 235.289 283.583 236.333 283.583 237.915V244H284.319V237.885C284.319 235.856 283.027 234.607 281.162 234.607C279.84 234.607 278.844 235.234 278.409 236.194H278.337V234.727H277.618V244H278.355V237.987Z" fill="white"/>
</g>
<path d="M25.8213 287.348H27.7261C27.6686 285.251 25.8149 283.73 23.1558 283.73C20.5287 283.73 18.5152 285.232 18.5152 287.489C18.5152 289.31 19.8192 290.378 21.9221 290.947L23.469 291.369C24.8689 291.739 25.9491 292.2 25.9491 293.363C25.9491 294.641 24.7282 295.485 23.0471 295.485C21.5258 295.485 20.2602 294.808 20.1452 293.382H18.1636C18.2915 295.754 20.126 297.217 23.0599 297.217C26.1345 297.217 27.9051 295.6 27.9051 293.382C27.9051 291.023 25.8021 290.109 24.1402 289.7L22.8618 289.368C21.839 289.106 20.4775 288.626 20.4839 287.374C20.4839 286.261 21.5003 285.437 23.1111 285.437C24.6132 285.437 25.6807 286.14 25.8213 287.348ZM34.3435 297.198C36.4848 297.198 37.9997 296.143 38.4344 294.545L36.6254 294.219C36.2803 295.146 35.4493 295.619 34.3627 295.619C32.7263 295.619 31.6269 294.558 31.5757 292.666H38.5558V291.989C38.5558 288.441 36.4337 287.054 34.2093 287.054C31.4735 287.054 29.6709 289.138 29.6709 292.155C29.6709 295.204 31.4479 297.198 34.3435 297.198ZM31.5821 291.234C31.6588 289.841 32.6688 288.633 34.222 288.633C35.705 288.633 36.6766 289.732 36.683 291.234H31.5821ZM42.5876 283.909H40.6764V297H42.5876V283.909ZM49.3904 297.198C51.5317 297.198 53.0466 296.143 53.4813 294.545L51.6723 294.219C51.3271 295.146 50.4962 295.619 49.4095 295.619C47.7732 295.619 46.6737 294.558 46.6226 292.666H53.6027V291.989C53.6027 288.441 51.4806 287.054 49.2561 287.054C46.5203 287.054 44.7178 289.138 44.7178 292.155C44.7178 295.204 46.4948 297.198 49.3904 297.198ZM46.629 291.234C46.7057 289.841 47.7156 288.633 49.2689 288.633C50.7519 288.633 51.7235 289.732 51.7298 291.234H46.629ZM59.8589 297.198C62.1792 297.198 63.6814 295.805 63.8923 293.893H62.0322C61.7893 294.955 60.9648 295.581 59.8717 295.581C58.2545 295.581 57.2126 294.232 57.2126 292.091C57.2126 289.988 58.2737 288.665 59.8717 288.665C61.0862 288.665 61.8277 289.432 62.0322 290.352H63.8923C63.6878 288.371 62.0706 287.054 59.8398 287.054C57.072 287.054 55.2822 289.138 55.2822 292.136C55.2822 295.095 57.0081 297.198 59.8589 297.198ZM70.5193 287.182H68.5058V284.83H66.5945V287.182H65.1563V288.716H66.5945V294.513C66.5882 296.297 67.9497 297.16 69.4582 297.128C70.0654 297.121 70.4745 297.006 70.6982 296.923L70.3531 295.344C70.2252 295.37 69.9887 295.428 69.6819 295.428C69.0619 295.428 68.5058 295.223 68.5058 294.117V288.716H70.5193V287.182ZM81.7884 297C85.7771 297 88.0846 294.526 88.0846 290.435C88.0846 286.364 85.7771 283.909 81.9227 283.909H77.5505V297H81.7884ZM79.5257 295.274V285.635H81.8012C84.6649 285.635 86.1414 287.348 86.1414 290.435C86.1414 293.536 84.6649 295.274 81.6798 295.274H79.5257ZM96.6068 292.928C96.6132 294.597 95.3731 295.389 94.2993 295.389C93.1167 295.389 92.2986 294.533 92.2986 293.197V287.182H90.3873V293.427C90.3873 295.862 91.7233 297.128 93.6089 297.128C95.0855 297.128 96.089 296.348 96.5429 295.3H96.6452V297H98.5244V287.182H96.6068V292.928ZM101.092 297H103.004V291.004C103.004 289.719 103.994 288.793 105.35 288.793C105.746 288.793 106.193 288.863 106.347 288.908V287.08C106.155 287.054 105.778 287.035 105.535 287.035C104.384 287.035 103.4 287.687 103.042 288.741H102.94V287.182H101.092V297ZM110.77 297.217C112.394 297.217 113.308 296.393 113.672 295.658H113.749V297H115.615V290.48C115.615 287.623 113.365 287.054 111.805 287.054C110.028 287.054 108.392 287.77 107.753 289.56L109.549 289.969C109.83 289.272 110.546 288.601 111.831 288.601C113.065 288.601 113.698 289.246 113.698 290.359V290.403C113.698 291.1 112.982 291.087 111.217 291.292C109.357 291.509 107.453 291.995 107.453 294.226C107.453 296.156 108.903 297.217 110.77 297.217ZM111.185 295.683C110.105 295.683 109.325 295.197 109.325 294.251C109.325 293.229 110.233 292.864 111.339 292.717C111.959 292.634 113.429 292.468 113.704 292.193V293.459C113.704 294.622 112.777 295.683 111.185 295.683ZM122.744 287.182H120.73V284.83H118.819V287.182H117.381V288.716H118.819V294.513C118.813 296.297 120.174 297.16 121.683 297.128C122.29 297.121 122.699 297.006 122.923 296.923L122.578 295.344C122.45 295.37 122.213 295.428 121.907 295.428C121.286 295.428 120.73 295.223 120.73 294.117V288.716H122.744V287.182ZM124.858 297H126.769V287.182H124.858V297ZM125.823 285.667C126.482 285.667 127.031 285.156 127.031 284.529C127.031 283.903 126.482 283.385 125.823 283.385C125.158 283.385 124.615 283.903 124.615 284.529C124.615 285.156 125.158 285.667 125.823 285.667ZM133.476 297.198C136.244 297.198 138.053 295.172 138.053 292.136C138.053 289.08 136.244 287.054 133.476 287.054C130.708 287.054 128.899 289.08 128.899 292.136C128.899 295.172 130.708 297.198 133.476 297.198ZM133.483 295.594C131.674 295.594 130.83 294.015 130.83 292.129C130.83 290.25 131.674 288.652 133.483 288.652C135.279 288.652 136.122 290.25 136.122 292.129C136.122 294.015 135.279 295.594 133.483 295.594ZM142.097 291.17C142.097 289.604 143.056 288.71 144.386 288.71C145.683 288.71 146.47 289.56 146.47 290.985V297H148.381V290.755C148.381 288.326 147.045 287.054 145.038 287.054C143.561 287.054 142.596 287.738 142.142 288.78H142.021V287.182H140.186V297H142.097V291.17ZM152.203 289.975C152.9 289.975 153.482 289.406 153.482 288.697C153.482 288 152.9 287.425 152.203 287.425C151.5 287.425 150.925 288 150.925 288.697C150.925 289.406 151.5 289.975 152.203 289.975ZM152.203 297.121C152.9 297.121 153.482 296.553 153.482 295.843C153.482 295.146 152.9 294.571 152.203 294.571C151.5 294.571 150.925 295.146 150.925 295.843C150.925 296.553 151.5 297.121 152.203 297.121Z" fill="#023666"/>
</g>
<defs>
<filter id="filter0_d" x="5" y="12" width="40" height="42" filterUnits="userSpaceOnUse" color-interpolation-filters="sRGB">
<feFlood flood-opacity="0" result="BackgroundImageFix"/>
<feColorMatrix in="SourceAlpha" type="matrix" values="0 0 0 0 0 0 0 0 0 0 0 0 0 0 0 0 0 0 127 0" result="hardAlpha"/>
<feOffset dy="2"/>
<feColorMatrix type="matrix" values="0 0 0 0 0 0 0 0 0 0 0 0 0 0 0 0 0 0 0.043 0"/>
<feBlend mode="normal" in2="BackgroundImageFix" result="effect1_dropShadow"/>
<feBlend mode="normal" in="SourceGraphic" in2="effect1_dropShadow" result="shape"/>
</filter>
<filter id="filter1_ddd" x="-14" y="592" width="403" height="93" filterUnits="userSpaceOnUse" color-interpolation-filters="sRGB">
<feFlood flood-opacity="0" result="BackgroundImageFix"/>
<feColorMatrix in="SourceAlpha" type="matrix" values="0 0 0 0 0 0 0 0 0 0 0 0 0 0 0 0 0 0 127 0" result="hardAlpha"/>
<feOffset dy="4"/>
<feGaussianBlur stdDeviation="2.5"/>
<feColorMatrix type="matrix" values="0 0 0 0 0 0 0 0 0 0 0 0 0 0 0 0 0 0 0.2 0"/>
<feBlend mode="normal" in2="BackgroundImageFix" result="effect1_dropShadow"/>
<feColorMatrix in="SourceAlpha" type="matrix" values="0 0 0 0 0 0 0 0 0 0 0 0 0 0 0 0 0 0 127 0" result="hardAlpha"/>
<feOffset dy="3"/>
<feGaussianBlur stdDeviation="7"/>
<feColorMatrix type="matrix" values="0 0 0 0 0 0 0 0 0 0 0 0 0 0 0 0 0 0 0.12 0"/>
<feBlend mode="normal" in2="effect1_dropShadow" result="effect2_dropShadow"/>
<feColorMatrix in="SourceAlpha" type="matrix" values="0 0 0 0 0 0 0 0 0 0 0 0 0 0 0 0 0 0 127 0" result="hardAlpha"/>
<feOffset dy="8"/>
<feGaussianBlur stdDeviation="5"/>
<feColorMatrix type="matrix" values="0 0 0 0 0 0 0 0 0 0 0 0 0 0 0 0 0 0 0.14 0"/>
<feBlend mode="normal" in2="effect2_dropShadow" result="effect3_dropShadow"/>
<feBlend mode="normal" in="SourceGraphic" in2="effect3_dropShadow" result="shape"/>
</filter>
<filter id="filter2_d" x="78" y="360" width="206" height="35" filterUnits="userSpaceOnUse" color-interpolation-filters="sRGB">
<feFlood flood-opacity="0" result="BackgroundImageFix"/>
<feColorMatrix in="SourceAlpha" type="matrix" values="0 0 0 0 0 0 0 0 0 0 0 0 0 0 0 0 0 0 127 0" result="hardAlpha"/>
<feOffset dy="2"/>
<feColorMatrix type="matrix" values="0 0 0 0 0 0 0 0 0 0 0 0 0 0 0 0 0 0 0.043 0"/>
<feBlend mode="normal" in2="BackgroundImageFix" result="effect1_dropShadow"/>
<feBlend mode="normal" in="SourceGraphic" in2="effect1_dropShadow" result="shape"/>
</filter>
<filter id="filter3_d" x="118" y="222" width="184" height="35" filterUnits="userSpaceOnUse" color-interpolation-filters="sRGB">
<feFlood flood-opacity="0" result="BackgroundImageFix"/>
<feColorMatrix in="SourceAlpha" type="matrix" values="0 0 0 0 0 0 0 0 0 0 0 0 0 0 0 0 0 0 127 0" result="hardAlpha"/>
<feOffset dy="2"/>
<feColorMatrix type="matrix" values="0 0 0 0 0 0 0 0 0 0 0 0 0 0 0 0 0 0 0.043 0"/>
<feBlend mode="normal" in2="BackgroundImageFix" result="effect1_dropShadow"/>
<feBlend mode="normal" in="SourceGraphic" in2="effect1_dropShadow" result="shape"/>
</filter>
<clipPath id="clip0">
<rect width="375" height="667" fill="white"/>
</clipPath>
<clipPath id="clip1">
<rect width="30.4706" height="35" fill="white" transform="translate(220 616)"/>
</clipPath>
</defs>
</svg>
